<?xml version="1.0" encoding="utf-8"?>
<!-- Generator: Adobe Illustrator 24.3.0, SVG Export Plug-In . SVG Version: 6.00 Build 0)  -->
<svg version="1.1" id="Capa_1" xmlns="http://www.w3.org/2000/svg" xmlns:xlink="http://www.w3.org/1999/xlink" x="0px" y="0px"
	 viewBox="0 0 118.9 56.5" style="enable-background:new 0 0 118.9 56.5;" xml:space="preserve">
<path d="M38.9,52.5l-1,0.6c0.4,0.7,1.1,1.3,2.3,1.3c1.2,0,2.1-0.6,2.1-1.8c0-1.1-0.6-1.5-1.7-2l-0.3-0.1c-0.5-0.2-0.8-0.4-0.8-0.8
	c0-0.3,0.2-0.5,0.6-0.5c0.4,0,0.6,0.2,0.8,0.5l1-0.6c-0.4-0.7-1-1-1.8-1c-1.1,0-1.9,0.7-1.9,1.7c0,1,0.6,1.5,1.5,1.9l0.3,0.1
	c0.6,0.3,0.9,0.4,0.9,0.8c0,0.4-0.3,0.6-0.9,0.6C39.5,53.3,39.2,53,38.9,52.5 M35.1,49.3c0.6,0,1,0.3,1,1c0,0.7-0.4,1-1,1h-0.9v-1.9
	H35.1z M35.1,48.1h-2.2v6.2h1.3v-2h0.9c1.3,0,2.3-0.6,2.3-2.1C37.4,48.8,36.4,48.1,35.1,48.1 M31.7,48.1h-4.1v6.2h4.2v-1.1h-3v-1.4
	h2.5v-1.1h-2.5v-1.4h2.8V48.1z M24.1,49.3c0.6,0,1,0.2,1,0.9c0,0.7-0.4,0.9-1,0.9h-1v-1.9H24.1z M24.1,48.1h-2.3v6.2h1.3v-2.2h0.8
	l1.3,2.2h1.5L25.2,52c0.7-0.3,1.2-0.9,1.2-1.8C26.5,48.7,25.4,48.1,24.1,48.1 M16.7,48.1h-1.3v6.2h4.1v-1.1h-2.8V48.1z M4.4,49.7
	c0-0.3,0.2-0.5,0.6-0.5c0.4,0,0.6,0.2,0.8,0.5l1-0.6c-0.4-0.7-1-1-1.8-1c-1.1,0-1.9,0.7-1.9,1.7c0,1,0.6,1.5,1.5,1.9L5,51.8
	c0.6,0.3,0.9,0.4,0.9,0.8c0,0.4-0.3,0.6-0.9,0.6c-0.6,0-1-0.3-1.3-0.8l-1,0.6c0.4,0.7,1.1,1.3,2.3,1.3c1.2,0,2.1-0.6,2.1-1.8
	c0-1.1-0.6-1.5-1.7-2l-0.3-0.1C4.6,50.3,4.4,50.1,4.4,49.7 M11.1,49.2c1.1,0,1.9,0.9,1.9,2c0,1.2-0.8,2-1.9,2c-1.1,0-1.9-0.9-1.9-2
	C9.2,50.1,10,49.2,11.1,49.2 M11.1,48.1c-1.8,0-3.2,1.4-3.2,3.2c0,1.8,1.4,3.2,3.2,3.2c1.8,0,3.2-1.4,3.2-3.2
	C14.3,49.4,12.9,48.1,11.1,48.1 M38.5,35.4c-2.5,2.6-5.8,3.8-9,3.4c-4.4-0.6-7.4-2-9.5-4.4c-1.9-2.2-3.6-4.6-5.3-6.9l-1.3-1.7
	c-1.4-1.9-1.3-4.1-0.9-6.2c0.6-3.4,1.9-6.5,4.1-9.3C17,9.8,17.3,9.4,17.6,9c1.1-1.4,2.1-2.8,3.6-3.5c2.9-1.2,5.4-1.8,7.7-1.8
	c0.7,0,1.5,0.1,2.2,0.2c1.7,0.3,3.5,0.7,5.2,1.1l0.9,0.2c2.6,0.6,4.7,2.3,6.3,5.4c1.3,2.4,1.8,5.1,1.7,9l0,0l0,0
	C45.6,25.2,43.4,30.3,38.5,35.4 M39.8,36.6c5.2-5.4,7.6-11,7.2-16.9c0.1-4.1-0.5-7.2-1.9-9.8c-1.9-3.4-4.3-5.5-7.4-6.2l-0.9-0.2
	c-1.7-0.4-3.5-0.9-5.4-1.2c-3.3-0.5-6.7,0-10.8,1.7c-2,0.8-3.2,2.5-4.4,4.1c-0.3,0.4-0.6,0.8-0.9,1.1c-2.4,3-3.9,6.3-4.5,10.1
	c-0.4,2.3-0.5,5.1,1.3,7.5l1.2,1.7c1.7,2.3,3.4,4.7,5.4,7c2.3,2.7,5.8,4.3,10.5,5c0.5,0.1,1.1,0.1,1.6,0.1
	C34.1,40.6,37.3,39.1,39.8,36.6 M48.2,51.2c0,1.2-0.8,2-1.9,2c-1.1,0-1.9-0.9-1.9-2c0-1.2,0.8-2,1.9-2
	C47.4,49.2,48.2,50.1,48.2,51.2 M49.5,51.2c0-1.8-1.4-3.2-3.2-3.2c-1.8,0-3.2,1.4-3.2,3.2c0,1.8,1.4,3.2,3.2,3.2
	C48,54.4,49.5,53.1,49.5,51.2 M54.6,54.4v-1.1h-2.8v-5.1h-1.3v6.2H54.6z"/>
<path d="M109.8,48.2h-1.3v6.2h1.3V48.2z M103.3,54.4h4.1v-1.1h-2.8v-5.1h-1.3V54.4z M99.2,53.3v-1.4h2.5v-1.1h-2.5v-1.4h2.8v-1.1
	h-4.1v6.2h4.2v-1.1H99.2z M95.4,48.2v2.6h-2.7v-2.6h-1.3v6.2h1.3V52h2.7v2.4h1.3v-6.2H95.4z M84.7,51.3c0,1.8,1.4,3.2,3.2,3.2
	c1.2,0,2.1-0.5,2.6-1.4l-1-0.7c-0.3,0.5-0.8,0.9-1.6,0.9c-1.1,0-1.9-0.9-1.9-2s0.8-2,1.9-2c0.7,0,1.2,0.3,1.5,0.8l1-0.7
	c-0.6-0.9-1.4-1.3-2.5-1.3C86.1,48.1,84.7,49.5,84.7,51.3 M83.6,48.2h-1.3v6.2h1.3V48.2z M77.9,51.5l-3.1-3.4h-0.1v6.3H76v-2.3
	c0-0.4,0-1.1,0-1.1s0.4,0.5,0.7,0.9l1.2,1.4h0.1l1.2-1.4c0.3-0.3,0.7-0.9,0.7-0.9s0,0.7,0,1.1v2.3H81v-6.3h-0.1L77.9,51.5z
	 M110.8,30.4c-1,1.7-2.1,2.5-3.5,2.5h0c-3.3,0-7.1-4.8-8.3-6.7l-0.7,0.4L97.5,27c1.1,2.1,3.4,8.3,1.6,11.1c-0.7,1-1.8,1.5-3.6,1.5
	c-1.9,0-3.2-0.6-3.9-1.8c-0.8-1.4-0.8-3.6,0-6.4c0.6-2.2,1.5-4,1.6-4.3l-0.7-0.4c0,0-0.1,0-0.2-0.1l-0.5-0.3c-1.2,1.9-5,6.7-8.3,6.7
	h0c-1.3,0-2.5-0.8-3.5-2.5c-0.9-1.5-1.1-2.8-0.5-3.9c1.5-2.9,8-3.9,10.4-4.1l-0.1-0.8l0-0.8c-2.3-0.1-8.7-1.1-10.3-4
	c-0.6-1.2-0.5-2.5,0.4-4.2c0.9-1.6,1.9-2.4,3.1-2.4c3.3-0.1,7.4,5,8.8,7l0.6-0.4c0.4-0.2,0.8-0.4,0.8-0.4c-0.1-0.3-1-2.1-1.6-4.3
	c-0.8-2.8-0.8-5,0-6.4c0.7-1.2,1.9-1.7,3.9-1.8c1.8,0,3,0.4,3.6,1.5c1.8,2.7-0.6,8.9-1.6,11.1l0.7,0.4L99,17c1.3-2,5.5-7.1,8.8-7
	c1.2,0.1,2.2,0.8,3.1,2.4c0.9,1.7,1.1,3.1,0.4,4.2c-1.6,2.9-8,3.9-10.3,4l0,0.8l-0.1,0.8c2.4,0.2,8.9,1.2,10.4,4.1
	C111.9,27.6,111.7,28.9,110.8,30.4 M106,21.6c2.6-0.7,5.4-1.9,6.6-4.1c0.9-1.7,0.8-3.6-0.4-5.8c-1.1-2.1-2.6-3.2-4.5-3.3
	c-2.5-0.1-5.1,1.9-7,3.8c0.7-2.7,1.2-5.9-0.2-8c-1-1.5-2.7-2.3-5.1-2.2c-3.8,0.1-5.3,2.1-5.8,3.8c-0.5,1.7-0.4,3.8,0.3,6.4
	c-1.9-1.9-4.4-3.8-6.8-3.8c-0.1,0-0.1,0-0.2,0c-1.8,0.1-3.3,1.2-4.5,3.3c-1.2,2.2-1.3,4.1-0.4,5.8c1.2,2.2,4.1,3.4,6.6,4.1
	c-2.7,0.7-5.6,1.9-6.8,4.2c-0.8,1.6-0.6,3.5,0.6,5.5c1.3,2.2,2.9,3.3,4.9,3.3h0.1c2.4,0,4.7-1.7,6.4-3.5c-0.7,2.6-0.8,4.7-0.3,6.3
	c0.5,1.7,1.9,3.7,5.8,3.8c0.1,0,0.1,0,0.2,0c2.3,0,3.9-0.8,4.8-2.2c1.3-2.1,0.9-5.3,0.2-7.9c1.8,1.8,4.1,3.5,6.5,3.5h0.1
	c1.9,0,3.6-1.1,4.9-3.3c1.2-2,1.4-3.9,0.6-5.5C111.7,23.5,108.7,22.3,106,21.6 M116.2,54.4v-6.3H115v2.6c0,0.4,0.1,1.1,0.1,1.1
	s-0.4-0.6-0.7-0.8l-3.1-2.9h-0.1v6.3h1.2v-2.6c0-0.4-0.1-1.1-0.1-1.1s0.4,0.6,0.7,0.8l3.1,2.9H116.2z"/>
</svg>
