<?xml version="1.0" encoding="utf-8"?>
<!-- Generator: Adobe Illustrator 24.3.0, SVG Export Plug-In . SVG Version: 6.00 Build 0)  -->
<svg version="1.1" id="Capa_1" xmlns="http://www.w3.org/2000/svg" xmlns:xlink="http://www.w3.org/1999/xlink" x="0px" y="0px"
	 viewBox="0 0 275.3 56.5" style="enable-background:new 0 0 275.3 56.5;" xml:space="preserve">
<style type="text/css">
	.st0{fill:#FFFFFF;}
</style>
<path class="st0" d="M195.8,52.5l-1,0.6c0.4,0.7,1.1,1.3,2.3,1.3c1.2,0,2.1-0.6,2.1-1.8c0-1.1-0.6-1.5-1.7-2l-0.3-0.1
	c-0.5-0.2-0.8-0.4-0.8-0.8c0-0.3,0.2-0.5,0.6-0.5c0.4,0,0.6,0.2,0.8,0.5l1-0.6c-0.4-0.7-1-1-1.8-1c-1.1,0-1.9,0.7-1.9,1.7
	c0,1,0.6,1.5,1.5,1.9l0.3,0.1c0.6,0.3,0.9,0.4,0.9,0.8c0,0.4-0.3,0.6-0.9,0.6C196.4,53.3,196,53,195.8,52.5 M192,49.3
	c0.6,0,1,0.3,1,1c0,0.7-0.4,1-1,1h-0.9v-1.9H192z M192,48.1h-2.2v6.2h1.3v-2h0.9c1.3,0,2.3-0.6,2.3-2.1
	C194.3,48.8,193.3,48.1,192,48.1 M188.5,48.1h-4.1v6.2h4.2v-1.1h-3v-1.4h2.5v-1.1h-2.5v-1.4h2.8V48.1z M181,49.3c0.6,0,1,0.2,1,0.9
	c0,0.7-0.4,0.9-1,0.9h-1v-1.9H181z M181,48.1h-2.3v6.2h1.3v-2.2h0.8l1.3,2.2h1.5l-1.4-2.3c0.7-0.3,1.2-0.9,1.2-1.8
	C183.3,48.7,182.3,48.1,181,48.1 M173.5,48.1h-1.3v6.2h4.1v-1.1h-2.8V48.1z M161.2,49.7c0-0.3,0.2-0.5,0.6-0.5
	c0.4,0,0.6,0.2,0.8,0.5l1-0.6c-0.4-0.7-1-1-1.8-1c-1.1,0-1.9,0.7-1.9,1.7c0,1,0.6,1.5,1.5,1.9l0.3,0.1c0.6,0.3,0.9,0.4,0.9,0.8
	c0,0.4-0.3,0.6-0.9,0.6c-0.6,0-1-0.3-1.3-0.8l-1,0.6c0.4,0.7,1.1,1.3,2.3,1.3c1.2,0,2.1-0.6,2.1-1.8c0-1.1-0.6-1.5-1.7-2l-0.3-0.1
	C161.5,50.3,161.2,50.1,161.2,49.7 M168,49.2c1.1,0,1.9,0.9,1.9,2c0,1.2-0.8,2-1.9,2c-1.1,0-1.9-0.9-1.9-2
	C166.1,50.1,166.9,49.2,168,49.2 M168,48.1c-1.8,0-3.2,1.4-3.2,3.2c0,1.8,1.4,3.2,3.2,3.2c1.8,0,3.2-1.4,3.2-3.2
	C171.2,49.4,169.8,48.1,168,48.1 M195.4,35.4c-2.5,2.6-5.8,3.8-9,3.4c-4.4-0.6-7.4-2-9.5-4.4c-1.9-2.2-3.6-4.6-5.3-6.9l-1.3-1.7
	c-1.4-1.9-1.3-4.1-0.9-6.2c0.6-3.4,1.9-6.5,4.1-9.3c0.3-0.4,0.6-0.8,0.9-1.2c1.1-1.4,2.1-2.8,3.6-3.5c2.9-1.2,5.4-1.8,7.7-1.8
	c0.7,0,1.5,0.1,2.2,0.2c1.7,0.3,3.5,0.7,5.2,1.1l0.9,0.2c2.6,0.6,4.7,2.3,6.3,5.4c1.3,2.4,1.8,5.1,1.7,9l0,0l0,0
	C202.4,25.2,200.3,30.3,195.4,35.4 M196.6,36.6c5.2-5.4,7.6-11,7.2-16.9c0.1-4.1-0.5-7.2-1.9-9.8c-1.9-3.4-4.3-5.5-7.4-6.2l-0.9-0.2
	c-1.7-0.4-3.5-0.9-5.4-1.2c-3.3-0.5-6.7,0-10.8,1.7c-2,0.8-3.2,2.5-4.4,4.1c-0.3,0.4-0.6,0.8-0.9,1.1c-2.4,3-3.9,6.3-4.5,10.1
	c-0.4,2.3-0.5,5.1,1.3,7.5l1.2,1.7c1.7,2.3,3.4,4.7,5.4,7c2.3,2.7,5.8,4.3,10.5,5c0.5,0.1,1.1,0.1,1.6,0.1
	C191,40.6,194.1,39.1,196.6,36.6 M205,51.2c0,1.2-0.8,2-1.9,2c-1.1,0-1.9-0.9-1.9-2c0-1.2,0.8-2,1.9-2C204.3,49.2,205,50.1,205,51.2
	 M206.3,51.2c0-1.8-1.4-3.2-3.2-3.2c-1.8,0-3.2,1.4-3.2,3.2c0,1.8,1.4,3.2,3.2,3.2C204.9,54.4,206.3,53.1,206.3,51.2 M211.5,54.4
	v-1.1h-2.8v-5.1h-1.3v6.2H211.5z"/>
<path class="st0" d="M266.6,48.2h-1.3v6.2h1.3V48.2z M260.2,54.4h4.1v-1.1h-2.8v-5.1h-1.3V54.4z M256.1,53.3v-1.4h2.5v-1.1h-2.5
	v-1.4h2.8v-1.1h-4.1v6.2h4.2v-1.1H256.1z M252.2,48.2v2.6h-2.7v-2.6h-1.3v6.2h1.3V52h2.7v2.4h1.3v-6.2H252.2z M241.6,51.3
	c0,1.8,1.4,3.2,3.2,3.2c1.2,0,2.1-0.5,2.6-1.4l-1-0.7c-0.3,0.5-0.8,0.9-1.6,0.9c-1.1,0-1.9-0.9-1.9-2s0.8-2,1.9-2
	c0.7,0,1.2,0.3,1.5,0.8l1-0.7c-0.6-0.9-1.4-1.3-2.5-1.3C243,48.1,241.6,49.5,241.6,51.3 M240.5,48.2h-1.3v6.2h1.3V48.2z M234.8,51.5
	l-3.1-3.4h-0.1v6.3h1.2v-2.3c0-0.4,0-1.1,0-1.1s0.4,0.5,0.7,0.9l1.2,1.4h0.1l1.2-1.4c0.3-0.3,0.7-0.9,0.7-0.9s0,0.7,0,1.1v2.3h1.2
	v-6.3h-0.1L234.8,51.5z M267.7,30.4c-1,1.7-2.1,2.5-3.5,2.5h0c-3.3,0-7.1-4.8-8.3-6.7l-0.7,0.4l-0.8,0.4c1.1,2.1,3.4,8.3,1.6,11.1
	c-0.7,1-1.8,1.5-3.6,1.5c-1.9,0-3.2-0.6-3.9-1.8c-0.8-1.4-0.8-3.6,0-6.4c0.6-2.2,1.5-4,1.6-4.3l-0.7-0.4c0,0-0.1,0-0.2-0.1l-0.5-0.3
	c-1.2,1.9-5,6.7-8.3,6.7h0c-1.3,0-2.5-0.8-3.5-2.5c-0.9-1.5-1.1-2.8-0.5-3.9c1.5-2.9,8-3.9,10.4-4.1l-0.1-0.8l0-0.8
	c-2.3-0.1-8.7-1.1-10.3-4c-0.6-1.2-0.5-2.5,0.4-4.2c0.9-1.6,1.9-2.4,3.1-2.4c3.3-0.1,7.4,5,8.8,7l0.6-0.4c0.4-0.2,0.8-0.4,0.8-0.4
	c-0.1-0.3-1-2.1-1.6-4.3c-0.8-2.8-0.8-5,0-6.4c0.7-1.2,1.9-1.7,3.9-1.8c1.8,0,3,0.4,3.6,1.5c1.8,2.7-0.6,8.9-1.6,11.1l0.7,0.4
	l0.7,0.5c1.3-2,5.5-7.1,8.8-7c1.2,0.1,2.2,0.8,3.1,2.4c0.9,1.7,1.1,3.1,0.4,4.2c-1.6,2.9-8,3.9-10.3,4l0,0.8l-0.1,0.8
	c2.4,0.2,8.9,1.2,10.4,4.1C268.8,27.6,268.6,28.9,267.7,30.4 M262.9,21.6c2.6-0.7,5.4-1.9,6.6-4.1c0.9-1.7,0.8-3.6-0.4-5.8
	c-1.1-2.1-2.6-3.2-4.5-3.3c-2.5-0.1-5.1,1.9-7,3.8c0.7-2.7,1.2-5.9-0.2-8c-1-1.5-2.7-2.3-5.1-2.2c-3.8,0.1-5.3,2.1-5.8,3.8
	c-0.5,1.7-0.4,3.8,0.3,6.4c-1.9-1.9-4.4-3.8-6.8-3.8c-0.1,0-0.1,0-0.2,0c-1.8,0.1-3.3,1.2-4.5,3.3c-1.2,2.2-1.3,4.1-0.4,5.8
	c1.2,2.2,4.1,3.4,6.6,4.1c-2.7,0.7-5.6,1.9-6.8,4.2c-0.8,1.6-0.6,3.5,0.6,5.5c1.3,2.2,2.9,3.3,4.9,3.3h0.1c2.4,0,4.7-1.7,6.4-3.5
	c-0.7,2.6-0.8,4.7-0.3,6.3c0.5,1.7,1.9,3.7,5.8,3.8c0.1,0,0.1,0,0.2,0c2.3,0,3.9-0.8,4.8-2.2c1.3-2.1,0.9-5.3,0.2-7.9
	c1.8,1.8,4.1,3.5,6.5,3.5h0.1c1.9,0,3.6-1.1,4.9-3.3c1.2-2,1.4-3.9,0.6-5.5C268.5,23.5,265.6,22.3,262.9,21.6 M273,54.4v-6.3h-1.2
	v2.6c0,0.4,0.1,1.1,0.1,1.1s-0.4-0.6-0.7-0.8l-3.1-2.9h-0.1v6.3h1.2v-2.6c0-0.4-0.1-1.1-0.1-1.1s0.4,0.6,0.7,0.8l3.1,2.9H273z"/>
<path class="st0" d="M41.5,52c0,0.3,0.3,0.6,0.6,0.6h21.3c0.3,0,0.6-0.3,0.6-0.6c0-0.3-0.3-0.6-0.6-0.6H42.1
	C41.7,51.5,41.5,51.7,41.5,52 M62.4,47.1v-1.4h0.9V45h-0.9v-1.1h1.3v-0.8h-2.2v4.7h2.2v-0.7H62.4z M59.6,47.8v-3.9h0.8v-0.8h-2.6
	v0.8h0.8v3.9H59.6z M56,43.1V46h0c-0.1-0.3-0.2-0.6-0.3-0.9l-0.7-2H54v4.7h0.7v-3.2h0c0.1,0.2,0.2,0.6,0.3,0.9l0.9,2.3h0.8v-4.7H56z
	 M46.4,35.6c0,0.5,0,1.2,0.1,1.8h0c-0.1-0.6-0.3-1.3-0.4-1.8l-0.5-2h-1.1v6.7h1v-2.1c0-0.4,0-1.4-0.1-1.8h0c0.1,0.6,0.3,1.2,0.5,1.8
	l0.6,2.1h1v-6.7h-1V35.6z M44.3,43.1v3.2c0,0.6-0.1,0.8-0.5,0.8c-0.3,0-0.5-0.2-0.5-0.8v-3.1h-0.9v3.2c0,1,0.4,1.5,1.3,1.5
	c1,0,1.3-0.5,1.3-1.5v-3.2H44.3z M41.9,36.9c0,1.7-0.1,2.3-0.5,2.3c-0.4,0-0.5-0.6-0.5-2.3s0.1-2.3,0.5-2.3
	C41.8,34.6,41.9,35.1,41.9,36.9 M43,36.9c0-2.5-0.5-3.4-1.6-3.4c-1.1,0-1.6,0.9-1.6,3.4c0,2.5,0.5,3.4,1.6,3.4
	C42.5,40.3,43,39.4,43,36.9 M47.6,43.9c0.4,0,0.6,0.2,0.6,0.7c0,0.6-0.2,0.8-0.6,0.8h-0.3v-1.5H47.6z M47.6,43.1h-1.1v4.7h0.9v-1.7
	h0.3l0.6,1.7h0.9l-0.7-1.9c0.5-0.3,0.6-0.8,0.6-1.3C49,43.5,48.4,43.1,47.6,43.1 M49.9,37.9c0.1-0.4,0.2-1.5,0.2-1.8
	c0-0.2,0.1-0.5,0.1-0.7h0c0,0.3,0,0.5,0.1,0.7c0,0.3,0.2,1.4,0.2,1.8H49.9z M49.6,33.5l-1.1,6.7h1.1l0.2-1.5h0.7l0.2,1.5h1.2
	l-1.1-6.7H49.6z M51.8,46.1h-0.7l0.1-0.4c0.1-0.5,0.2-0.8,0.2-1.5h0c0.1,0.7,0.2,1,0.2,1.5L51.8,46.1z M52.9,47.8l-1-4.7H51l-1,4.7
	h0.8l0.2-1h0.9l0.2,1H52.9z M39.6,46.1l0.1-0.4c0.1-0.5,0.2-0.8,0.2-1.5h0c0.1,0.7,0.2,1,0.2,1.5l0.1,0.4H39.6z M39.4,46.7h0.9
	l0.2,1h0.9l-1-4.7h-0.9l-1,4.7h0.8L39.4,46.7z M36.3,40.2h2.4v-1h-1.2v-5.7h-1.2V40.2z M38.3,51c0-0.6,0.2-0.8,0.5-0.8
	c0.4,0,0.5,0.3,0.5,1.3c-0.2,0.2-0.3,0.3-0.6,0.3C38.4,51.7,38.3,51.5,38.3,51 M38.5,52.5c0.3,0,0.6-0.1,0.8-0.4
	c0,1-0.1,1.4-0.5,1.4c-0.2,0-0.3-0.2-0.4-0.5l-0.7,0.2c0.1,0.6,0.4,1,1.1,1c1,0,1.4-0.8,1.4-2.5c0-1.6-0.4-2.3-1.3-2.3
	c-0.9,0-1.3,0.7-1.3,1.6C37.5,51.9,37.8,52.5,38.5,52.5 M36.8,47.8v-3.9h0.8v-0.8h-2.6v0.8h0.8v3.9H36.8z M35,53.4h-0.6v0.7h2v-0.7
	h-0.5v-3.9H35c-0.1,0.2-0.4,0.3-0.6,0.3v0.8c0.2,0,0.4-0.1,0.6-0.2V53.4z M33.8,39.2v-2.1h0.9v-1h-0.9v-1.6H35v-1h-2.4v6.7H35v-1
	H33.8z M32.8,47.9c0.8,0,1.3-0.5,1.3-1.2c0-1.3-1.7-1.6-1.7-2.4c0-0.2,0.1-0.4,0.4-0.4c0.3,0,0.4,0.3,0.5,0.7l0.8-0.2
	c-0.2-0.8-0.5-1.3-1.3-1.3c-0.8,0-1.3,0.5-1.3,1.2c0,1.3,1.7,1.6,1.7,2.4c0,0.2-0.1,0.4-0.4,0.4c-0.4,0-0.5-0.3-0.6-0.8l-0.8,0.1
	C31.5,47.2,31.8,47.9,32.8,47.9 M31.3,51.8c0-1.3,0.1-1.7,0.5-1.7c0.4,0,0.5,0.4,0.5,1.7c0,1.3-0.1,1.7-0.5,1.7
	C31.5,53.5,31.3,53.1,31.3,51.8 M30.4,51.8c0,1.7,0.5,2.4,1.4,2.4c0.9,0,1.4-0.6,1.4-2.4c0-1.7-0.5-2.4-1.4-2.4
	C30.9,49.4,30.4,50.1,30.4,51.8 M29.4,36.9c0-1.7,0-2.3,0.4-2.3c0.3,0,0.4,0.3,0.4,1.5l1.1,0c0-2-0.4-2.6-1.5-2.6
	c-1.1,0-1.6,0.9-1.6,3.4s0.5,3.4,1.6,3.4c1.3,0,1.5-1.1,1.5-2.5l-1.1,0c0,1.2-0.1,1.5-0.4,1.5C29.4,39.2,29.4,38.6,29.4,36.9
	 M28.2,47.8h2.2v-0.7H29v-1.4H30V45H29v-1.1h1.3v-0.8h-2.2V47.8z M26.7,54.1v0.1h2.5v-0.7h-1.5c0-0.9,1.5-1.3,1.5-2.8
	c0-0.7-0.4-1.2-1.1-1.2c-0.8,0-1.2,0.5-1.3,1.4l0.8,0.1c0.1-0.6,0.3-0.7,0.5-0.7c0.2,0,0.4,0.2,0.4,0.5C28.3,52,26.7,51.8,26.7,54.1
	 M25.8,35.7c0,1-0.2,1.3-0.5,1.3h-0.2v-2.4h0.2C25.6,34.6,25.8,34.8,25.8,35.7 M27.1,40.2l-0.7-2.8c0.4-0.3,0.6-0.8,0.6-1.8
	c0-1.5-0.7-2.1-1.6-2.1H24v6.7h1.1v-2.4h0.2l0.6,2.4H27.1z M25.2,45.4v-1.5h0.3c0.4,0,0.6,0.2,0.6,0.7c0,0.6-0.2,0.8-0.6,0.8H25.2z
	 M25.2,46.1h0.3l0.6,1.7H27l-0.7-1.9c0.5-0.3,0.6-0.8,0.6-1.3c0-1.1-0.5-1.5-1.4-1.5h-1.1v4.7h0.9V46.1z M3.3,52
	c0,0.3,0.3,0.6,0.6,0.6h21c0.3,0,0.6-0.3,0.6-0.6c0-0.3-0.3-0.6-0.6-0.6h-21C3.6,51.5,3.3,51.7,3.3,52 M19.5,45.4v-1.5h0.3
	c0.4,0,0.6,0.2,0.6,0.7c0,0.6-0.2,0.8-0.6,0.8H19.5z M19.5,47.8v-1.7h0.3l0.6,1.7h0.9l-0.7-1.9c0.5-0.3,0.6-0.8,0.6-1.3
	c0-1.1-0.5-1.5-1.4-1.5h-1.1v4.7H19.5z M20.7,37.9c0.1-0.4,0.2-1.5,0.2-1.8c0-0.2,0.1-0.5,0.1-0.7h0c0,0.3,0,0.5,0.1,0.7
	c0,0.3,0.2,1.4,0.2,1.8H20.7z M20.5,33.5l-1.1,6.7h1.1l0.2-1.5h0.7l0.2,1.5h1.2l-1.1-6.7H20.5z M17.2,38.3c0,0.8-0.2,1.1-0.5,1.1
	h-0.2v-2.1h0.2C17,37.2,17.2,37.4,17.2,38.3 M17.1,35.5c0,0.8-0.2,0.9-0.5,0.9h-0.2v-1.8h0.2C16.9,34.6,17.1,34.7,17.1,35.5
	 M17.5,36.8L17.5,36.8c0.4-0.2,0.7-0.5,0.7-1.6c0-1.3-0.7-1.7-1.6-1.7h-1.3v6.7h1.4c0.9,0,1.6-0.5,1.6-1.8
	C18.4,37.3,18,37,17.5,36.8 M15.9,43.9c0.4,0,0.6,0.5,0.6,1.6c0,1.1-0.2,1.6-0.6,1.6c-0.4,0-0.6-0.5-0.6-1.6
	C15.3,44.4,15.5,43.9,15.9,43.9 M15.9,43.1c-0.9,0-1.5,0.7-1.5,2.4c0,1.7,0.6,2.4,1.5,2.4c0.9,0,1.5-0.7,1.5-2.4
	C17.4,43.8,16.8,43.1,15.9,43.1 M12.3,43.1v3.5c0,0.4-0.1,0.5-0.4,0.5c-0.2,0-0.4-0.1-0.5-0.2l-0.3,0.7c0.2,0.1,0.5,0.3,1,0.3
	c0.7,0,1.1-0.3,1.1-1.2v-3.5H12.3z M8.9,47.1v-1.4h0.9V45H8.9v-1.1h1.3v-0.8H8v4.7h2.2v-0.7H8.9z M4.4,43.1H3.3v4.7H4v-3.3h0
	c0,0.3,0.1,0.8,0.2,1.1l0.4,2.2h0.6l0.4-2.1c0.1-0.4,0.2-0.7,0.2-1.2h0v3.3h0.8v-4.7H5.6L5,46.4h0L4.4,43.1z M11.6,6.9
	c-1.1,0.8-2.8,0.9-2.8,2.6c-0.6,2.3,1.3,16.5-1.4,15.7c-2.1,0-1.2-6.3-1.3-8.3C6,14.6,6.8,8.8,5.1,7.8C4.3,7.4,3,7.2,3.1,6.1
	c0.1-1-0.4-2.8,1.2-2.7c2.2,0,4.5,0,6.7,0c0.6,0.1,0.9,0.4,0.9,1C11.7,5.2,12.1,6.3,11.6,6.9 M12.6,4.3c0-1-0.7-1.5-1.6-1.7
	c-0.3-0.1-5-0.3-7.3,0c-1,0.1-1.4,0.8-1.4,1.6c0.1,1.1-0.4,2.5,0.5,3.3c1.3,1,2.5,1.1,2.5,2.9c0.1,4.6-0.1,9.3,0.1,13.9
	c0.2,1,1,1.6,1.9,1.6c1.1,0,1.8-0.5,2.1-1.5c0.3-4.6,0-9.2,0.1-13.9c-0.3-2.5,1.1-2,2.6-3.2C13,6.7,12.5,5.4,12.6,4.3 M13.4,24.4
	c-0.2,0.5-0.6,0.8-1.2,0.8c-2.5,0.1-1-6-1.4-7.7c0-2.2-0.1-4.5,0.1-6.7c0.4-1.7,2.9-1,2.6,0.7C13.5,15.8,13.8,20.2,13.4,24.4
	 M12,9.1c-0.7,0.1-1.3,0.4-1.6,1.1c-0.6,4.4,0,9.1-0.2,13.6c-0.2,2.2,2.8,3.1,3.9,1.4c0.8-2.4,0.2-5.1,0.4-7.6
	C13.9,15.1,15.9,9,12,9.1 M32.6,14.6c-0.2,0.4-0.3-0.2-0.3-0.4C32.4,13,32.7,14.1,32.6,14.6 M33.3,15c0.8-1.9-1.5-3.4-1.8-0.8
	C31.4,15.3,32.7,16.2,33.3,15 M35.7,17.4c-0.7,1.6-3.6-0.2-4,1.7c-0.6,1.7,0.6,4.4,2.5,2.6c2.9-1,0.8,4-1.6,3.6
	c-3.3-0.4-3.9-4.8-4.1-7.5c0.1-2.8,0.5-5.4,2.4-7.4c1.9-1.8,4.1,0.2,4.6,2.3C35.9,14.2,36.3,15.9,35.7,17.4 M27.5,23.7
	c0,0.8-0.4,1.7-1.3,1.6c-3.2,0.6,0.6-13.7-2.9-11.4c-1.4,2,1,11.2-1.6,11.4c-2.7,0.2-0.3-9.3-1.7-11.3c-2.6-2.4-1.3,8.5-1.6,9.7
	c0.3,1.6-2,2.3-2.5,0.8c-0.3-2.3,0-4.6-0.1-6.9c0.1-2.3-0.3-4.7,0.2-7c0.3-0.9,1.8-0.9,2.1,0c0.2,0.5,0.4,0.5,0.9,0.3
	c3.4-2.7,2.8,1.5,4.1,0.4c1.7-2.4,4.2-1.3,4.4,1.4C27.5,16.3,27.4,20,27.5,23.7 M36.5,17.7c2-7-5.2-13.5-8.2-4
	c0.3-3.1-2.6-6.3-5.4-3.5c-0.2,0.2-0.2,0.2-0.4,0C21.6,8.7,20,9,18.8,9.9c-0.2,0.1-0.3,0.1-0.4-0.1c-0.8-1.2-2.7-1-3.3,0.3
	c-0.6,2.4-0.1,5-0.3,7.4c0.4,2.3-1.4,8.2,2,8.5c1.1,0,1.9-0.5,2.1-1.5c0.4-3.2-0.3-6.7,0.3-9.9c0.8,3.3-0.3,7,0.5,10.3
	c0.4,0.7,0.9,1.1,1.7,1.1c3.9,0,1.1-8.9,2.3-11.4c0.5,3,0.1,6.2,0.2,9.2c-0.3,2.1,3,3.2,4,1.1c0.5-1,0.1-2.3,0.3-3.3
	c1,3.8,5.1,6.6,7.7,2.4c1.3-1.6-0.5-4.5-2.4-2.8c-1.1,1.1-1.5-1-1.2-1.8C33.1,18.3,35.6,19.8,36.5,17.7 M44.1,14.7
	c-0.1,1.9,0.1,4.2-0.9,5.9c-1.1-1.5-1.3-11.3,0.1-11.9C44,10.6,44,12.7,44.1,14.7 M44.1,20.8c1.1-3.2,0.8-6.7,0.5-10.1
	c0-1.3-1-4.4-2.4-2.2c-0.7,2-0.7,4.1-0.7,6.3C41.6,16.1,41.5,23.5,44.1,20.8 M63.2,24.3c-0.3,1.4-2.5,1.2-3.3,0.3
	c-2-2-1.2-5.1-1.4-7.6c0-1.4,0-2.7,0-4.1c-0.3-1-1.6-0.7-1-2.3c0.1-0.6,1.1-0.5,1.1-1.2c0.3-1.5-0.9-4.6,1.3-4.8
	c2.7,0,0.3,4.9,1.8,5.3c1.1,0.1,1.4,1,1.1,1.8c-0.2,1-1.9,0.5-1.6,1.8c0.4,2.4-1.2,8.4,1.5,9.3C63.2,23,63.2,23.7,63.2,24.3
	 M56.3,17.5c0,2.2,0,4.3,0,6.5c-0.1,1.4-2.1,1.7-2.5,0.4c-0.5-1.2-0.9,0.5-2.4,0.8c-4.1,0.6-1.8-11.1-2.3-13.8
	c0-0.8,0.4-1.6,1.3-1.6c2.9-0.2,0.4,9.3,1.7,11.3c0.7,0.9,1.8,0,1.7-1c0-3,0-6.1,0-9.1c0.1-1,1-1.5,1.9-1.1
	C57,11.1,56,15.6,56.3,17.5 M42.8,25.3c-4.2-1.2-4.1-7-4.3-10.6C38.5,11,39.3,2,44.9,4.6C49,7.3,49.4,25.5,42.8,25.3 M63.7,22.8
	c-0.6-1.1-2-0.6-1.8-2.5c0-2.3,0-4.5,0-6.8c0-0.2,0-0.3,0.2-0.3c0.9-0.3,1.5-1,1.5-2c0-2-1.6-1.6-1.7-2.4c0-1.1,0.1-2.2,0-3.2
	c-0.2-2.2-3.6-2.3-4.1-0.3c-0.4,1.3,0.3,3-0.3,4.2c-0.3,0.1-0.6,0.8-0.8,0.5c-0.8-1.3-2.9-1.2-3.6,0.1c-0.9,3.4,0.3,7.2-0.5,10.6
	c-1.1-2.5,1.4-11.1-1.9-11.6c-1.1-0.2-1.8,0.4-2.4,1.2c-0.5-2.2-1-4.6-2.8-6.1c-5.5-3.7-8,4.9-7.7,9.1c0,4-0.1,8.7,2.8,11.7
	c3.8,3.3,7-1.4,7.6-4.9C48,23.2,48.9,28,53,25.3c0.2-0.1,0.2-0.2,0.4,0c4.7,3.2,3.7-4.1,3.7-6.8c0-1.9,0-3.8,0-5.7
	c0.1-0.2,0.4,0.2,0.6,0.3c0.7,4.1-2,13.2,4.6,12.9C63.8,25.8,64.4,24.1,63.7,22.8 M64,29.9c0-0.3-0.3-0.6-0.6-0.6H3.9
	c-0.3,0-0.6,0.3-0.6,0.6c0,0.3,0.3,0.6,0.6,0.6h59.5C63.7,30.5,64,30.3,64,29.9"/>
<path class="st0" d="M88.1,5.5h0.9V5.1h-2.2v0.4h0.9V9h0.4V5.5z M91.9,9h0.4V5.1h-0.4v1.6h-2V5.1h-0.4V9h0.4V7.1h2V9z M92.5,10.2
	v3.9h-4.7v-3.9h-0.9v9.2h0.9V15h4.7v4.4h0.9v-9.2H92.5z M93.8,24.1v-2.6h1.3c0.5,0,0.9,0,1.1,0.1c0.2,0.1,0.4,0.2,0.5,0.4
	c0.1,0.2,0.2,0.4,0.2,0.7c0,0.3-0.1,0.5-0.2,0.7c-0.1,0.2-0.3,0.4-0.6,0.5c-0.2,0.1-0.6,0.1-1.1,0.1L93.8,24.1z M93.8,28.3v-3.5h0.4
	l2.7,3.5h0.9l-2.7-3.5c0.6,0,1.1-0.1,1.5-0.2c0.4-0.2,0.6-0.4,0.8-0.7c0.2-0.3,0.3-0.7,0.3-1.1c0-0.5-0.1-0.9-0.4-1.2
	c-0.3-0.3-0.6-0.6-1.1-0.7c-0.3-0.1-0.9-0.1-1.7-0.1H93v7.6H93.8z M111.5,34.8h-3l1.5-3.2L111.5,34.8z M111.9,35.6l1.4,2.9h1
	l-4.1-8.8h-0.2l-4.2,8.8h1l1.4-2.9H111.9z M114,40h-1l-0.3,0.5h0.8v4.4h0.5V40z M116.6,33.6v-3h1.6c0.6,0,1,0.1,1.3,0.2
	c0.3,0.1,0.5,0.3,0.6,0.5c0.2,0.2,0.2,0.5,0.2,0.8c0,0.3-0.1,0.6-0.2,0.8c-0.2,0.2-0.4,0.4-0.7,0.5c-0.3,0.1-0.7,0.2-1.3,0.2
	L116.6,33.6z M116.6,38.5v-4.1h0.5l3.2,4.1h1.1l-3.2-4.1c0.7,0,1.3-0.1,1.7-0.3c0.4-0.2,0.7-0.5,1-0.8c0.2-0.4,0.3-0.8,0.3-1.3
	c0-0.6-0.2-1.1-0.5-1.5c-0.3-0.4-0.8-0.7-1.3-0.8c-0.3-0.1-1-0.1-2-0.1h-1.8v8.8H116.6z M121.4,24.1v-2.6h1.3c0.5,0,0.9,0,1.1,0.1
	c0.2,0.1,0.4,0.2,0.5,0.4c0.1,0.2,0.2,0.4,0.2,0.7c0,0.3-0.1,0.5-0.2,0.7c-0.1,0.2-0.3,0.4-0.6,0.5c-0.2,0.1-0.6,0.1-1.1,0.1
	L121.4,24.1z M121.4,28.3v-3.5h0.4l2.7,3.5h0.9l-2.7-3.5c0.6,0,1.1-0.1,1.5-0.2c0.4-0.2,0.6-0.4,0.8-0.7c0.2-0.3,0.3-0.7,0.3-1.1
	c0-0.5-0.1-0.9-0.4-1.2c-0.3-0.3-0.6-0.6-1.1-0.7c-0.3-0.1-0.9-0.1-1.7-0.1h-1.5v7.6H121.4z M118.6,19.4h4.4v-0.9h-3.5v-8.3h-0.9
	V19.4z M114.9,28.3h4.3v-0.7h-3.5v-3h3.5v-0.7h-3.5v-2.4h3.6v-0.7h-4.3V28.3z M111.8,19.4h5.2v-0.9h-4.3v-3.6h4.3V14h-4.3v-2.9h4.3
	v-0.9h-5.3V19.4z M109.4,24.1v-2.6h1.3c0.5,0,0.9,0,1.1,0.1c0.2,0.1,0.4,0.2,0.5,0.4s0.2,0.4,0.2,0.7c0,0.3-0.1,0.5-0.2,0.7
	c-0.1,0.2-0.3,0.4-0.6,0.5c-0.2,0.1-0.6,0.1-1.1,0.1L109.4,24.1z M109.4,28.3v-3.5h0.5c0.9,0,1.6,0,1.9-0.1c0.5-0.1,0.8-0.3,1.1-0.7
	c0.3-0.3,0.4-0.7,0.4-1.2c0-0.5-0.1-0.9-0.4-1.2c-0.3-0.3-0.6-0.5-1.1-0.7c-0.3-0.1-0.9-0.1-1.7-0.1h-1.5v7.6H109.4z M104.7,27.4
	c-0.5,0.3-1,0.4-1.6,0.4c-0.9,0-1.6-0.3-2.3-0.9c-0.6-0.6-0.9-1.4-0.9-2.3c0-0.6,0.1-1.2,0.4-1.7c0.3-0.5,0.7-0.9,1.2-1.2
	c0.5-0.3,1-0.4,1.6-0.4c0.6,0,1.1,0.1,1.6,0.4c0.5,0.3,0.9,0.7,1.2,1.2c0.3,0.5,0.4,1,0.4,1.6c0,0.6-0.1,1.2-0.4,1.6
	C105.6,26.7,105.2,27.1,104.7,27.4 M103.1,28.5c1.1,0,2-0.4,2.8-1.2c0.8-0.8,1.2-1.7,1.2-2.8c0-1.1-0.4-2.1-1.2-2.8
	c-0.8-0.8-1.7-1.1-2.9-1.1c-0.7,0-1.4,0.2-2,0.5c-0.6,0.4-1.1,0.8-1.4,1.5c-0.4,0.6-0.5,1.3-0.5,2c0,1.1,0.4,2,1.2,2.8
	C101,28.1,102,28.5,103.1,28.5 M104.6,44.9h3.3v-0.5h-2.3l1.2-1.3c0.4-0.4,0.6-0.7,0.8-1c0.1-0.2,0.2-0.5,0.2-0.8
	c0-0.4-0.1-0.7-0.4-1c-0.3-0.3-0.6-0.4-1.1-0.4c-0.5,0-0.8,0.2-1.2,0.5c-0.3,0.3-0.5,0.7-0.5,1.2h0.5c0-0.4,0.1-0.7,0.4-0.9
	c0.2-0.2,0.5-0.3,0.8-0.3c0.3,0,0.6,0.1,0.8,0.3c0.2,0.2,0.3,0.4,0.3,0.7c0,0.2-0.1,0.4-0.2,0.6c-0.1,0.2-0.4,0.5-0.7,0.9
	L104.6,44.9z M103.2,38.5l2.5-8.8h-0.9l-1.8,6.4l-2.5-6.4h-0.2l-2.5,6.4L96,29.7h-0.9l2.5,8.8h0.2l2.7-6.7l2.6,6.7H103.2z M93.6,5.5
	h1.9V5.1h-2.3V9h2.2V8.6h-1.8V7.1h1.8V6.7h-1.8V5.5z M97.5,9h0.4V5.1h-0.4V9z M101.8,9L101.8,9l0.1-3.9h-0.4v3l-2.6-3h-0.1V9h0.4V6
	L101.8,9z M103.6,5.5h0.9V5.1h-2.2v0.4h0.9V9h0.4V5.5z M103.9,14.8c0,0.7-0.2,1.4-0.5,2c-0.3,0.6-0.8,1.1-1.4,1.4
	c-0.6,0.3-1.3,0.5-2,0.5c-1.1,0-2-0.4-2.7-1.1c-0.8-0.8-1.1-1.7-1.1-2.8c0-0.7,0.2-1.4,0.5-2c0.3-0.6,0.8-1.1,1.4-1.4
	c0.6-0.4,1.3-0.5,1.9-0.5c0.7,0,1.3,0.2,2,0.5c0.6,0.4,1.1,0.8,1.4,1.4C103.7,13.4,103.9,14.1,103.9,14.8 M103.4,18.2
	c0.9-0.9,1.4-2.1,1.4-3.4c0-1.4-0.5-2.5-1.4-3.4c-0.9-0.9-2.1-1.4-3.5-1.4c-0.9,0-1.7,0.2-2.4,0.6c-0.7,0.4-1.3,1-1.7,1.8
	c-0.4,0.8-0.6,1.6-0.6,2.5c0,1.3,0.5,2.4,1.4,3.4c0.9,0.9,2.1,1.4,3.4,1.4C101.3,19.6,102.5,19.2,103.4,18.2 M105.4,5.5h1.9V5.1H105
	V9h2.2V8.6h-1.8V7.1h1.8V6.7h-1.8V5.5z M108.9,6.8l-0.7,0V5.5h0.7c0.3,0,0.5,0,0.6,0.1c0.1,0,0.2,0.1,0.3,0.2
	c0.1,0.1,0.1,0.2,0.1,0.4c0,0.1,0,0.3-0.1,0.4c-0.1,0.1-0.2,0.2-0.3,0.2C109.4,6.8,109.2,6.8,108.9,6.8 M110.4,9L109,7.2
	c0.3,0,0.6,0,0.8-0.1c0.2-0.1,0.3-0.2,0.4-0.4c0.1-0.2,0.2-0.3,0.2-0.6c0-0.3-0.1-0.5-0.2-0.6c-0.1-0.2-0.3-0.3-0.6-0.3
	c-0.2,0-0.5-0.1-0.9-0.1h-0.8V9h0.4V7.2h0.2l1.4,1.8H110.4z M108.6,11.1h2v-0.9h-5v0.9h2v8.3h0.9V11.1z M114.1,9L114.1,9l0.1-3.9
	h-0.4v3l-2.6-3h-0.1V9h0.4V6L114.1,9z M117.2,7.3h-1.3l0.7-1.4L117.2,7.3z M118.4,9l-1.8-3.9h-0.1L114.7,9h0.4l0.6-1.3h1.7L118,9
	H118.4z M119.6,5.5h0.9V5.1h-2.2v0.4h0.9V9h0.4V5.5z M120.9,9h0.4V5.1h-0.4V9z M125.6,7c0,0.3-0.1,0.6-0.2,0.9
	c-0.1,0.3-0.3,0.5-0.6,0.6c-0.3,0.1-0.5,0.2-0.8,0.2c-0.5,0-0.8-0.2-1.2-0.5c-0.3-0.3-0.5-0.7-0.5-1.2c0-0.3,0.1-0.6,0.2-0.9
	c0.1-0.3,0.3-0.5,0.6-0.6c0.3-0.2,0.5-0.2,0.8-0.2c0.3,0,0.6,0.1,0.8,0.2c0.3,0.2,0.5,0.4,0.6,0.6C125.6,6.4,125.6,6.7,125.6,7
	 M125.4,8.5c0.4-0.4,0.6-0.9,0.6-1.5c0-0.6-0.2-1.1-0.6-1.5C125,5.2,124.5,5,123.9,5c-0.4,0-0.7,0.1-1,0.3c-0.3,0.2-0.6,0.4-0.7,0.8
	c-0.2,0.3-0.3,0.7-0.3,1c0,0.6,0.2,1,0.6,1.4c0.4,0.4,0.9,0.6,1.5,0.6C124.6,9.1,125,8.9,125.4,8.5 M128.7,28.3v-6.8h1.7v-0.7h-4.1
	v0.7h1.7v6.8H128.7z M129.7,9L129.7,9l0.1-3.9h-0.4v3l-2.6-3h-0.1V9h0.4V6L129.7,9z M132.9,7.3h-1.3l0.7-1.4L132.9,7.3z M133.7,9
	h0.4l-1.8-3.9h-0.1L130.3,9h0.4l0.6-1.3h1.7L133.7,9z M134.6,9h1.9V8.6H135V5.1h-0.4V9z M132.1,36.4l-0.8,0.5
	c0.4,0.7,0.8,1.2,1.2,1.4c0.4,0.3,0.9,0.4,1.5,0.4c0.7,0,1.3-0.2,1.8-0.7c0.5-0.5,0.7-1,0.7-1.7c0-0.4-0.1-0.9-0.4-1.3
	c-0.3-0.4-0.8-0.9-1.6-1.5c-0.6-0.5-1-0.8-1.1-0.9c-0.2-0.2-0.4-0.4-0.4-0.6c-0.1-0.2-0.1-0.4-0.1-0.6c0-0.3,0.1-0.6,0.3-0.8
	c0.2-0.2,0.5-0.3,0.9-0.3c0.3,0,0.5,0.1,0.8,0.2c0.2,0.1,0.5,0.4,0.8,0.9l0.7-0.5c-0.4-0.6-0.8-0.9-1.2-1.1
	c-0.4-0.2-0.8-0.3-1.2-0.3c-0.4,0-0.8,0.1-1.1,0.3c-0.3,0.2-0.6,0.4-0.8,0.7c-0.2,0.3-0.3,0.7-0.3,1.1c0,0.5,0.2,0.9,0.5,1.4
	c0.2,0.2,0.6,0.7,1.4,1.2c0.7,0.6,1.2,1,1.5,1.4c0.2,0.3,0.3,0.6,0.3,0.9c0,0.3-0.1,0.5-0.2,0.7c-0.1,0.2-0.3,0.4-0.6,0.6
	c-0.3,0.1-0.5,0.2-0.8,0.2C133.2,37.9,132.6,37.4,132.1,36.4 M131.8,20.8H131l2.4,3.9v3.6h0.7v-3.6l2.4-3.9h-0.9l-1.9,3.1
	L131.8,20.8z M129.2,17.5c0-0.3,0.1-0.6,0.4-1c0.2-0.3,0.8-0.8,1.5-1.4c0.3,0.4,0.6,0.7,0.8,0.9l1.4,1.5c-0.6,0.5-1.2,0.9-1.7,1.1
	c-0.3,0.1-0.6,0.2-1,0.2c-0.4,0-0.8-0.1-1.1-0.4C129.4,18.1,129.2,17.8,129.2,17.5 M131.2,13.9c-0.4-0.4-0.7-0.8-0.9-1.2
	c-0.1-0.1-0.1-0.3-0.1-0.5c0-0.2,0.1-0.4,0.3-0.6c0.2-0.2,0.5-0.2,0.8-0.2c0.3,0,0.6,0.1,0.8,0.2c0.2,0.2,0.3,0.3,0.3,0.5
	c0,0.2-0.1,0.4-0.2,0.6C132,13.2,131.7,13.5,131.2,13.9 M129,19c0.4,0.4,1,0.6,1.7,0.6c0.5,0,1-0.1,1.5-0.3c0.5-0.2,1.1-0.6,1.9-1.2
	l1.2,1.3h1.3c-0.2-0.3-0.5-0.6-0.8-0.9c-0.4-0.4-0.7-0.7-1-0.9c0.4-0.3,0.7-0.6,1.1-0.9l-0.6-0.7c-0.3,0.3-0.7,0.6-1.2,0.9l-0.9-0.9
	l-1.4-1.5c0.6-0.5,1.1-1,1.3-1.3c0.2-0.3,0.3-0.7,0.3-1c0-0.3-0.1-0.6-0.3-0.8c-0.2-0.3-0.4-0.5-0.7-0.6c-0.3-0.2-0.7-0.2-1-0.2
	c-0.6,0-1.1,0.2-1.5,0.5c-0.4,0.3-0.5,0.7-0.5,1.1c0,0.3,0.1,0.5,0.2,0.8c0.1,0.3,0.5,0.7,1,1.3c-0.9,0.7-1.5,1.3-1.8,1.7
	c-0.3,0.5-0.4,0.9-0.4,1.4C128.3,18.1,128.5,18.6,129,19 M127.5,37.5c-0.5,0.2-1.3,0.2-2.5,0.2h-1v-7.1h0.6c1.3,0,2.2,0.1,2.7,0.3
	c0.7,0.2,1.3,0.6,1.7,1.2c0.4,0.6,0.6,1.3,0.6,2.2c0,0.8-0.2,1.5-0.6,2.1C128.7,36.9,128.2,37.3,127.5,37.5 M125.9,38.5
	c1.1,0,2-0.2,2.6-0.5c0.6-0.3,1.1-0.8,1.5-1.5c0.4-0.7,0.6-1.5,0.6-2.3c0-1-0.2-1.9-0.7-2.6c-0.5-0.7-1.2-1.3-2-1.6
	c-0.6-0.2-1.6-0.3-2.9-0.3h-1.8v8.8H125.9z M124.6,48.5l0.2-1.4c0.5,0,0.8,0,0.9,0.1c0.1,0,0.3,0.1,0.3,0.2c0.1,0.1,0.1,0.2,0.1,0.4
	c0,0.3-0.1,0.5-0.3,0.6C125.7,48.4,125.3,48.5,124.6,48.5 M123.8,46l-0.9,6.4h1.2l0.4-2.8h0.1l1.4,2.8h1.2l-1.4-2.9
	c0.5-0.1,0.9-0.3,1.2-0.7c0.3-0.3,0.4-0.7,0.4-1.1c0-0.4-0.1-0.7-0.3-0.9c-0.2-0.3-0.4-0.5-0.8-0.6c-0.3-0.1-0.8-0.2-1.4-0.2H123.8z
	 M119.3,46l-0.9,6.4h3.5l0.1-1.1h-2.3l0.2-1.7h2.2l0.1-1.1h-2.2l0.2-1.3h2.2l0.1-1.1H119.3z M117.8,41.4c0,0.3-0.1,0.5-0.3,0.7
	c-0.2,0.2-0.4,0.3-0.7,0.3c-0.3,0-0.5-0.1-0.7-0.3c-0.2-0.2-0.3-0.4-0.3-0.7c0-0.3,0.1-0.5,0.3-0.7c0.2-0.2,0.4-0.3,0.7-0.3
	c0.3,0,0.5,0.1,0.7,0.3S117.8,41.1,117.8,41.4 M117.8,42.8c0.2-0.3,0.4-0.6,0.4-0.8c0.1-0.2,0.1-0.4,0.1-0.6c0-0.3-0.1-0.5-0.2-0.8
	c-0.1-0.2-0.3-0.4-0.5-0.6c-0.2-0.1-0.5-0.2-0.8-0.2c-0.3,0-0.5,0.1-0.8,0.2c-0.2,0.1-0.4,0.3-0.6,0.5c-0.1,0.2-0.2,0.5-0.2,0.8
	c0,0.4,0.1,0.8,0.4,1c0.3,0.3,0.6,0.4,1,0.4c0.2,0,0.3,0,0.5-0.1l-1.3,2l0.4,0.3L117.8,42.8z M113.1,46l-0.9,6.4h1.1l0.6-4.4
	l2.3,4.4h1l0.9-6.4H117l-0.6,4.3l-2.3-4.3H113.1z M111.5,43.7c-0.1,0.3-0.2,0.5-0.4,0.6c-0.2,0.1-0.4,0.2-0.6,0.2
	c-0.2,0-0.4-0.1-0.6-0.2c-0.2-0.1-0.3-0.4-0.4-0.6c-0.1-0.3-0.1-0.7-0.1-1.3c0-0.6,0.1-1,0.2-1.3c0.1-0.3,0.2-0.5,0.4-0.6
	c0.2-0.1,0.4-0.2,0.6-0.2c0.2,0,0.4,0.1,0.6,0.2c0.2,0.1,0.3,0.4,0.5,0.7c0.1,0.3,0.2,0.7,0.2,1.2C111.7,43,111.6,43.4,111.5,43.7
	 M111.3,44.8c0.3-0.2,0.5-0.5,0.6-0.8c0.1-0.4,0.2-0.9,0.2-1.5c0-0.6-0.1-1.1-0.2-1.5c-0.2-0.4-0.4-0.6-0.6-0.8
	c-0.3-0.2-0.5-0.3-0.9-0.3c-0.3,0-0.6,0.1-0.9,0.3c-0.3,0.2-0.5,0.5-0.6,0.8c-0.1,0.4-0.2,0.9-0.2,1.5c0,0.6,0.1,1.1,0.2,1.5
	c0.1,0.4,0.3,0.6,0.6,0.8s0.5,0.3,0.9,0.3C110.8,45.1,111.1,45,111.3,44.8 M106.8,46l-0.9,6.4h1.1l0.6-4.4l2.3,4.4h1l0.9-6.4h-1.2
	l-0.6,4.3l-2.3-4.3H106.8z M104.5,46l-0.9,6.4h1.1l0.9-6.4H104.5z M97.3,46h-1.1l0.6,6.4h1l2-4.2l0.8,4.2h1l2.3-6.4h-1.2l-1.4,4
	l-0.8-4h-0.9l-1.9,4.1L97.3,46z M89.6,34.8l1.5-3.2l1.5,3.2H89.6z M91,29.7l-4.2,8.8h1l1.4-2.9H93l1.4,2.9h1l-4.1-8.8H91z
	 M87.5,21.5h1.3c0.5,0,0.9,0,1.1,0.1c0.2,0.1,0.4,0.2,0.5,0.4c0.1,0.2,0.2,0.4,0.2,0.7c0,0.3-0.1,0.5-0.2,0.7
	c-0.1,0.2-0.3,0.4-0.6,0.5c-0.2,0.1-0.6,0.1-1.1,0.1l-1.3,0V21.5z M88.2,20.8h-1.5v7.6h0.8v-3.5H88c0.9,0,1.6,0,1.9-0.1
	c0.5-0.1,0.8-0.3,1.1-0.7c0.3-0.3,0.4-0.7,0.4-1.2c0-0.5-0.1-0.9-0.4-1.2c-0.3-0.3-0.6-0.5-1.1-0.7C89.7,20.8,89.1,20.8,88.2,20.8
	 M138.7,53.7H84.9V2.8h53.8V53.7z M139.4,2H84.1v52.5h55.3V2z"/>
</svg>
