<?xml version="1.0" encoding="utf-8"?>
<!-- Generator: Adobe Illustrator 25.2.1, SVG Export Plug-In . SVG Version: 6.00 Build 0)  -->
<svg version="1.1" id="Capa_1" xmlns="http://www.w3.org/2000/svg" xmlns:xlink="http://www.w3.org/1999/xlink" x="0px" y="0px"
	 viewBox="0 0 275.3 56.5" style="enable-background:new 0 0 275.3 56.5;" xml:space="preserve">
<style type="text/css">
	.st0{fill:#FFFFFF;}
</style>
<path class="st0" d="M268,45.2h-1.2v5.9h1.2V45.2z M262,51.1h3.9v-1h-2.7v-4.8H262L262,51.1L262,51.1z M258.1,50v-1.3h2.4v-1h-2.4
	v-1.3h2.7v-1h-3.9v5.9h4v-1L258.1,50L258.1,50z M254.4,45.2v2.5h-2.6v-2.5h-1.2v5.9h1.2v-2.3h2.6v2.3h1.2v-5.9H254.4z M244.3,48.1
	c0,1.7,1.3,3,3,3c1.1,0,2-0.5,2.5-1.3l-0.9-0.7c-0.3,0.5-0.8,0.9-1.5,0.9c-1,0-1.8-0.9-1.8-1.9c0-1,0.8-1.9,1.8-1.9
	c0.7,0,1.1,0.3,1.4,0.8l0.9-0.7c-0.6-0.9-1.3-1.2-2.4-1.2C245.6,45.1,244.3,46.4,244.3,48.1 M243.3,45.2H242v5.9h1.2V45.2z
	 M237.9,48.3l-2.9-3.2h-0.1v6h1.1v-2.2c0-0.4,0-1,0-1s0.4,0.5,0.7,0.9l1.1,1.3h0.1l1.1-1.3c0.3-0.3,0.7-0.9,0.7-0.9s0,0.7,0,1v2.2
	h1.1v-6h-0.1L237.9,48.3z M269.1,28.3c-0.9,1.6-2,2.4-3.3,2.4l0,0c-3.1,0-6.7-4.6-7.9-6.4l-0.7,0.4l-0.8,0.4c1,2,3.2,7.9,1.5,10.5
	c-0.7,0.9-1.7,1.4-3.4,1.4c-1.8,0-3-0.6-3.7-1.7c-0.8-1.3-0.8-3.4,0-6.1c0.6-2.1,1.4-3.8,1.5-4.1l-0.7-0.4c0,0-0.1,0-0.2-0.1
	l-0.5-0.3c-1.1,1.8-4.7,6.4-7.9,6.4l0,0c-1.2,0-2.4-0.8-3.3-2.4c-0.9-1.4-1-2.7-0.5-3.7c1.4-2.8,7.6-3.7,9.9-3.9l-0.1-0.8v-0.8
	c-2.2-0.1-8.3-1-9.8-3.8c-0.6-1.1-0.5-2.4,0.4-4c0.9-1.5,1.8-2.3,2.9-2.3c3.1-0.1,7,4.7,8.3,6.6l0.6-0.4c0.4-0.2,0.8-0.4,0.8-0.4
	c-0.1-0.3-0.9-2-1.5-4.1c-0.8-2.7-0.8-4.7,0-6.1c0.7-1.1,1.8-1.6,3.7-1.7c1.7,0,2.8,0.4,3.4,1.4c1.7,2.6-0.6,8.4-1.5,10.5l0.7,0.4
	l0.7,0.5c1.2-1.9,5.2-6.7,8.3-6.6c1.1,0.1,2.1,0.8,2.9,2.3c0.9,1.6,1,2.9,0.4,4c-1.5,2.8-7.6,3.7-9.8,3.8v0.8l-0.1,0.8
	c2.3,0.2,8.4,1.1,9.9,3.9C270.1,25.6,269.9,26.9,269.1,28.3 M264.5,20c2.5-0.7,5.1-1.8,6.3-3.9c0.9-1.6,0.8-3.4-0.4-5.5
	c-1-2-2.5-3-4.3-3.1c-2.4-0.1-4.8,1.8-6.6,3.6c0.7-2.6,1.1-5.6-0.2-7.6c-0.9-1.4-2.6-2.2-4.8-2.1c-3.6,0.1-5,2-5.5,3.6
	s-0.4,3.6,0.3,6.1c-1.8-1.8-4.2-3.6-6.5-3.6c-0.1,0-0.1,0-0.2,0c-1.7,0.1-3.1,1.1-4.3,3.1c-1.1,2.1-1.2,3.9-0.4,5.5
	c1.1,2.1,3.9,3.2,6.3,3.9c-2.6,0.7-5.3,1.8-6.5,4c-0.8,1.5-0.6,3.3,0.6,5.2c1.2,2.1,2.8,3.1,4.6,3.1h0.1c2.3,0,4.5-1.6,6.1-3.3
	c-0.7,2.5-0.8,4.5-0.3,6c0.5,1.6,1.8,3.5,5.5,3.6c0.1,0,0.1,0,0.2,0c2.2,0,3.7-0.8,4.6-2.1c1.2-2,0.9-5,0.2-7.5
	c1.7,1.7,3.9,3.3,6.2,3.3h0.1c1.8,0,3.4-1,4.6-3.1c1.1-1.9,1.3-3.7,0.6-5.2C269.8,21.8,267.1,20.6,264.5,20 M274.1,51.1v-6H273v2.5
	c0,0.4,0.1,1,0.1,1s-0.4-0.6-0.7-0.8l-2.9-2.8h-0.1v6h1.1v-2.5c0-0.4-0.1-1-0.1-1s0.4,0.6,0.7,0.8L274.1,51.1L274.1,51.1z"/>
<path class="st0" d="M42.4,48.8c0,0.3,0.3,0.6,0.6,0.6h20.2c0.3,0,0.6-0.3,0.6-0.6s-0.3-0.6-0.6-0.6H43
	C42.6,48.3,42.4,48.5,42.4,48.8 M62.3,44.1v-1.3h0.9v-0.7h-0.9v-1h1.2v-0.8h-2.1v4.5h2.1v-0.7C63.5,44.1,62.3,44.1,62.3,44.1z
	 M59.6,44.8v-3.7h0.8v-0.8h-2.5v0.8h0.8v3.7H59.6z M56.2,40.3v2.8l0,0c-0.1-0.3-0.2-0.6-0.3-0.9l-0.7-1.9h-0.9v4.5H55v-3l0,0
	c0.1,0.2,0.2,0.6,0.3,0.9l0.9,2.2h0.8v-4.5H56.2z M47.1,33.2c0,0.5,0,1.1,0.1,1.7l0,0c-0.1-0.6-0.3-1.2-0.4-1.7l-0.5-1.9h-1v6.4h0.9
	v-2c0-0.4,0-1.3-0.1-1.7l0,0c0.1,0.6,0.3,1.1,0.5,1.7l0.6,2h0.9v-6.4h-0.9L47.1,33.2L47.1,33.2z M45.1,40.3v3c0,0.6-0.1,0.8-0.5,0.8
	c-0.3,0-0.5-0.2-0.5-0.8v-2.9h-0.9v3c0,0.9,0.4,1.4,1.2,1.4c0.9,0,1.2-0.5,1.2-1.4v-3L45.1,40.3L45.1,40.3z M42.8,34.5
	c0,1.6-0.1,2.2-0.5,2.2s-0.5-0.6-0.5-2.2s0.1-2.2,0.5-2.2C42.7,32.3,42.8,32.8,42.8,34.5 M43.9,34.5c0-2.4-0.5-3.2-1.5-3.2
	c-1,0-1.5,0.9-1.5,3.2s0.5,3.2,1.5,3.2C43.4,37.7,43.9,36.8,43.9,34.5 M48.2,41.1c0.4,0,0.6,0.2,0.6,0.7c0,0.6-0.2,0.8-0.6,0.8h-0.3
	v-1.4H48.2z M48.2,40.3h-1v4.5H48v-1.6h0.3l0.6,1.6h0.9L49.1,43c0.5-0.3,0.6-0.8,0.6-1.2C49.5,40.7,49,40.3,48.2,40.3 M50.4,35.4
	c0.1-0.4,0.2-1.4,0.2-1.7c0-0.2,0.1-0.5,0.1-0.7l0,0c0,0.3,0,0.5,0.1,0.7c0,0.3,0.2,1.3,0.2,1.7H50.4z M50.1,31.2l-1,6.4h1l0.2-1.4
	H51l0.2,1.4h1.1l-1-6.4H50.1z M52.2,43.2h-0.7l0.1-0.4c0.1-0.5,0.2-0.8,0.2-1.4l0,0c0.1,0.7,0.2,0.9,0.2,1.4L52.2,43.2z M53.2,44.8
	l-0.9-4.5h-0.9l-0.9,4.5h0.8l0.2-0.9h0.9l0.2,0.9H53.2z M40.6,43.2l0.1-0.4c0.1-0.5,0.2-0.8,0.2-1.4l0,0c0.1,0.7,0.2,0.9,0.2,1.4
	l0.1,0.4H40.6z M40.4,43.8h0.9l0.2,0.9h0.9l-0.9-4.5h-0.9l-0.9,4.5h0.8L40.4,43.8z M37.5,37.6h2.3v-0.9h-1.1v-5.4h-1.1V37.6z
	 M39.4,47.8c0-0.6,0.2-0.8,0.5-0.8c0.4,0,0.5,0.3,0.5,1.2c-0.2,0.2-0.3,0.3-0.6,0.3C39.5,48.5,39.4,48.3,39.4,47.8 M39.6,49.3
	c0.3,0,0.6-0.1,0.8-0.4c0,0.9-0.1,1.3-0.5,1.3c-0.2,0-0.3-0.2-0.4-0.5l-0.7,0.2c0.1,0.6,0.4,0.9,1,0.9c0.9,0,1.3-0.8,1.3-2.4
	c0-1.5-0.4-2.2-1.2-2.2c-0.9,0-1.2,0.7-1.2,1.5C38.6,48.7,38.9,49.3,39.6,49.3 M38,44.8v-3.7h0.8v-0.8h-2.5v0.8H37v3.7H38z
	 M36.3,50.1h-0.6v0.7h1.9v-0.7h-0.5v-3.7h-0.9c-0.1,0.2-0.4,0.3-0.6,0.3v0.8c0.2,0,0.4-0.1,0.6-0.2V50.1z M35.1,36.6v-2H36v-0.9
	h-0.9v-1.5h1.1v-0.9H34v6.4h2.3v-0.9C36.3,36.6,35.1,36.6,35.1,36.6z M34.2,44.9c0.8,0,1.2-0.5,1.2-1.1c0-1.2-1.6-1.5-1.6-2.3
	c0-0.2,0.1-0.4,0.4-0.4c0.3,0,0.4,0.3,0.5,0.7l0.8-0.2c-0.2-0.8-0.5-1.2-1.2-1.2c-0.8,0-1.2,0.5-1.2,1.1c0,1.2,1.6,1.5,1.6,2.3
	c0,0.2-0.1,0.4-0.4,0.4c-0.4,0-0.5-0.3-0.6-0.8l-0.8,0.1C32.9,44.2,33.2,44.9,34.2,44.9 M32.8,48.6c0-1.2,0.1-1.6,0.5-1.6
	s0.5,0.4,0.5,1.6c0,1.2-0.1,1.6-0.5,1.6C32.9,50.2,32.8,49.8,32.8,48.6 M31.9,48.6c0,1.6,0.5,2.3,1.3,2.3s1.3-0.6,1.3-2.3
	c0-1.6-0.5-2.3-1.3-2.3C32.4,46.3,31.9,47,31.9,48.6 M31,34.5c0-1.6,0-2.2,0.4-2.2c0.3,0,0.4,0.3,0.4,1.4h1c0-1.9-0.4-2.5-1.4-2.5
	s-1.5,0.9-1.5,3.2s0.5,3.2,1.5,3.2c1.2,0,1.4-1,1.4-2.4h-1c0,1.1-0.1,1.4-0.4,1.4C31,36.6,31,36.1,31,34.5 M29.8,44.8h2.1v-0.7h-1.3
	v-1.3h0.9v-0.7h-0.9v-1h1.2v-0.8h-2.1L29.8,44.8L29.8,44.8z M28.4,50.8L28.4,50.8l2.4,0.1v-0.7h-1.4c0-0.9,1.4-1.2,1.4-2.7
	c0-0.7-0.4-1.1-1-1.1c-0.8,0-1.1,0.5-1.2,1.3l0.8,0.1c0.1-0.6,0.3-0.7,0.5-0.7s0.4,0.2,0.4,0.5C29.9,48.8,28.4,48.6,28.4,50.8
	 M27.5,33.3c0,0.9-0.2,1.2-0.5,1.2h-0.2v-2.3h0.2C27.4,32.3,27.5,32.5,27.5,33.3 M28.8,37.6l-0.7-2.7c0.4-0.3,0.6-0.8,0.6-1.7
	c0-1.4-0.7-2-1.5-2h-1.3v6.4h1v-2.3h0.2l0.6,2.3C27.6,37.6,28.8,37.6,28.8,37.6z M27,42.5v-1.4h0.3c0.4,0,0.6,0.2,0.6,0.7
	c0,0.6-0.2,0.8-0.6,0.8H27z M27,43.2h0.3l0.6,1.6h0.9L28,43c0.5-0.3,0.6-0.8,0.6-1.2c0-1-0.5-1.4-1.3-1.4h-1v4.5h0.9L27,43.2
	L27,43.2z M6.2,48.8c0,0.3,0.3,0.6,0.6,0.6h19.9c0.3,0,0.6-0.3,0.6-0.6s-0.3-0.6-0.6-0.6H6.8C6.5,48.3,6.2,48.5,6.2,48.8 M21.6,42.5
	v-1.4h0.3c0.4,0,0.6,0.2,0.6,0.7c0,0.6-0.2,0.8-0.6,0.8H21.6z M21.6,44.8v-1.6h0.3l0.6,1.6h0.9L22.6,43c0.5-0.3,0.6-0.8,0.6-1.2
	c0-1-0.5-1.4-1.3-1.4h-1v4.5H21.6z M22.7,35.4c0.1-0.4,0.2-1.4,0.2-1.7c0-0.2,0.1-0.5,0.1-0.7l0,0c0,0.3,0,0.5,0.1,0.7
	c0,0.3,0.2,1.3,0.2,1.7H22.7z M22.5,31.2l-1,6.4h1l0.2-1.4h0.7l0.2,1.4h1.1l-1-6.4H22.5z M19.4,35.8c0,0.8-0.2,1-0.5,1h-0.2v-2h0.2
	C19.2,34.7,19.4,34.9,19.4,35.8 M19.3,33.1c0,0.8-0.2,0.9-0.5,0.9h-0.2v-1.7h0.2C19.1,32.3,19.3,32.4,19.3,33.1 M19.7,34.4
	L19.7,34.4c0.4-0.2,0.7-0.5,0.7-1.5c0-1.2-0.7-1.6-1.5-1.6h-1.2v6.4h1.3c0.9,0,1.5-0.5,1.5-1.7C20.5,34.8,20.1,34.6,19.7,34.4
	 M18.1,41.1c0.4,0,0.6,0.5,0.6,1.5c0,1-0.2,1.5-0.6,1.5c-0.4,0-0.6-0.5-0.6-1.5C17.6,41.6,17.8,41.1,18.1,41.1 M18.1,40.3
	c-0.9,0-1.4,0.7-1.4,2.3s0.6,2.3,1.4,2.3s1.4-0.7,1.4-2.3S19,40.3,18.1,40.3 M14.7,40.3v3.3c0,0.4-0.1,0.5-0.4,0.5
	c-0.2,0-0.4-0.1-0.5-0.2l-0.3,0.7c0.2,0.1,0.5,0.3,0.9,0.3c0.7,0,1-0.3,1-1.1v-3.3L14.7,40.3L14.7,40.3z M11.5,44.1v-1.3h0.9v-0.7
	h-0.9v-1h1.2v-0.8h-2.1v4.5h2.1v-0.7C12.7,44.1,11.5,44.1,11.5,44.1z M7.2,40.3h-1v4.5h0.7v-3.1l0,0c0,0.3,0.1,0.8,0.2,1l0.4,2.1H8
	l0.4-2c0.1-0.4,0.2-0.7,0.2-1.1l0,0v3.1h0.8v-4.5H8.4l-0.6,3.1l0,0L7.2,40.3z M14.1,6c-1,0.8-2.7,0.9-2.7,2.5
	c-0.6,2.2,1.2,15.7-1.3,14.9c-2,0-1.1-6-1.2-7.9c-0.1-2.2,0.7-7.7-0.9-8.6C7.1,6.5,5.9,6.3,6,5.2c0.1-0.9-0.4-2.7,1.1-2.6
	c2.1,0,4.3,0,6.4,0c0.6,0.1,0.9,0.4,0.9,0.9C14.2,4.4,14.5,5.4,14.1,6 M15,3.5c0-0.9-0.7-1.4-1.5-1.6c-0.3-0.1-4.7-0.3-6.9,0
	C5.6,2,5.2,2.7,5.2,3.4c0.1,1-0.4,2.4,0.5,3.1c1.2,0.9,2.4,1,2.4,2.8c0.1,4.4-0.1,8.8,0.1,13.2C8.4,23.5,9.1,24,10,24
	c1,0,1.7-0.5,2-1.4c0.3-4.4,0-8.7,0.1-13.2c-0.3-2.4,1-1.9,2.5-3C15.4,5.8,14.9,4.6,15,3.5 M15.8,22.6c-0.2,0.5-0.6,0.8-1.1,0.8
	c-2.4,0.1-0.9-5.7-1.3-7.3c0-2.1-0.1-4.3,0.1-6.4c0.4-1.6,2.8-0.9,2.5,0.7C15.9,14.4,16.2,18.6,15.8,22.6 M14.4,8.1
	c-0.7,0.1-1.2,0.4-1.5,1c-0.6,4.2,0,8.6-0.2,12.9c-0.2,2.1,2.7,2.9,3.7,1.3c0.8-2.3,0.2-4.8,0.4-7.2C16.3,13.8,18.1,8,14.4,8.1
	 M34,13.3c-0.2,0.4-0.3-0.2-0.3-0.4C33.8,11.8,34.1,12.8,34,13.3 M34.7,13.7c0.8-1.8-1.4-3.2-1.7-0.8C32.9,14,34.1,14.8,34.7,13.7
	 M36.9,16c-0.7,1.5-3.4-0.2-3.8,1.6c-0.6,1.6,0.6,4.2,2.4,2.5c2.8-0.9,0.8,3.8-1.5,3.4c-3.1-0.4-3.7-4.6-3.9-7.1
	c0.1-2.7,0.5-5.1,2.3-7c1.8-1.7,3.9,0.2,4.4,2.2C37.1,12.9,37.5,14.5,36.9,16 M29.2,21.9c0,0.8-0.4,1.6-1.2,1.5
	c-3,0.6,0.6-13-2.8-10.8c-1.3,1.9,0.9,10.6-1.5,10.8c-2.6,0.2-0.3-8.8-1.6-10.7c-2.5-2.3-1.2,8.1-1.5,9.2c0.3,1.5-1.9,2.2-2.4,0.8
	c-0.3-2.2,0-4.4-0.1-6.5c0.1-2.2-0.3-4.5,0.2-6.6c0.3-0.9,1.7-0.9,2,0c0.2,0.5,0.4,0.5,0.9,0.3c3.2-2.6,2.7,1.4,3.9,0.4
	c1.6-2.3,4-1.2,4.2,1.3C29.2,14.9,29.1,18.4,29.2,21.9 M37.7,16.3c1.9-6.6-4.9-12.8-7.8-3.8c0.3-2.9-2.5-6-5.1-3.3
	c-0.2,0.2-0.2,0.2-0.4,0C23.6,7.7,22,8,20.9,8.9c-0.2,0.1-0.3,0.1-0.4-0.1C19.8,7.6,18,7.8,17.4,9c-0.6,2.3-0.1,4.7-0.3,7
	c0.4,2.2-1.3,7.8,1.9,8.1c1,0,1.8-0.5,2-1.4c0.4-3-0.3-6.4,0.3-9.4c0.8,3.1-0.3,6.6,0.5,9.8c0.4,0.7,0.9,1,1.6,1
	c3.7,0,1-8.4,2.2-10.8c0.5,2.8,0.1,5.9,0.2,8.7c-0.3,2,2.8,3,3.8,1c0.5-0.9,0.1-2.2,0.3-3.1c0.9,3.6,4.8,6.3,7.3,2.3
	c1.2-1.5-0.5-4.3-2.3-2.7c-1,1-1.4-0.9-1.1-1.7C34.5,16.8,36.8,18.2,37.7,16.3 M44.9,13.4c-0.1,1.8,0.1,4-0.9,5.6
	c-1-1.4-1.2-10.7,0.1-11.3C44.8,9.5,44.8,11.5,44.9,13.4 M44.9,19.2c1-3,0.8-6.4,0.5-9.6c0-1.2-0.9-4.2-2.3-2.1
	c-0.7,1.9-0.7,3.9-0.7,6C42.5,14.7,42.4,21.8,44.9,19.2 M63,22.5c-0.3,1.3-2.4,1.1-3.1,0.3c-1.9-1.9-1.1-4.8-1.3-7.2
	c0-1.3,0-2.6,0-3.9c-0.3-0.9-1.5-0.7-0.9-2.2c0.1-0.6,1-0.5,1-1.1C58.9,7,57.8,4,59.9,3.8c2.6,0,0.3,4.6,1.7,5c1,0.1,1.3,0.9,1,1.7
	c-0.2,0.9-1.8,0.5-1.5,1.7c0.4,2.3-1.1,8,1.4,8.8C63,21.3,63,21.9,63,22.5 M56.5,16.1c0,2.1,0,4.1,0,6.2c-0.1,1.3-2,1.6-2.4,0.4
	c-0.5-1.1-0.9,0.5-2.3,0.8c-3.9,0.6-1.7-10.5-2.2-13.1c0-0.8,0.4-1.5,1.2-1.5c2.8-0.2,0.4,8.8,1.6,10.7c0.7,0.9,1.7,0,1.6-0.9
	c0-2.8,0-5.8,0-8.6c0.1-0.9,0.9-1.4,1.8-1C57.1,10,56.2,14.3,56.5,16.1 M43.7,23.5c-4-1.1-3.9-6.6-4.1-10.1c0-3.5,0.8-12,6.1-9.6
	C49.5,6.4,49.9,23.7,43.7,23.5 M63.5,21.1c-0.6-1-1.9-0.6-1.7-2.4c0-2.2,0-4.3,0-6.5c0-0.2,0-0.3,0.2-0.3c0.9-0.3,1.4-0.9,1.4-1.9
	c0-1.9-1.5-1.5-1.6-2.3c0-1,0.1-2.1,0-3c-0.2-2.1-3.4-2.2-3.9-0.3c-0.4,1.2,0.3,2.8-0.3,4c-0.3,0.1-0.6,0.8-0.8,0.5
	c-0.8-1.2-2.8-1.1-3.4,0.1c-0.9,3.2,0.3,6.8-0.5,10.1c-1-2.4,1.3-10.5-1.8-11c-1-0.2-1.7,0.4-2.3,1.1c-0.5-2.1-0.9-4.4-2.7-5.8
	c-5.2-3.5-7.6,4.6-7.3,8.6c0,3.8-0.1,8.3,2.7,11.1c3.6,3.1,6.6-1.3,7.2-4.6c-0.2,2.9,0.7,7.5,4.6,4.9c0.2-0.1,0.2-0.2,0.4,0
	c4.5,3,3.5-3.9,3.5-6.5c0-1.8,0-3.6,0-5.4c0.1-0.2,0.4,0.2,0.6,0.3c0.7,3.9-1.9,12.5,4.4,12.2C63.6,23.9,64.2,22.3,63.5,21.1
	 M63.8,27.8c0-0.3-0.3-0.6-0.6-0.6H6.8c-0.3,0-0.6,0.3-0.6,0.6c0,0.3,0.3,0.6,0.6,0.6h56.4C63.5,28.4,63.8,28.2,63.8,27.8"/>
<path class="st0" d="M86.6,4.7h0.9V4.3h-2.1v0.4h0.9V8h0.4C86.6,8,86.6,4.7,86.6,4.7z M90.2,8h0.4V4.3h-0.4v1.5h-1.9V4.3h-0.4V8h0.4
	V6.2h1.9V8z M90.7,9.1v3.7h-4.5V9.1h-0.9v8.7h0.9v-4.2h4.5v4.2h0.9V9.1H90.7z M92,22.3v-2.5h1.2c0.5,0,0.9,0,1,0.1s0.4,0.2,0.5,0.4
	c0.1,0.2,0.2,0.4,0.2,0.7s-0.1,0.5-0.2,0.7s-0.3,0.4-0.6,0.5c-0.2,0.1-0.6,0.1-1,0.1L92,22.3z M92,26.3V23h0.4l2.6,3.3h0.9L93.2,23
	c0.6,0,1-0.1,1.4-0.2c0.4-0.2,0.6-0.4,0.8-0.7c0.2-0.3,0.3-0.7,0.3-1c0-0.5-0.1-0.9-0.4-1.1c-0.3-0.3-0.6-0.6-1-0.7
	c-0.3-0.1-0.9-0.1-1.6-0.1h-1.4v7.2L92,26.3L92,26.3z M108.8,32.5h-2.8l1.4-3L108.8,32.5z M109.1,33.2l1.3,2.8h0.9l-3.9-8.3h-0.2
	l-4,8.3h0.9l1.3-2.8H109.1z M111.1,37.4h-0.9l-0.3,0.5h0.8v4.2h0.5V37.4z M113.6,31.3v-2.8h1.5c0.6,0,0.9,0.1,1.2,0.2
	s0.5,0.3,0.6,0.5c0.2,0.2,0.2,0.5,0.2,0.8s-0.1,0.6-0.2,0.8c-0.2,0.2-0.4,0.4-0.7,0.5c-0.3,0.1-0.7,0.2-1.2,0.2H113.6z M113.6,36
	v-3.9h0.5l3,3.9h1l-3-3.9c0.7,0,1.2-0.1,1.6-0.3s0.7-0.5,0.9-0.8c0.2-0.4,0.3-0.8,0.3-1.2c0-0.6-0.2-1-0.5-1.4
	c-0.3-0.4-0.8-0.7-1.2-0.8c-0.3-0.1-0.9-0.1-1.9-0.1h-1.7v8.3L113.6,36L113.6,36z M118.2,22.3v-2.5h1.2c0.5,0,0.9,0,1,0.1
	s0.4,0.2,0.5,0.4c0.1,0.2,0.2,0.4,0.2,0.7s-0.1,0.5-0.2,0.7s-0.3,0.4-0.6,0.5c-0.2,0.1-0.6,0.1-1,0.1L118.2,22.3z M118.2,26.3V23
	h0.4l2.6,3.3h0.9l-2.6-3.3c0.6,0,1-0.1,1.4-0.2c0.4-0.2,0.6-0.4,0.8-0.7c0.2-0.3,0.3-0.7,0.3-1c0-0.5-0.1-0.9-0.4-1.1
	c-0.3-0.3-0.6-0.6-1-0.7c-0.3-0.1-0.9-0.1-1.6-0.1h-1.4v7.2L118.2,26.3L118.2,26.3z M115.5,17.9h4.2V17h-3.3V9.1h-0.9V17.9z
	 M112,26.3h4.1v-0.7h-3.3v-2.8h3.3v-0.7h-3.3v-2.3h3.4v-0.7h-4.1L112,26.3L112,26.3z M109,17.9h4.9V17h-4.1v-3.4h4.1v-0.9h-4.1V10
	h4.1V9.1h-5L109,17.9L109,17.9z M106.8,22.3v-2.5h1.2c0.5,0,0.9,0,1,0.1s0.4,0.2,0.5,0.4s0.2,0.4,0.2,0.7s-0.1,0.5-0.2,0.7
	s-0.3,0.4-0.6,0.5c-0.2,0.1-0.6,0.1-1,0.1L106.8,22.3z M106.8,26.3V23h0.5c0.9,0,1.5,0,1.8-0.1c0.5-0.1,0.8-0.3,1-0.7
	c0.3-0.3,0.4-0.7,0.4-1.1c0-0.5-0.1-0.9-0.4-1.1c-0.3-0.3-0.6-0.5-1-0.7c-0.3-0.1-0.9-0.1-1.6-0.1H106v7.2L106.8,26.3L106.8,26.3z
	 M102.3,25.5c-0.5,0.3-0.9,0.4-1.5,0.4c-0.9,0-1.5-0.3-2.2-0.9c-0.6-0.6-0.9-1.3-0.9-2.2c0-0.6,0.1-1.1,0.4-1.6
	c0.3-0.5,0.7-0.9,1.1-1.1s0.9-0.4,1.5-0.4s1,0.1,1.5,0.4c0.5,0.3,0.9,0.7,1.1,1.1c0.3,0.5,0.4,0.9,0.4,1.5s-0.1,1.1-0.4,1.5
	C103.2,24.8,102.8,25.2,102.3,25.5 M100.8,26.5c1,0,1.9-0.4,2.7-1.1s1.1-1.6,1.1-2.7c0-1-0.4-2-1.1-2.7c-0.8-0.8-1.6-1-2.8-1
	c-0.7,0-1.3,0.2-1.9,0.5c-0.6,0.4-1,0.8-1.3,1.4c-0.4,0.6-0.5,1.2-0.5,1.9c0,1,0.4,1.9,1.1,2.7C98.8,26.1,99.8,26.5,100.8,26.5
	 M102.2,42.1h3.1v-0.5h-2.2l1.1-1.2c0.4-0.4,0.6-0.7,0.8-0.9c0.1-0.2,0.2-0.5,0.2-0.8c0-0.4-0.1-0.7-0.4-0.9c-0.3-0.3-0.6-0.4-1-0.4
	c-0.5,0-0.8,0.2-1.1,0.5c-0.3,0.3-0.5,0.7-0.5,1.1h0.5c0-0.4,0.1-0.7,0.4-0.9c0.2-0.2,0.5-0.3,0.8-0.3s0.6,0.1,0.8,0.3
	c0.2,0.2,0.3,0.4,0.3,0.7c0,0.2-0.1,0.4-0.2,0.6c-0.1,0.2-0.4,0.5-0.7,0.9L102.2,42.1z M100.9,36l2.4-8.3h-0.9l-1.7,6.1l-2.4-6.1
	h-0.2l-2.4,6.1l-1.7-6.1h-0.9l2.4,8.3h0.2l2.6-6.4L100.9,36L100.9,36z M91.8,4.7h1.8V4.3h-2.2V8h2.1V7.6h-1.7V6.2h1.7V5.8h-1.7
	C91.8,5.8,91.8,4.7,91.8,4.7z M95.5,8h0.4V4.3h-0.4V8z M99.6,8L99.6,8l0.1-3.7h-0.4v2.8l-2.5-2.8h-0.1V8h0.4V5.2L99.6,8z M101.3,4.7
	h0.9V4.3H100v0.4h0.9V8h0.4C101.3,8,101.3,4.7,101.3,4.7z M101.6,13.5c0,0.7-0.2,1.3-0.5,1.9c-0.3,0.6-0.8,1-1.3,1.3
	c-0.6,0.3-1.2,0.5-1.9,0.5c-1,0-1.9-0.4-2.6-1c-0.8-0.8-1-1.6-1-2.7c0-0.7,0.2-1.3,0.5-1.9s0.8-1,1.3-1.3c0.6-0.4,1.2-0.5,1.8-0.5
	c0.7,0,1.2,0.2,1.9,0.5c0.6,0.4,1,0.8,1.3,1.3C101.4,12.2,101.6,12.8,101.6,13.5 M101.1,16.7c0.9-0.9,1.3-2,1.3-3.2
	c0-1.3-0.5-2.4-1.3-3.2c-0.9-0.9-2-1.3-3.3-1.3c-0.9,0-1.6,0.2-2.3,0.6c-0.7,0.4-1.2,0.9-1.6,1.7c-0.4,0.8-0.6,1.5-0.6,2.4
	c0,1.2,0.5,2.3,1.3,3.2c0.9,0.9,2,1.3,3.2,1.3C99.1,18.1,100.2,17.7,101.1,16.7 M103,4.7h1.8V4.3h-2.2V8h2.1V7.6H103V6.2h1.7V5.8
	H103C103,5.8,103,4.7,103,4.7z M106.3,5.9h-0.7V4.7h0.7c0.3,0,0.5,0,0.6,0.1c0.1,0,0.2,0.1,0.3,0.2c0.1,0.1,0.1,0.2,0.1,0.4
	c0,0.1,0,0.3-0.1,0.4c-0.1,0.1-0.2,0.2-0.3,0.2C106.8,5.9,106.6,5.9,106.3,5.9 M107.7,8l-1.3-1.7c0.3,0,0.6,0,0.8-0.1
	c0.2-0.1,0.3-0.2,0.4-0.4s0.2-0.3,0.2-0.6s-0.1-0.5-0.2-0.6c-0.1-0.2-0.3-0.3-0.6-0.3c-0.2,0-0.5-0.1-0.9-0.1h-0.8V8h0.4V6.3h0.2
	l1.3,1.7H107.7z M106,10h1.9V9.1h-4.7V10h1.9v7.9h0.9L106,10L106,10z M111.2,8L111.2,8l0.1-3.7h-0.4v2.8l-2.5-2.8h-0.1V8h0.4V5.2
	L111.2,8z M114.2,6.4h-1.2l0.7-1.3L114.2,6.4z M115.3,8l-1.7-3.7h-0.1L111.8,8h0.4l0.6-1.2h1.6l0.6,1.2H115.3z M116.4,4.7h0.9V4.3
	h-2.1v0.4h0.9V8h0.4C116.4,8,116.4,4.7,116.4,4.7z M117.7,8h0.4V4.3h-0.4V8z M122.1,6.1c0,0.3-0.1,0.6-0.2,0.9
	c-0.1,0.3-0.3,0.5-0.6,0.6c-0.3,0.1-0.5,0.2-0.8,0.2c-0.5,0-0.8-0.2-1.1-0.5C119.2,7,119,6.6,119,6.1c0-0.3,0.1-0.6,0.2-0.9
	s0.3-0.5,0.6-0.6c0.3-0.2,0.5-0.2,0.8-0.2s0.6,0.1,0.8,0.2c0.3,0.2,0.5,0.4,0.6,0.6C122.1,5.5,122.1,5.8,122.1,6.1 M121.9,7.5
	c0.4-0.4,0.6-0.9,0.6-1.4s-0.2-1-0.6-1.4c-0.4-0.3-0.9-0.5-1.4-0.5c-0.4,0-0.7,0.1-0.9,0.3s-0.6,0.4-0.7,0.8
	c-0.2,0.3-0.3,0.7-0.3,0.9c0,0.6,0.2,0.9,0.6,1.3c0.4,0.4,0.9,0.6,1.4,0.6C121.2,8.1,121.6,7.9,121.9,7.5 M125.1,26.3v-6.5h1.6v-0.7
	h-3.9v0.7h1.6v6.5H125.1z M126,8L126,8l0.1-3.7h-0.4v2.8l-2.5-2.8h-0.1V8h0.4V5.2L126,8z M129.1,6.4h-1.2l0.7-1.3L129.1,6.4z
	 M129.8,8h0.4l-1.7-3.7h-0.1L126.6,8h0.4l0.6-1.2h1.6L129.8,8z M130.7,8h1.8V7.6h-1.4V4.3h-0.4V8z M128.3,34l-0.8,0.5
	c0.4,0.7,0.8,1.1,1.1,1.3c0.4,0.3,0.9,0.4,1.4,0.4c0.7,0,1.2-0.2,1.7-0.7c0.5-0.5,0.7-0.9,0.7-1.6c0-0.4-0.1-0.9-0.4-1.2
	c-0.3-0.4-0.8-0.9-1.5-1.4c-0.6-0.5-0.9-0.8-1-0.9c-0.2-0.2-0.4-0.4-0.4-0.6c-0.1-0.2-0.1-0.4-0.1-0.6c0-0.3,0.1-0.6,0.3-0.8
	s0.5-0.3,0.9-0.3c0.3,0,0.5,0.1,0.8,0.2c0.2,0.1,0.5,0.4,0.8,0.9l0.7-0.5c-0.4-0.6-0.8-0.9-1.1-1c-0.4-0.2-0.8-0.3-1.1-0.3
	s-0.8,0.1-1,0.3s-0.6,0.4-0.8,0.7s-0.3,0.7-0.3,1c0,0.5,0.2,0.9,0.5,1.3c0.2,0.2,0.6,0.7,1.3,1.1c0.7,0.6,1.1,0.9,1.4,1.3
	c0.2,0.3,0.3,0.6,0.3,0.9c0,0.3-0.1,0.5-0.2,0.7c-0.1,0.2-0.3,0.4-0.6,0.6c-0.3,0.1-0.5,0.2-0.8,0.2C129.3,35.4,128.8,34.9,128.3,34
	 M128,19.2h-0.8l2.3,3.7v3.4h0.7v-3.4l2.3-3.7h-0.9l-1.8,2.9L128,19.2z M125.6,16.1c0-0.3,0.1-0.6,0.4-0.9c0.2-0.3,0.8-0.8,1.4-1.3
	c0.3,0.4,0.6,0.7,0.8,0.9l1.3,1.4c-0.6,0.5-1.1,0.9-1.6,1c-0.3,0.1-0.6,0.2-0.9,0.2s-0.8-0.1-1-0.4
	C125.7,16.6,125.6,16.3,125.6,16.1 M127.4,12.6c-0.4-0.4-0.7-0.8-0.9-1.1c-0.1-0.1-0.1-0.3-0.1-0.5c0-0.2,0.1-0.4,0.3-0.6
	s0.5-0.2,0.8-0.2s0.6,0.1,0.8,0.2c0.2,0.2,0.3,0.3,0.3,0.5c0,0.2-0.1,0.4-0.2,0.6C128.2,12,127.9,12.3,127.4,12.6 M125.4,17.5
	c0.4,0.4,0.9,0.6,1.6,0.6c0.5,0,0.9-0.1,1.4-0.3c0.5-0.2,1-0.6,1.8-1.1l1.1,1.2h1.2c-0.2-0.3-0.5-0.6-0.8-0.9
	c-0.4-0.4-0.7-0.7-0.9-0.9c0.4-0.3,0.7-0.6,1-0.9l-0.6-0.7c-0.3,0.3-0.7,0.6-1.1,0.9l-0.9-0.9l-1.3-1.4c0.6-0.5,1-0.9,1.2-1.2
	c0.2-0.3,0.3-0.7,0.3-0.9c0-0.3-0.1-0.6-0.3-0.8c-0.2-0.3-0.4-0.5-0.7-0.6c-0.3-0.2-0.7-0.2-0.9-0.2c-0.6,0-1,0.2-1.4,0.5
	c-0.4,0.3-0.5,0.7-0.5,1c0,0.3,0.1,0.5,0.2,0.8c0.1,0.3,0.5,0.7,0.9,1.2c-0.9,0.7-1.4,1.2-1.7,1.6c-0.3,0.5-0.4,0.9-0.4,1.3
	C124.7,16.6,124.9,17.1,125.4,17.5 M123.9,35c-0.5,0.2-1.2,0.2-2.4,0.2h-0.9v-6.7h0.6c1.2,0,2.1,0.1,2.6,0.3
	c0.7,0.2,1.2,0.6,1.6,1.1c0.4,0.6,0.6,1.2,0.6,2.1c0,0.8-0.2,1.4-0.6,2C125.1,34.5,124.6,34.8,123.9,35 M122.4,36
	c1,0,1.9-0.2,2.5-0.5c0.6-0.3,1-0.8,1.4-1.4s0.6-1.4,0.6-2.2c0-0.9-0.2-1.8-0.7-2.5s-1.1-1.2-1.9-1.5c-0.6-0.2-1.5-0.3-2.8-0.3h-1.7
	V36H122.4z M121.2,45.5l0.2-1.3c0.5,0,0.8,0,0.9,0.1c0.1,0,0.3,0.1,0.3,0.2c0.1,0.1,0.1,0.2,0.1,0.4c0,0.3-0.1,0.5-0.3,0.6
	C122.2,45.4,121.9,45.5,121.2,45.5 M120.4,43.1l-0.9,6.1h1.1l0.4-2.7h0.1l1.3,2.7h1.1l-1.3-2.8c0.5-0.1,0.9-0.3,1.1-0.7
	c0.3-0.3,0.4-0.7,0.4-1c0-0.4-0.1-0.7-0.3-0.9c-0.2-0.3-0.4-0.5-0.8-0.6c-0.3-0.1-0.8-0.2-1.3-0.2H120.4z M116.2,43.1l-0.9,6.1h3.3
	l0.1-1h-2.2l0.2-1.6h2.1l0.1-1h-2.1l0.2-1.2h2.1l0.1-1L116.2,43.1L116.2,43.1z M114.7,38.7c0,0.3-0.1,0.5-0.3,0.7
	c-0.2,0.2-0.4,0.3-0.7,0.3c-0.3,0-0.5-0.1-0.7-0.3c-0.2-0.2-0.3-0.4-0.3-0.7s0.1-0.5,0.3-0.7c0.2-0.2,0.4-0.3,0.7-0.3
	c0.3,0,0.5,0.1,0.7,0.3S114.7,38.4,114.7,38.7 M114.7,40.1c0.2-0.3,0.4-0.6,0.4-0.8c0.1-0.2,0.1-0.4,0.1-0.6c0-0.3-0.1-0.5-0.2-0.8
	c-0.1-0.2-0.3-0.4-0.5-0.6c-0.2-0.1-0.5-0.2-0.8-0.2s-0.5,0.1-0.8,0.2c-0.2,0.1-0.4,0.3-0.6,0.5c-0.1,0.2-0.2,0.5-0.2,0.8
	c0,0.4,0.1,0.8,0.4,0.9c0.3,0.3,0.6,0.4,0.9,0.4c0.2,0,0.3,0,0.5-0.1l-1.2,1.9l0.4,0.3L114.7,40.1z M110.3,43.1l-0.9,6.1h1L111,45
	l2.2,4.2h0.9l0.9-6.1h-1l-0.6,4.1l-2.2-4.1H110.3z M108.8,40.9c-0.1,0.3-0.2,0.5-0.4,0.6c-0.2,0.1-0.4,0.2-0.6,0.2s-0.4-0.1-0.6-0.2
	c-0.2-0.1-0.3-0.4-0.4-0.6c-0.1-0.3-0.1-0.7-0.1-1.2c0-0.6,0.1-0.9,0.2-1.2s0.2-0.5,0.4-0.6c0.2-0.1,0.4-0.2,0.6-0.2
	s0.4,0.1,0.6,0.2c0.2,0.1,0.3,0.4,0.5,0.7c0.1,0.3,0.2,0.7,0.2,1.1C109,40.3,108.9,40.6,108.8,40.9 M108.6,42
	c0.3-0.2,0.5-0.5,0.6-0.8c0.1-0.4,0.2-0.9,0.2-1.4c0-0.6-0.1-1-0.2-1.4c-0.2-0.4-0.4-0.6-0.6-0.8c-0.3-0.2-0.5-0.3-0.9-0.3
	c-0.3,0-0.6,0.1-0.9,0.3s-0.5,0.5-0.6,0.8c-0.1,0.4-0.2,0.9-0.2,1.4c0,0.6,0.1,1,0.2,1.4c0.1,0.4,0.3,0.6,0.6,0.8s0.5,0.3,0.9,0.3
	S108.4,42.1,108.6,42 M104.3,43.1l-0.9,6.1h1l0.6-4.2l2.2,4.2h0.9l0.9-6.1h-1.1l-0.6,4.1l-2.2-4.1H104.3z M102.1,43.1l-0.9,6.1h1
	l0.9-6.1H102.1z M95.3,43.1h-1l0.6,6.1h0.9l1.9-4l0.8,4h0.9l2.2-6.1h-1.1l-1.3,3.8l-0.8-3.8h-0.9L95.7,47L95.3,43.1z M88,32.5l1.4-3
	l1.4,3H88z M89.3,27.6l-4,8.3h0.9l1.3-2.8h3.6l1.3,2.8h0.9l-3.9-8.3H89.3z M86,19.9h1.2c0.5,0,0.9,0,1,0.1s0.4,0.2,0.5,0.4
	c0.1,0.2,0.2,0.4,0.2,0.7s-0.1,0.5-0.2,0.7s-0.3,0.4-0.6,0.5c-0.2,0.1-0.6,0.1-1,0.1h-1.2L86,19.9L86,19.9z M86.7,19.2h-1.4v7.2H86
	v-3.3h0.5c0.9,0,1.5,0,1.8-0.1c0.5-0.1,0.8-0.3,1-0.7c0.3-0.3,0.4-0.7,0.4-1.1c0-0.5-0.1-0.9-0.4-1.1s-0.6-0.5-1-0.7
	C88.1,19.2,87.5,19.2,86.7,19.2 M134.6,50.4h-51V2.1h51V50.4z M135.2,1.4H82.8v49.8h52.5V1.4z"/>
<g>
	<path class="st0" d="M215.3,27.6c0.1-0.2,0.1-0.4,0.2-0.6c0-0.1,0.1-0.2,0.1-0.3l0-0.1c0.1-0.5,0.2-1,0.2-1.5
		c0.1-0.8,0.2-1.5,0.4-2.3c0.1-0.4,0.2-0.8,0.3-1.2c0.1-0.3,0.2-0.7,0.3-1c0.3-1.5,0.4-3,0.4-5.1c0-1.5-0.3-2.7-1-3.8
		c-0.5-0.8-0.9-1.6-1.4-2.5L214.7,9c-0.1-0.1-0.2-0.3-0.2-0.4c-0.1-0.2-0.2-0.4-0.4-0.6c-0.6-0.8-1.3-1.6-2-2.3
		c-0.9-0.8-2-1.7-3.2-2.2c-2.5-1.2-4.8-1.7-7.3-1.6c-1.4,0-2.8,0.2-4.2,0.7c-1.6,0.5-3.1,1.4-4.4,2.2c-1.9,1.2-3.5,2.9-4.6,4.8
		c-0.1-0.2-0.1-0.3-0.2-0.5c-0.1-0.1-0.1-0.3-0.2-0.4l0-0.1c-0.3-0.6-0.6-1-1-1.4c-0.1-0.2-0.3-0.3-0.4-0.5
		c-0.1-0.1-0.2-0.2-0.3-0.4l-1.7-1.8c-0.2-0.2-0.3-0.3-0.6-0.5c-0.4-0.3-0.8-0.5-1.2-0.7c-0.6-0.3-1.2-0.4-1.8-0.6l-0.1,0
		c-0.1,0-0.3-0.1-0.5-0.2c-0.2-0.1-0.5-0.2-0.7-0.2c-0.5-0.2-1-0.3-1.4-0.3l-0.2,0c-0.2,0-0.4-0.1-0.7-0.1l-0.1,0
		c-0.6-0.1-1.3-0.2-1.9-0.4c-0.3-0.1-0.5-0.1-0.6-0.1c-1.2-0.2-2.3-0.1-3.5,0l-0.2,0c-0.1,0-0.2,0-0.4,0.1c-0.2,0-0.3,0-0.5,0.1
		c-0.4,0-0.7,0.1-1,0.2c-0.2,0-0.5,0.1-0.7,0.2c-0.2,0-0.3,0.1-0.5,0.1c-0.2,0-0.5,0-0.7,0.1l-1.3,0.4c-0.6,0.2-1.2,0.5-1.8,0.9
		l-0.3,0.2c-0.6,0.3-1.1,0.7-1.6,1.2c-0.4,0.5-0.9,1.1-1.4,1.9c-0.1,0.2-0.2,0.3-0.3,0.5c-0.1,0.2-0.3,0.4-0.4,0.6L159,9.2
		c-0.3,0.4-0.6,0.8-0.8,1.3l-0.3,0.5l0,0.1c-0.2,0.5-0.4,0.9-0.7,1.3c-0.3,0.5-0.5,0.9-0.6,1.3l-0.1,0.3c-0.1,0.4-0.2,0.9-0.3,1.3
		c-0.1,0.4-0.1,0.8-0.3,1.1c-0.1,0.3-0.1,0.6-0.2,0.9c0,0.2-0.1,0.4-0.1,0.6l0,0.1c-0.2,0.8-0.3,1.8-0.3,2.8v0.4l0.1,0.1
		c0.1,0.7,0.3,1.1,0.4,1.5c0.1,0.2,0.2,0.4,0.2,0.6c0.1,0.3,0.3,0.6,0.5,0.9c0.1,0.2,0.2,0.3,0.3,0.5l0.1,0.1
		c0.1,0.2,0.2,0.3,0.3,0.5c0.1,0.1,0.1,0.2,0.2,0.4c0.4,0.7,0.9,1.3,1.3,1.9c0.1,0.1,0.2,0.3,0.4,0.4c0.3,0.4,0.5,0.7,0.8,1
		c0.1,0.2,0.3,0.3,0.4,0.5c0.1,0.1,0.2,0.2,0.3,0.4l0.1,0.1c0.2,0.2,0.3,0.3,0.4,0.5c0.1,0.2,0.2,0.3,0.3,0.4l0,0.1
		c0.2,0.3,0.4,0.6,0.7,0.9c0.2,0.2,0.4,0.5,0.6,0.7l0.1,0.1c0.1,0.1,0.2,0.2,0.3,0.2c0.1,0.1,0.3,0.3,0.4,0.4
		c0.2,0.2,0.3,0.3,0.5,0.5c0.1,0.1,0.2,0.2,0.4,0.3c0.7,0.6,1.4,1,2.2,1.4c0.6,0.3,1.1,0.6,1.7,0.9c0.2,0.1,0.4,0.1,0.5,0.2l0,0
		l0.7,0.2c0.8,0.3,1.5,0.5,2.2,0.7c0.1,0,0.3,0.1,0.4,0.1c0.1,0,0.2,0.1,0.4,0.1c0.5,0.1,1,0.2,1.6,0.2c0.8,0,1.5-0.1,1.9-0.2
		c0.7-0.2,1.3-0.4,1.9-0.7l0.3-0.1c0.5-0.1,0.9-0.3,1.3-0.5c0.1,0,0.2-0.1,0.3-0.1l0.1,0c0.9-0.2,1.6-0.7,2.1-1.1
		c0.5-0.4,1.1-0.8,1.6-1.3c0.3-0.3,0.6-0.6,1-1.1c0.1-0.2,0.3-0.4,0.4-0.6c0.1-0.2,0.2-0.3,0.3-0.5l0.1-0.1c0.1-0.1,0.2-0.3,0.3-0.4
		c0.2-0.3,0.4-0.6,0.6-0.9c0.2-0.3,0.3-0.5,0.5-0.8c0.2-0.3,0.3-0.5,0.5-0.8c0.1-0.2,0.3-0.4,0.4-0.6c0,0,0,0.1,0,0.1
		c0.4,1.2,0.8,2.2,1.4,3.1c0.4,0.6,0.8,1.2,1.3,1.8c0.1,0.2,0.3,0.4,0.4,0.5c0.5,0.7,1.2,1.3,2,1.7c1.7,0.8,3.5,1.3,5.3,1.7
		c0.7,0.1,1.4,0.2,2.1,0.2c0.6,0,1.1,0,1.7,0c0.5,0,1,0,1.5,0c1.3,0,2.6-0.3,3.9-1c1.9-0.9,3.6-2.2,5-3.9c0.9-1.1,1.8-2.2,2.7-3.3
		c0.4-0.4,0.6-0.9,0.7-1.3L215.3,27.6z M214.8,20.1c-0.1,0.3-0.1,0.6-0.2,0.9c-0.1,0.4-0.2,0.9-0.3,1.3c-0.2,0.9-0.3,1.7-0.4,2.4
		c-0.1,0.5-0.1,0.9-0.2,1.4c0,0.1-0.1,0.2-0.1,0.3c0,0.1-0.1,0.2-0.1,0.3l-0.1,0.2c-0.1,0.3-0.2,0.6-0.4,0.7l-0.1,0.1
		c-0.8,1.1-1.7,2.2-2.6,3.3c-1.2,1.4-2.7,2.6-4.3,3.4c-1,0.5-2,0.8-3,0.8c-0.5,0-1,0-1.6,0c-0.5,0-1,0-1.6,0c-0.6,0-1.2-0.1-1.8-0.1
		c-1.6-0.3-3.3-0.8-4.8-1.5c-0.5-0.2-0.9-0.6-1.2-1.1c-0.1-0.2-0.3-0.4-0.5-0.6c-0.4-0.5-0.8-1-1.1-1.6c-0.5-0.7-0.8-1.6-1.2-2.6
		c-0.2-0.7-0.5-1.4-0.7-2.2l-0.7-2.6l-1.1,2.5c-0.2,0.4-0.3,0.7-0.5,0.9l-0.1,0.1c-0.2,0.4-0.5,0.8-0.8,1.4
		c-0.2,0.3-0.3,0.5-0.5,0.8c-0.2,0.3-0.3,0.5-0.5,0.9c-0.1,0.2-0.2,0.4-0.4,0.6c-0.1,0.2-0.3,0.4-0.4,0.6c-0.1,0.2-0.2,0.3-0.4,0.5
		c-0.1,0.2-0.2,0.3-0.3,0.4c-0.3,0.4-0.6,0.7-0.9,0.9l-0.1,0.1c-0.3,0.4-0.8,0.7-1.2,1c-0.5,0.3-0.9,0.6-1.4,0.8h-0.2l-0.2,0.1
		c-0.2,0.1-0.3,0.2-0.5,0.2c-0.4,0.2-0.7,0.3-1.1,0.4l-0.5,0.2c-0.6,0.2-1,0.5-1.5,0.6c-1,0.2-2,0.2-2.5,0c-0.1,0-0.3-0.1-0.4-0.1
		c-0.1,0-0.2-0.1-0.4-0.1c-0.7-0.2-1.4-0.4-2.1-0.7l-0.5-0.2c-0.2-0.1-0.3-0.1-0.4-0.1l-0.1,0c-0.5-0.2-1-0.5-1.6-0.8l-0.1,0
		c-0.6-0.3-1.2-0.6-1.7-1.1c-0.1-0.1-0.2-0.2-0.3-0.2c-0.1-0.1-0.3-0.3-0.4-0.4c-0.2-0.2-0.3-0.3-0.5-0.5c-0.1-0.1-0.2-0.2-0.3-0.2
		c-0.2-0.3-0.4-0.5-0.6-0.7c-0.2-0.2-0.4-0.4-0.6-0.7c-0.1-0.2-0.2-0.3-0.3-0.4l0,0c-0.2-0.2-0.3-0.5-0.6-0.8
		c-0.1-0.2-0.2-0.3-0.4-0.4c-0.1-0.1-0.2-0.2-0.3-0.4c-0.2-0.3-0.5-0.6-0.8-1c-0.1-0.2-0.2-0.3-0.4-0.5c-0.4-0.5-0.8-1.1-1.1-1.6
		c-0.1-0.2-0.2-0.3-0.3-0.5c-0.1-0.1-0.1-0.2-0.2-0.3c-0.1-0.3-0.3-0.6-0.4-0.8c-0.1-0.2-0.2-0.3-0.2-0.5c-0.1-0.3-0.2-0.5-0.3-0.7
		c-0.1-0.3-0.2-0.6-0.3-0.9c0-0.2,0-0.4-0.1-0.5c0-0.8,0.1-1.5,0.2-2.2c0.1-0.3,0.1-0.6,0.2-0.8c0-0.2,0.1-0.4,0.1-0.6
		c0.1-0.4,0.2-0.9,0.3-1.3c0.1-0.4,0.1-0.8,0.2-1.1l0.1-0.3c0.1-0.3,0.2-0.5,0.3-0.8c0.3-0.5,0.6-1,0.8-1.5l0.3-0.5
		c0.2-0.4,0.5-0.8,0.7-1.1l0.9-1.2l0.1-0.1c0.1-0.2,0.2-0.3,0.3-0.5c0.2-0.2,0.3-0.4,0.4-0.6c0.5-0.7,0.9-1.2,1.3-1.7
		c0.3-0.3,0.7-0.6,1.1-0.8l0.4-0.2c0.5-0.3,0.9-0.6,1.3-0.7l1.4-0.5l0.1,0c0,0,0.1,0,0.1,0l0.2,0c0.2,0,0.5-0.1,0.7-0.2
		c0.2-0.1,0.4-0.1,0.6-0.2c0.3-0.1,0.5-0.1,0.7-0.1l0.2,0c0.1,0,0.2,0,0.4-0.1c0.2,0,0.3,0,0.5-0.1c1.1-0.1,2-0.1,3,0l0.3,0.1
		c0.7,0.2,1.4,0.3,2.2,0.4c0.3,0.1,0.7,0.2,1,0.2c0.4,0.1,0.8,0.1,1.1,0.2l0.2,0.1c0.1,0,0.3,0.1,0.5,0.2c0.2,0.1,0.5,0.2,0.8,0.2
		c0.5,0.1,1,0.3,1.5,0.5c0.3,0.1,0.6,0.3,0.9,0.5l0.2,0.1c0,0,0.1,0.1,0.1,0.1l1.6,1.6c0.1,0.2,0.2,0.3,0.4,0.4
		c0.1,0.1,0.2,0.2,0.3,0.4c0.3,0.4,0.6,0.7,0.7,1.1c0.1,0.2,0.1,0.3,0.2,0.5c0.1,0.2,0.2,0.4,0.3,0.7l0,0.1c0.3,0.6,0.5,1.1,0.6,1.6
		l0.8,2.8l1.1-3c0-0.1,0.1-0.2,0.1-0.3c1-2.3,2.6-4.1,4.7-5.5c1.4-0.9,2.6-1.6,3.9-2c1.2-0.4,2.5-0.6,3.7-0.6
		c2.2-0.1,4.2,0.4,6.4,1.4c1,0.4,1.8,1.1,2.6,1.9c0.6,0.6,1.2,1.2,1.8,2c0.1,0.1,0.2,0.3,0.2,0.4c0.1,0.2,0.2,0.4,0.3,0.6
		c0.5,0.8,0.9,1.7,1.4,2.5l0,0c0.5,0.8,0.7,1.7,0.7,2.8C215.2,17.4,215.1,18.8,214.8,20.1z"/>
	<polygon class="st0" points="172.5,45.1 171.3,45.1 171.3,50.9 175.2,50.9 175.2,49.9 172.5,49.9 	"/>
	<path class="st0" d="M167.3,45c-1.7,0-3,1.3-3,3c0,1.7,1.3,3,3,3c1.7,0,3-1.3,3-3C170.3,46.3,169,45,167.3,45z M167.3,49.9
		c-1.1,0-1.8-0.8-1.8-1.9c0-1.1,0.7-1.9,1.8-1.9c1.1,0,1.8,0.8,1.8,1.9C169.1,49.1,168.4,49.9,167.3,49.9z"/>
	<polygon class="st0" points="177.3,48.5 179.6,48.5 179.6,47.5 177.3,47.5 177.3,46.2 179.9,46.2 179.9,45.1 176.1,45.1 
		176.1,50.9 180.1,50.9 180.1,49.9 177.3,49.9 	"/>
	<path class="st0" d="M210.9,45c-1.7,0-3,1.3-3,3c0,1.7,1.3,3,3,3c1.7,0,3-1.3,3-3C213.9,46.3,212.6,45,210.9,45z M210.9,49.9
		c-1.1,0-1.8-0.8-1.8-1.9c0-1.1,0.7-1.9,1.8-1.9s1.8,0.8,1.8,1.9C212.7,49.1,212,49.9,210.9,49.9z"/>
	<path class="st0" d="M162,47.5l-0.3-0.1c-0.5-0.2-0.7-0.4-0.7-0.7c0-0.3,0.2-0.5,0.6-0.5c0.3,0,0.6,0.1,0.8,0.5l0.9-0.6
		c-0.4-0.7-0.9-1-1.7-1c-1.1,0-1.8,0.7-1.8,1.6c0,1,0.6,1.4,1.4,1.8l0.3,0.1c0.6,0.2,0.9,0.4,0.9,0.8c0,0.3-0.3,0.6-0.8,0.6
		c-0.6,0-0.9-0.3-1.2-0.7l-1,0.6c0.4,0.7,1.1,1.2,2.2,1.2c1.1,0,2-0.6,2-1.7C163.6,48.3,163,47.9,162,47.5z"/>
	<path class="st0" d="M155.7,48.8c0.7-0.7,1-1.3,1-1.9c0-1.1-0.7-1.9-2-1.9c-1.2,0-1.9,0.7-2.2,1.8l1.2,0.2c0.2-0.6,0.4-0.9,1-0.9
		c0.5,0,0.8,0.4,0.8,0.8c0,0.4-0.2,0.8-0.8,1.4l-2.3,2.5v0.1h4.3v-1.1H155c-0.2,0-0.5,0-0.5,0s0.3-0.2,0.4-0.3L155.7,48.8z"/>
	<path class="st0" d="M200.4,45.1h-2v5.8h1.2V49h0.9c1.2,0,2.2-0.6,2.2-2C202.6,45.7,201.6,45.1,200.4,45.1z M200.4,48h-0.8v-1.8
		h0.8c0.6,0,1,0.2,1,0.9C201.4,47.7,201,48,200.4,48z"/>
	<polygon class="st0" points="194.5,48.5 196.9,48.5 196.9,47.5 194.5,47.5 194.5,46.2 197.2,46.2 197.2,45.1 193.3,45.1 
		193.3,50.9 197.3,50.9 197.3,49.9 194.5,49.9 	"/>
	<path class="st0" d="M205.6,47.5l-0.3-0.1c-0.5-0.2-0.7-0.4-0.7-0.7c0-0.3,0.2-0.5,0.6-0.5c0.3,0,0.6,0.1,0.8,0.5l0.9-0.6
		c-0.4-0.7-0.9-1-1.7-1c-1.1,0-1.8,0.7-1.8,1.6c0,1,0.6,1.4,1.4,1.8l0.3,0.1c0.5,0.2,0.9,0.4,0.9,0.8c0,0.3-0.3,0.6-0.8,0.6
		c-0.6,0-0.9-0.3-1.2-0.7l-1,0.6c0.4,0.7,1.1,1.2,2.2,1.2c1.1,0,2-0.6,2-1.7C207.2,48.3,206.6,47.9,205.6,47.5z"/>
	<path class="st0" d="M192.3,47c0-1.4-1-1.9-2.2-1.9H188v5.8h1.2v-2h0.8l1.2,2h1.4l-1.3-2.2C191.9,48.5,192.3,47.9,192.3,47z
		 M190.1,47.9h-0.9v-1.7h0.9c0.6,0,1,0.2,1,0.9C191.1,47.7,190.7,47.9,190.1,47.9z"/>
	<path class="st0" d="M183.3,47.5l-0.3-0.1c-0.5-0.2-0.7-0.4-0.7-0.7c0-0.3,0.2-0.5,0.6-0.5c0.3,0,0.6,0.1,0.8,0.5l0.9-0.6
		c-0.4-0.7-0.9-1-1.7-1c-1.1,0-1.8,0.7-1.8,1.6c0,1,0.6,1.4,1.4,1.8l0.3,0.1c0.6,0.2,0.9,0.4,0.9,0.8c0,0.3-0.3,0.6-0.8,0.6
		c-0.6,0-0.9-0.3-1.2-0.7l-1,0.6c0.4,0.7,1.1,1.2,2.2,1.2c1.1,0,2-0.6,2-1.7C184.9,48.3,184.3,47.9,183.3,47.5z"/>
	<polygon class="st0" points="216.1,49.9 216.1,45.1 214.9,45.1 214.9,50.9 218.7,50.9 218.7,49.9 	"/>
</g>
</svg>
