<?xml version="1.0" encoding="utf-8"?>
<!-- Generator: Adobe Illustrator 25.2.1, SVG Export Plug-In . SVG Version: 6.00 Build 0)  -->
<svg version="1.1" id="Capa_1" xmlns="http://www.w3.org/2000/svg" xmlns:xlink="http://www.w3.org/1999/xlink" x="0px" y="0px"
	 viewBox="0 0 118.9 56.5" style="enable-background:new 0 0 118.9 56.5;" xml:space="preserve">
<path d="M112.1,42.8h-1.2v5.6h1.2V42.8z M106.3,48.4h3.7v-1h-2.5v-4.6h-1.2L106.3,48.4L106.3,48.4z M102.6,47.4v-1.3h2.3v-1h-2.3
	v-1.3h2.5v-1h-3.7v5.6h3.8v-1L102.6,47.4L102.6,47.4z M99.1,42.8v2.3h-2.4v-2.3h-1.2v5.6h1.2v-2.2h2.4v2.2h1.2v-5.6H99.1z
	 M89.5,45.6c0,1.6,1.3,2.9,2.9,2.9c1.1,0,1.9-0.5,2.3-1.3l-0.9-0.6c-0.3,0.5-0.7,0.8-1.4,0.8c-1,0-1.7-0.8-1.7-1.8
	c0-1,0.7-1.8,1.7-1.8c0.6,0,1.1,0.3,1.4,0.7l0.9-0.6c-0.5-0.8-1.3-1.2-2.3-1.2C90.8,42.7,89.5,44,89.5,45.6 M88.5,42.8h-1.2v5.6h1.2
	V42.8z M83.4,45.8l-2.8-3.1h-0.1v5.7h1.1v-2.1c0-0.4,0-1,0-1s0.4,0.5,0.6,0.8l1.1,1.3h0.1l1.1-1.3c0.3-0.3,0.6-0.8,0.6-0.8
	s0,0.6,0,1v2.1h1.1v-5.7h-0.1L83.4,45.8z M113.1,26.8c-0.9,1.5-1.9,2.3-3.2,2.3l0,0c-3,0-6.4-4.3-7.5-6l-0.6,0.4l-0.7,0.4
	c1,1.9,3.1,7.5,1.4,10c-0.6,0.9-1.6,1.4-3.2,1.4c-1.7,0-2.9-0.5-3.5-1.6c-0.7-1.3-0.7-3.2,0-5.8c0.5-2,1.4-3.6,1.4-3.9l-0.6-0.4
	c0,0-0.1,0-0.2-0.1l-0.5-0.3c-1.1,1.7-4.5,6-7.5,6l0,0c-1.2,0-2.3-0.7-3.2-2.3c-0.8-1.4-1-2.5-0.5-3.5c1.4-2.6,7.2-3.5,9.4-3.7
	l-0.1-0.7v-0.7c-2.1-0.1-7.9-1-9.3-3.6c-0.5-1.1-0.5-2.3,0.4-3.8C86,9.3,86.9,8.6,88,8.6c3-0.1,6.7,4.5,7.9,6.3l0.5-0.4
	c0.4-0.2,0.7-0.4,0.7-0.4c-0.1-0.3-0.9-1.9-1.4-3.9c-0.7-2.5-0.7-4.5,0-5.8c0.6-1.1,1.7-1.5,3.5-1.6c1.6,0,2.7,0.4,3.2,1.4
	c1.6,2.4-0.5,8-1.4,10l0.6,0.4l0.6,0.5c1.2-1.8,5-6.4,7.9-6.3c1.1,0.1,2,0.7,2.8,2.2c0.8,1.5,1,2.8,0.4,3.8
	c-1.4,2.6-7.2,3.5-9.3,3.6v0.7l-0.1,0.7c2.2,0.2,8,1.1,9.4,3.7C114.1,24.2,113.9,25.4,113.1,26.8 M108.7,18.8c2.3-0.6,4.9-1.7,6-3.7
	c0.8-1.5,0.7-3.2-0.4-5.2c-1-1.9-2.3-2.9-4.1-3c-2.3-0.1-4.6,1.7-6.3,3.4c0.6-2.4,1.1-5.3-0.2-7.2c-0.9-1.4-2.4-2.1-4.6-2
	c-3.4,0.1-4.8,1.9-5.2,3.4s-0.4,3.4,0.3,5.8c-1.7-1.7-4-3.4-6.1-3.4c-0.1,0-0.1,0-0.2,0c-1.6,0.1-3,1.1-4.1,3
	c-1.1,2-1.2,3.7-0.4,5.2c1.1,2,3.7,3.1,6,3.7c-2.4,0.6-5.1,1.7-6.1,3.8c-0.7,1.4-0.5,3.2,0.5,5c1.2,2,2.6,3,4.4,3h0.1
	c2.2,0,4.2-1.5,5.8-3.2c-0.6,2.3-0.7,4.2-0.3,5.7c0.5,1.5,1.7,3.3,5.2,3.4c0.1,0,0.1,0,0.2,0c2.1,0,3.5-0.7,4.3-2
	c1.2-1.9,0.8-4.8,0.2-7.1c1.6,1.6,3.7,3.2,5.9,3.2h0.1c1.7,0,3.2-1,4.4-3c1.1-1.8,1.3-3.5,0.5-5C113.8,20.5,111.2,19.4,108.7,18.8
	 M117.8,48.4v-5.7h-1.1v2.3c0,0.4,0.1,1,0.1,1s-0.4-0.5-0.6-0.7l-2.8-2.6h-0.1v5.7h1.1v-2.3c0-0.4-0.1-1-0.1-1s0.4,0.5,0.6,0.7
	L117.8,48.4L117.8,48.4z"/>
<g>
	<path d="M61.9,26.1c0.1-0.2,0.1-0.4,0.2-0.6c0-0.1,0-0.2,0.1-0.3l0-0.1c0.1-0.5,0.2-1,0.2-1.5c0.1-0.7,0.2-1.4,0.4-2.2
		c0.1-0.4,0.2-0.8,0.3-1.1c0.1-0.3,0.2-0.6,0.2-1c0.3-1.4,0.4-2.9,0.4-4.8c0-1.4-0.3-2.6-1-3.6c-0.4-0.7-0.9-1.6-1.3-2.4l-0.1-0.1
		c-0.1-0.1-0.2-0.2-0.2-0.4c-0.1-0.2-0.2-0.4-0.4-0.6c-0.6-0.8-1.2-1.5-1.9-2.2c-0.9-0.8-1.9-1.6-3-2.1c-2.4-1.1-4.6-1.6-6.9-1.5
		c-1.3,0-2.7,0.2-4,0.6c-1.6,0.5-2.9,1.3-4.2,2.1c-1.8,1.2-3.3,2.7-4.4,4.6c-0.1-0.2-0.1-0.3-0.2-0.4c-0.1-0.1-0.1-0.3-0.2-0.4
		l0-0.1c-0.3-0.5-0.6-1-0.9-1.3c-0.1-0.2-0.2-0.3-0.4-0.5c-0.1-0.1-0.2-0.2-0.3-0.4l-1.7-1.7c-0.2-0.2-0.3-0.3-0.5-0.4
		c-0.4-0.3-0.8-0.5-1.2-0.7c-0.6-0.2-1.1-0.4-1.7-0.6l-0.1,0c-0.1,0-0.3-0.1-0.5-0.1c-0.2-0.1-0.4-0.2-0.7-0.2
		C27.5,2.1,27,2,26.5,1.9l-0.2,0c-0.2,0-0.4-0.1-0.7-0.1l-0.1,0c-0.6-0.1-1.2-0.2-1.8-0.3c-0.2-0.1-0.5-0.1-0.6-0.1
		c-1.1-0.2-2.2-0.1-3.3,0l-0.2,0c-0.1,0-0.2,0-0.3,0.1c-0.2,0-0.3,0-0.5,0.1c-0.4,0-0.7,0.1-1,0.2c-0.2,0-0.4,0.1-0.7,0.2
		c-0.2,0-0.3,0.1-0.5,0.1c-0.2,0-0.4,0-0.7,0.1l-1.3,0.4c-0.5,0.2-1.1,0.4-1.7,0.9l-0.3,0.2c-0.5,0.3-1.1,0.6-1.5,1.2
		c-0.4,0.5-0.8,1-1.4,1.8C9.8,6.6,9.7,6.8,9.6,6.9C9.5,7.1,9.3,7.3,9.2,7.5L8.3,8.6C8,9,7.8,9.4,7.5,9.8l-0.3,0.5l0,0.1
		c-0.2,0.4-0.4,0.8-0.7,1.2c-0.3,0.5-0.4,0.9-0.6,1.2l-0.1,0.3c-0.1,0.4-0.2,0.8-0.3,1.3c-0.1,0.4-0.1,0.7-0.2,1.1
		c-0.1,0.3-0.1,0.6-0.2,0.8c0,0.2-0.1,0.4-0.1,0.6L5,17c-0.2,0.8-0.2,1.7-0.2,2.7V20l0.1,0.1c0.1,0.6,0.3,1.1,0.4,1.5
		c0.1,0.2,0.1,0.3,0.2,0.5c0.1,0.3,0.3,0.6,0.4,0.8c0.1,0.2,0.2,0.3,0.2,0.4l0.1,0.1c0.1,0.2,0.2,0.3,0.2,0.5
		c0.1,0.1,0.1,0.2,0.2,0.4C7,25,7.5,25.6,7.9,26.2c0.1,0.1,0.2,0.3,0.3,0.4c0.3,0.4,0.5,0.7,0.7,1c0.1,0.2,0.2,0.3,0.4,0.5
		c0.1,0.1,0.2,0.2,0.3,0.4l0.1,0.1c0.1,0.1,0.3,0.3,0.4,0.5c0.1,0.2,0.2,0.3,0.3,0.4l0,0.1c0.2,0.3,0.4,0.5,0.6,0.8
		c0.2,0.2,0.4,0.4,0.6,0.7l0.1,0.1c0.1,0.1,0.2,0.2,0.3,0.2c0.1,0.1,0.3,0.3,0.4,0.4c0.1,0.2,0.3,0.3,0.5,0.5
		c0.1,0.1,0.2,0.2,0.3,0.3c0.6,0.6,1.3,1,2.1,1.3c0.5,0.3,1.1,0.6,1.6,0.8c0.2,0.1,0.4,0.1,0.5,0.2l0,0l0.6,0.2
		c0.7,0.2,1.4,0.5,2.1,0.6c0.1,0,0.3,0.1,0.4,0.1c0.1,0,0.2,0.1,0.4,0.1c0.4,0.1,1,0.2,1.5,0.2c0.7,0,1.4-0.1,1.8-0.2
		c0.7-0.1,1.2-0.4,1.8-0.7l0.2-0.1c0.5-0.1,0.9-0.3,1.3-0.5c0.1,0,0.2-0.1,0.3-0.1l0.1,0c0.9-0.2,1.5-0.6,2-1
		c0.5-0.3,1.1-0.7,1.5-1.3c0.3-0.3,0.6-0.6,1-1c0.1-0.2,0.2-0.3,0.4-0.5c0.1-0.2,0.2-0.3,0.3-0.4l0.1-0.1c0.1-0.1,0.2-0.3,0.3-0.4
		c0.2-0.2,0.4-0.5,0.6-0.8c0.1-0.3,0.3-0.5,0.4-0.7c0.2-0.3,0.3-0.5,0.4-0.7c0.1-0.2,0.3-0.4,0.4-0.6c0,0,0,0.1,0,0.1
		c0.4,1.1,0.8,2.1,1.3,2.9c0.4,0.6,0.8,1.1,1.2,1.7c0.1,0.2,0.3,0.3,0.4,0.5c0.5,0.7,1.1,1.2,1.9,1.6c1.6,0.7,3.3,1.3,5.1,1.6
		c0.7,0.1,1.4,0.2,2,0.2c0.5,0,1.1,0,1.6,0c0.5,0,0.9,0,1.4,0c1.3,0,2.5-0.3,3.7-0.9c1.8-0.9,3.4-2.1,4.7-3.7c0.9-1,1.7-2.1,2.5-3.1
		c0.4-0.4,0.6-0.9,0.7-1.3L61.9,26.1z M61.5,19c-0.1,0.3-0.1,0.6-0.2,0.9c-0.1,0.4-0.2,0.8-0.3,1.2c-0.2,0.8-0.3,1.6-0.4,2.3
		c-0.1,0.4-0.1,0.9-0.2,1.3c0,0.1-0.1,0.2-0.1,0.3c0,0.1-0.1,0.2-0.1,0.3l-0.1,0.2c-0.1,0.3-0.2,0.5-0.3,0.7l-0.1,0.1
		c-0.8,1-1.6,2.1-2.5,3.1c-1.1,1.4-2.6,2.5-4.1,3.2c-1,0.5-1.9,0.7-2.9,0.7c-0.5,0-1,0-1.5,0c-0.5,0-1,0-1.5,0
		c-0.5,0-1.2-0.1-1.7-0.1c-1.5-0.3-3.1-0.8-4.5-1.4c-0.5-0.2-0.9-0.6-1.2-1c-0.1-0.2-0.3-0.4-0.4-0.5c-0.4-0.5-0.8-1-1.1-1.5
		c-0.4-0.7-0.8-1.5-1.1-2.5c-0.2-0.6-0.5-1.4-0.7-2.1l-0.7-2.5l-1.1,2.4c-0.2,0.4-0.3,0.6-0.5,0.9l-0.1,0.1
		c-0.2,0.4-0.5,0.8-0.8,1.3c-0.1,0.3-0.3,0.5-0.4,0.7c-0.2,0.3-0.3,0.5-0.5,0.8c-0.1,0.2-0.2,0.4-0.4,0.6c-0.1,0.2-0.3,0.4-0.4,0.5
		c-0.1,0.2-0.2,0.3-0.3,0.5c-0.1,0.2-0.2,0.3-0.3,0.4c-0.3,0.3-0.6,0.6-0.8,0.9l-0.1,0.1c-0.3,0.4-0.7,0.7-1.2,1
		c-0.5,0.3-0.8,0.6-1.3,0.7h-0.2l-0.2,0.1c-0.2,0.1-0.3,0.1-0.5,0.2c-0.3,0.2-0.7,0.3-1,0.4l-0.5,0.2c-0.5,0.2-1,0.4-1.4,0.5
		c-1,0.2-1.9,0.2-2.4,0c-0.1,0-0.3-0.1-0.4-0.1c-0.1,0-0.2-0.1-0.4-0.1c-0.7-0.2-1.3-0.4-2-0.6L18.2,33c-0.2-0.1-0.3-0.1-0.4-0.1
		l-0.1,0c-0.5-0.2-1-0.5-1.5-0.8l-0.1,0c-0.6-0.3-1.1-0.6-1.6-1c-0.1-0.1-0.2-0.2-0.3-0.2c-0.1-0.1-0.3-0.3-0.4-0.4
		c-0.1-0.2-0.3-0.3-0.5-0.5c-0.1-0.1-0.2-0.1-0.3-0.2c-0.2-0.2-0.4-0.5-0.6-0.7c-0.2-0.2-0.4-0.4-0.5-0.7c-0.1-0.1-0.2-0.3-0.3-0.4
		l0,0c-0.2-0.2-0.3-0.5-0.6-0.8c-0.1-0.1-0.2-0.3-0.3-0.4c-0.1-0.1-0.2-0.2-0.3-0.4c-0.2-0.3-0.5-0.6-0.8-1
		c-0.1-0.1-0.2-0.3-0.3-0.4c-0.4-0.5-0.8-1-1.1-1.5c-0.1-0.2-0.2-0.3-0.3-0.5C8,22.9,8,22.8,7.9,22.7c-0.1-0.3-0.3-0.5-0.4-0.8
		c-0.1-0.2-0.2-0.3-0.2-0.4C7.2,21.3,7.1,21,7,20.8c-0.1-0.3-0.2-0.5-0.3-0.9c0-0.2,0-0.3-0.1-0.5c0-0.7,0.1-1.5,0.2-2.1
		C6.9,17.1,7,16.9,7,16.6c0-0.2,0.1-0.4,0.1-0.6c0.1-0.4,0.2-0.8,0.3-1.3c0.1-0.4,0.1-0.7,0.2-1l0.1-0.3c0.1-0.3,0.2-0.5,0.3-0.8
		c0.3-0.5,0.6-1,0.8-1.4l0.3-0.5c0.2-0.4,0.5-0.7,0.7-1.1l0.9-1.1l0.1-0.1c0.1-0.2,0.2-0.3,0.3-0.4c0.2-0.2,0.3-0.4,0.4-0.6
		c0.4-0.6,0.9-1.2,1.2-1.6c0.3-0.3,0.6-0.5,1.1-0.8l0.4-0.2c0.5-0.3,0.9-0.5,1.3-0.6l1.3-0.4l0.1,0c0,0,0.1,0,0.1,0l0.2,0
		c0.2,0,0.4-0.1,0.7-0.2c0.2-0.1,0.4-0.1,0.6-0.1c0.2-0.1,0.5-0.1,0.7-0.1l0.2,0c0.1,0,0.2,0,0.3-0.1c0.2,0,0.3,0,0.5-0.1
		c1-0.1,1.9-0.1,2.9,0l0.3,0.1c0.7,0.1,1.4,0.3,2.1,0.4c0.3,0.1,0.6,0.2,1,0.2c0.4,0.1,0.7,0.1,1,0.2l0.2,0.1c0.1,0,0.3,0.1,0.5,0.1
		c0.2,0.1,0.5,0.2,0.7,0.2c0.5,0.1,1,0.3,1.4,0.5C30.4,5,30.7,5.2,31,5.4l0.1,0.1c0,0,0.1,0.1,0.1,0.1l1.5,1.5
		c0.1,0.1,0.2,0.3,0.3,0.4c0.1,0.1,0.2,0.2,0.3,0.4c0.3,0.3,0.5,0.7,0.7,1c0.1,0.2,0.1,0.3,0.2,0.5c0.1,0.2,0.2,0.4,0.3,0.6l0,0.1
		c0.2,0.6,0.4,1,0.6,1.5l0.8,2.7l1.1-2.8c0-0.1,0.1-0.2,0.1-0.3c1-2.2,2.5-3.9,4.5-5.2c1.3-0.9,2.5-1.5,3.7-1.9
		c1.2-0.4,2.3-0.6,3.5-0.6c2-0.1,4,0.4,6.1,1.3c0.9,0.4,1.8,1.1,2.5,1.8c0.6,0.5,1.2,1.2,1.7,1.9c0.1,0.1,0.2,0.2,0.2,0.4
		c0.1,0.2,0.2,0.4,0.3,0.5c0.4,0.8,0.9,1.6,1.3,2.4l0,0c0.5,0.8,0.7,1.6,0.7,2.7C61.8,16.4,61.7,17.7,61.5,19z"/>
	<polygon points="21.2,42.8 20,42.8 20,48.3 23.7,48.3 23.7,47.3 21.2,47.3 	"/>
	<path d="M16.2,42.7c-1.6,0-2.9,1.2-2.9,2.8c0,1.6,1.3,2.8,2.9,2.8c1.6,0,2.9-1.2,2.9-2.8C19.1,43.9,17.8,42.7,16.2,42.7z
		 M16.2,47.4c-1,0-1.7-0.8-1.7-1.8c0-1,0.7-1.8,1.7-1.8c1,0,1.7,0.8,1.7,1.8C17.9,46.6,17.2,47.4,16.2,47.4z"/>
	<polygon points="25.7,46 27.9,46 27.9,45 25.7,45 25.7,43.8 28.2,43.8 28.2,42.8 24.6,42.8 24.6,48.3 28.4,48.3 28.4,47.3 
		25.7,47.3 	"/>
	<path d="M57.7,42.7c-1.6,0-2.9,1.2-2.9,2.8c0,1.6,1.3,2.8,2.9,2.8c1.6,0,2.9-1.2,2.9-2.8C60.6,43.9,59.3,42.7,57.7,42.7z
		 M57.7,47.4c-1,0-1.7-0.8-1.7-1.8c0-1,0.7-1.8,1.7-1.8c1,0,1.7,0.8,1.7,1.8C59.4,46.6,58.7,47.4,57.7,47.4z"/>
	<path d="M11.2,45l-0.3-0.1c-0.5-0.2-0.7-0.4-0.7-0.7c0-0.3,0.2-0.5,0.5-0.5c0.3,0,0.5,0.1,0.7,0.5l0.9-0.6
		c-0.4-0.7-0.9-0.9-1.6-0.9c-1,0-1.7,0.7-1.7,1.5c0,0.9,0.5,1.4,1.4,1.7l0.3,0.1c0.5,0.2,0.8,0.4,0.8,0.8c0,0.3-0.3,0.6-0.8,0.6
		c-0.6,0-0.9-0.3-1.1-0.7l-0.9,0.5c0.3,0.7,1,1.2,2.1,1.2c1.1,0,1.9-0.6,1.9-1.6C12.7,45.8,12.1,45.4,11.2,45z"/>
	<path d="M5.1,46.3C5.7,45.6,6,45.1,6,44.5c0-1-0.7-1.8-1.9-1.8c-1.2,0-1.8,0.7-2.1,1.7l1.1,0.2c0.2-0.6,0.4-0.9,0.9-0.9
		c0.5,0,0.7,0.3,0.7,0.7c0,0.4-0.2,0.8-0.7,1.4l-2.2,2.4v0.1H6v-1H4.5c-0.2,0-0.5,0-0.5,0s0.2-0.2,0.4-0.3L5.1,46.3z"/>
	<path d="M47.7,42.8h-1.9v5.6h1.1v-1.8h0.8c1.1,0,2.1-0.6,2.1-1.9C49.8,43.3,48.9,42.8,47.7,42.8z M47.7,45.5h-0.8v-1.7h0.8
		c0.5,0,0.9,0.2,0.9,0.9C48.6,45.2,48.3,45.5,47.7,45.5z"/>
	<polygon points="42.1,46 44.4,46 44.4,45 42.1,45 42.1,43.8 44.7,43.8 44.7,42.8 41,42.8 41,48.3 44.8,48.3 44.8,47.3 42.1,47.3 	
		"/>
	<path d="M52.6,45l-0.3-0.1c-0.5-0.2-0.7-0.4-0.7-0.7c0-0.3,0.2-0.5,0.5-0.5c0.3,0,0.5,0.1,0.7,0.5l0.9-0.6
		c-0.4-0.7-0.9-0.9-1.6-0.9c-1,0-1.7,0.7-1.7,1.5c0,0.9,0.5,1.4,1.4,1.7l0.3,0.1c0.5,0.2,0.8,0.4,0.8,0.8c0,0.3-0.3,0.6-0.8,0.6
		c-0.6,0-0.9-0.3-1.1-0.7l-0.9,0.5c0.3,0.7,1,1.2,2.1,1.2c1.1,0,1.9-0.6,1.9-1.6C54.2,45.8,53.6,45.4,52.6,45z"/>
	<path d="M40,44.6c0-1.3-0.9-1.8-2.1-1.8h-2.1v5.6H37v-1.9h0.7l1.1,1.9h1.3l-1.3-2.1C39.6,46,40,45.4,40,44.6z M37.9,45.4H37v-1.7
		h0.9c0.5,0,0.9,0.2,0.9,0.8C38.8,45.2,38.5,45.4,37.9,45.4z"/>
	<path d="M31.4,45l-0.3-0.1c-0.5-0.2-0.7-0.4-0.7-0.7c0-0.3,0.2-0.5,0.5-0.5c0.3,0,0.5,0.1,0.7,0.5l0.9-0.6
		c-0.4-0.7-0.9-0.9-1.6-0.9c-1,0-1.7,0.7-1.7,1.5c0,0.9,0.5,1.4,1.4,1.7l0.3,0.1c0.5,0.2,0.8,0.4,0.8,0.8c0,0.3-0.3,0.6-0.8,0.6
		c-0.6,0-0.9-0.3-1.1-0.7l-0.9,0.5c0.3,0.7,1,1.2,2.1,1.2c1.1,0,1.9-0.6,1.9-1.6C32.9,45.8,32.4,45.4,31.4,45z"/>
	<polygon points="62.6,47.3 62.6,42.8 61.5,42.8 61.5,48.3 65.2,48.3 65.2,47.3 	"/>
</g>
</svg>
