<?xml version="1.0" encoding="UTF-8" standalone="no"?>
<!-- Generator: Adobe Illustrator 24.0.1, SVG Export Plug-In . SVG Version: 6.00 Build 0)  -->

<svg
   xmlns:dc="http://purl.org/dc/elements/1.1/"
   xmlns:cc="http://creativecommons.org/ns#"
   xmlns:rdf="http://www.w3.org/1999/02/22-rdf-syntax-ns#"
   xmlns:svg="http://www.w3.org/2000/svg"
   xmlns="http://www.w3.org/2000/svg"
   xmlns:sodipodi="http://sodipodi.sourceforge.net/DTD/sodipodi-0.dtd"
   xmlns:inkscape="http://www.inkscape.org/namespaces/inkscape"
   version="1.1"
   id="Capa_1"
   x="0px"
   y="0px"
   viewBox="0 0 204.30001 73.309423"
   xml:space="preserve"
   sodipodi:docname="3_logos_positiu.svg"
   width="204.3"
   height="73.309425"
   inkscape:version="0.92.5 (2060ec1f9f, 2020-04-08)"><metadata
   id="metadata31"><rdf:RDF><cc:Work
       rdf:about=""><dc:format>image/svg+xml</dc:format><dc:type
         rdf:resource="http://purl.org/dc/dcmitype/StillImage" /><dc:title></dc:title></cc:Work></rdf:RDF></metadata><defs
   id="defs29" /><sodipodi:namedview
   pagecolor="#ffffff"
   bordercolor="#666666"
   borderopacity="1"
   objecttolerance="10"
   gridtolerance="10"
   guidetolerance="10"
   inkscape:pageopacity="0"
   inkscape:pageshadow="2"
   inkscape:window-width="1680"
   inkscape:window-height="965"
   id="namedview27"
   showgrid="false"
   fit-margin-top="10"
   fit-margin-left="10"
   fit-margin-right="10"
   fit-margin-bottom="10"
   inkscape:zoom="0.28031832"
   inkscape:cx="102.44999"
   inkscape:cy="36.549988"
   inkscape:window-x="0"
   inkscape:window-y="48"
   inkscape:window-maximized="1"
   inkscape:current-layer="Capa_1" />
<path
   d="m 188.7,50.009424 h -1.1 v 5.3 h 1.1 z m -6.8,10.5 c 0,-1.4 0.6,-2 1.4,-2 0.8,0 1.4,0.6 1.4,2 0,1.4 -0.6,2 -1.4,2 -0.8,0 -1.4,-0.6 -1.4,-2 m -0.9,0 c 0,1.9 1.1,2.7 2.2,2.7 1.1,0 2.2,-0.9 2.2,-2.7 0,-1.9 -1.1,-2.7 -2.2,-2.7 -1.1,0 -2.2,0.8 -2.2,2.7 m 2.2,-5.2 h 3.5 v -1 h -2.4 v -4.4 h -1.1 z m -3.5,-1 v -1.2 h 2.1 v -0.9 h -2.1 v -1.2 h 2.4 v -1 h -3.5 v 5.3 h 3.6 v -1 z m -1,6.5 -2.2,2.3 v 0.1 h 3.8 v -0.7 h -1.7 c -0.2,0 -0.5,0 -0.5,0 0,0 0.2,-0.2 0.4,-0.3 l 0.9,-0.9 c 0.6,-0.6 0.9,-1.2 0.9,-1.8 0,-0.9 -0.7,-1.6 -1.7,-1.6 -1,0 -1.7,0.7 -1.9,1.6 l 0.8,0.2 c 0.2,-0.6 0.5,-1 1.1,-1 0.6,0 0.9,0.4 0.9,0.9 0,0.2 -0.3,0.6 -0.8,1.2 m -4.6,-7.6 h 2.3 v 2.1 h 1.1 v -5.3 h -1.1 v 2.3 h -2.3 v -2.3 H 173 v 5.3 h 1.1 z m -1.6,7.3 c 0,-1.4 0.6,-2 1.4,-2 0.8,0 1.4,0.6 1.4,2 0,1.4 -0.6,2 -1.4,2 -0.8,0 -1.4,-0.6 -1.4,-2 m -0.9,0 c 0,1.9 1.1,2.7 2.2,2.7 1.1,0 2.2,-0.9 2.2,-2.7 0,-1.9 -1.1,-2.7 -2.2,-2.7 -1.1,0 -2.2,0.8 -2.2,2.7 m -3.3,-7.9 c 0,-1 0.7,-1.7 1.6,-1.7 0.6,0 1,0.3 1.3,0.7 l 0.8,-0.6 c -0.5,-0.7 -1.2,-1.1 -2.1,-1.1 -1.5,0 -2.8,1.2 -2.8,2.7 0,1.5 1.2,2.7 2.8,2.7 1,0 1.8,-0.5 2.2,-1.2 l -0.9,-0.6 c -0.3,0.5 -0.7,0.8 -1.4,0.8 -0.8,0.1 -1.5,-0.7 -1.5,-1.7 m 1,8.2 -2.2,2.3 v 0.1 h 3.8 v -0.7 h -1.7 c -0.2,0 -0.5,0 -0.5,0 0,0 0.2,-0.2 0.4,-0.3 l 0.9,-0.9 c 0.6,-0.6 0.9,-1.2 0.9,-1.8 0,-0.9 -0.7,-1.6 -1.7,-1.6 -1,0 -1.7,0.7 -1.9,1.6 l 0.8,0.2 c 0.2,-0.6 0.5,-1 1.1,-1 0.6,0 0.9,0.4 0.9,0.9 0,0.2 -0.2,0.6 -0.8,1.2 m -3.1,-10.8 h -1.1 v 5.3 h 1.1 z m -4.9,2.8 -2.6,-2.9 h -0.1 v 5.4 h 1.1 v -2 c 0,-0.4 0,-0.9 0,-0.9 0,0 0.3,0.5 0.6,0.8 l 1.1,1.2 h 0.1 l 1.1,-1.2 c 0.3,-0.3 0.6,-0.8 0.6,-0.8 0,0 0,0.6 0,0.9 v 2 h 1.1 v -5.4 h -0.1 z m 28.3,-18.4 c -0.9,1.4 -1.8,2.1 -3,2.2 v 0 c -2.8,0 -6.1,-4.2 -7.1,-5.8 l -0.6,0.4 -0.6,0.3 c 0.9,1.8 2.9,7.2 1.4,9.5 -0.6,0.9 -1.6,1.3 -3.1,1.3 -1.7,0 -2.8,-0.5 -3.3,-1.5 -0.7,-1.2 -0.7,-3.1 0,-5.5 0.5,-1.9 1.3,-3.5 1.4,-3.7 l -0.6,-0.4 c 0,0 -0.1,0 -0.1,-0.1 l -0.5,-0.3 c -1,1.6 -4.3,5.8 -7.1,5.8 v 0 c -1.1,0 -2.1,-0.7 -3,-2.2 -0.8,-1.3 -0.9,-2.4 -0.5,-3.3 1.3,-2.5 6.9,-3.4 9,-3.5 v -0.7 -0.7 c -2,-0.1 -7.4,-0.9 -8.8,-3.5 -0.6,-1 -0.4,-2.2 0.4,-3.6 0.7,-1.3 1.6,-2 2.7,-2.1 2.8,-0.1 6.4,4.3 7.5,6 l 0.6,-0.4 c 0.3,-0.2 0.7,-0.4 0.7,-0.4 -0.1,-0.2 -0.9,-1.8 -1.4,-3.7 -0.7,-2.4 -0.7,-4.3 0,-5.5 0.6,-1 1.7,-1.5 3.3,-1.5 1.5,0 2.6,0.4 3.1,1.3 1.5,2.4 -0.5,7.7 -1.4,9.5 l 0.6,0.3 0.6,0.4 c 1.1,-1.7 4.7,-6.1 7.5,-6 1,0 1.9,0.7 2.7,2.1 0.8,1.4 0.9,2.6 0.4,3.6 -1.4,2.5 -6.9,3.4 -8.8,3.5 v 0.7 0.7 c 2.1,0.1 7.7,1 9,3.5 0,0.9 -0.2,2 -1,3.3 m -4.1,-7.6 c 2.2,-0.6 4.7,-1.6 5.7,-3.5 0.8,-1.4 0.7,-3.1 -0.4,-5 -1,-1.8 -2.3,-2.7 -3.8,-2.8 -2.2,-0.1 -4.4,1.6 -6,3.3 0.6,-2.3 1,-5.1 -0.2,-6.9 -0.8,-1.3 -2.3,-1.9999996 -4.4,-1.9 -3.3,0.1 -4.5,1.8 -5,3.2 -0.4,1.4 -0.3,3.3 0.3,5.6 -1.6,-1.6 -3.8,-3.3 -5.9,-3.3 -0.1,0 -0.1,0 -0.2,0 -1.6,0.1 -2.9,1 -3.8,2.8 -1,1.9 -1.2,3.6 -0.4,5 1,1.9 3.5,2.9 5.7,3.5 -2.3,0.6 -4.8,1.7 -5.8,3.6 -0.7,1.4 -0.5,3 0.5,4.7 1.1,1.9 2.5,2.8 4.2,2.8 h 0.1 c 2,0 4,-1.5 5.6,-3 -0.6,2.2 -0.7,4.1 -0.3,5.5 0.4,1.4 1.7,3.2 5,3.2 0.1,0 0.1,0 0.2,0 1.9,0 3.3,-0.6 4.2,-1.9 1.1,-1.8 0.8,-4.5 0.2,-6.8 1.5,1.5 3.5,3 5.6,3 h 0.1 c 1.7,0 3.1,-1 4.2,-2.8 1.1,-1.8 1.2,-3.3 0.5,-4.7 -1,-1.9 -3.6,-3 -5.9,-3.6 m 8.8,28.6 v -5.4 h -1 v 2.2 c 0,0.4 0.1,1 0.1,1 0,0 -0.4,-0.5 -0.6,-0.7 l -2.7,-2.5 H 190 v 5.4 h 1 v -2.2 c 0,-0.4 -0.1,-1 -0.1,-1 0,0 0.4,0.5 0.6,0.7 l 2.7,2.5 z"
   id="path2"
   inkscape:connector-curvature="0" />
<path
   d="m 117.8,62.609424 c -0.8,0 -1.1,-0.8 -1.1,-2 0,-1.2 0.4,-2 1.1,-2 0.8,0 1.1,0.8 1.1,2 0,1.2 -0.4,2 -1.1,2 m 0,0.7 c 1.2,0 2,-1 2,-2.8 0,-1.8 -0.8,-2.8 -2,-2.8 -1.2,0 -2,1 -2,2.8 0,1.8 0.8,2.8 2,2.8 m -6.6,-0.1 h 3.8 v -0.7 h -1.7 c -0.2,0 -0.5,0 -0.5,0 0,0 0.3,-0.2 0.4,-0.3 l 0.9,-1 c 0.6,-0.6 0.9,-1.2 0.9,-1.8 0,-0.9 -0.6,-1.6 -1.7,-1.6 -1.1,0 -1.7,0.6 -1.9,1.6 l 0.8,0.2 c 0.1,-0.6 0.5,-1 1,-1 0.6,0 0.9,0.4 0.9,0.9 0,0.5 -0.2,0.9 -0.7,1.4 z m -2.5,-0.6 c -0.8,0 -1.1,-0.8 -1.1,-2 0,-1.2 0.4,-2 1.1,-2 0.8,0 1.1,0.8 1.1,2 0,1.2 -0.4,2 -1.1,2 m 0,0.7 c 1.2,0 2,-1 2,-2.8 0,-1.8 -0.8,-2.8 -2,-2.8 -1.2,0 -2,1 -2,2.8 0,1.8 0.8,2.8 2,2.8 m -6.6,-0.1 h 3.8 v -0.7 h -1.7 c -0.2,0 -0.5,0 -0.5,0 0,0 0.3,-0.2 0.4,-0.3 l 0.9,-1 c 0.6,-0.6 0.9,-1.2 0.9,-1.8 0,-0.9 -0.6,-1.6 -1.7,-1.6 -1.1,0 -1.7,0.6 -1.9,1.6 l 0.8,0.2 c 0.1,-0.6 0.5,-1 1,-1 0.6,0 0.9,0.4 0.9,0.9 0,0.5 -0.2,0.9 -0.7,1.4 z"
   id="path4"
   inkscape:connector-curvature="0" />
<path
   d="m 129.7,55.309424 h 3.5 v -1 h -2.4 v -4.4 h -1.1 z m -3.7,-0.9 c -1,0 -1.6,-0.8 -1.6,-1.8 0,-1 0.7,-1.8 1.6,-1.8 1,0 1.6,0.8 1.6,1.8 0,1 -0.6,1.8 -1.6,1.8 m 0,1 c 1.5,0 2.8,-1.2 2.8,-2.8 0,-1.6 -1.2,-2.8 -2.8,-2.8 -1.6,0 -2.8,1.2 -2.8,2.8 0.1,1.6 1.3,2.8 2.8,2.8 m -5.2,0 c 1.1,0 1.8,-0.5 1.8,-1.5 0,-0.9 -0.5,-1.3 -1.5,-1.7 l -0.3,-0.1 c -0.5,-0.2 -0.7,-0.3 -0.7,-0.7 0,-0.3 0.2,-0.5 0.5,-0.5 0.3,0 0.5,0.1 0.7,0.5 l 0.9,-0.6 c -0.4,-0.6 -0.9,-0.9 -1.6,-0.9 -1,0 -1.6,0.6 -1.6,1.5 0,0.9 0.5,1.3 1.3,1.7 l 0.3,0.1 c 0.5,0.2 0.8,0.4 0.8,0.7 0,0.3 -0.3,0.5 -0.8,0.5 -0.5,0 -0.9,-0.3 -1.1,-0.7 l -0.9,0.5 c 0.5,0.7 1.2,1.2 2.2,1.2 m -5.2,-2.8 v -1.7 h 0.8 c 0.5,0 0.9,0.2 0.9,0.8 0,0.6 -0.3,0.8 -0.9,0.8 h -0.8 z m -1.1,2.7 h 1.1 v -1.8 h 0.8 c 1.1,0 2,-0.6 2,-1.8 0,-1.3 -0.9,-1.8 -2,-1.8 h -1.9 z m -4.6,0 h 3.7 v -1 H 111 v -1.2 h 2.2 v -0.9 H 111 v -1.2 h 2.5 v -1 h -3.6 z m -3.9,-2.8 v -1.6 h 0.9 c 0.5,0 0.9,0.2 0.9,0.8 0,0.6 -0.3,0.8 -0.9,0.8 z m -1.1,2.8 h 1.1 v -1.9 h 0.7 l 1.1,1.9 h 1.3 l -1.2,-2 c 0.6,-0.2 1.1,-0.8 1.1,-1.6 0,-1.3 -0.9,-1.8 -2,-1.8 h -2 v 5.4 z m -5.6,0 h 3.5 v -1 h -2.4 v -4.4 h -1.1 z m -3.6,-0.9 c -1,0 -1.6,-0.8 -1.6,-1.8 0,-1 0.7,-1.8 1.6,-1.8 1,0 1.6,0.8 1.6,1.8 0,1 -0.7,1.8 -1.6,1.8 m 0,1 c 1.6,0 2.8,-1.2 2.8,-2.8 0,-1.6 -1.2,-2.8 -2.8,-2.8 -1.5,0 -2.8,1.2 -2.8,2.8 0,1.6 1.2,2.8 2.8,2.8 m -5.3,0 c 1.1,0 1.8,-0.5 1.8,-1.5 0,-0.9 -0.5,-1.3 -1.5,-1.7 l -0.3,-0.1 c -0.5,-0.2 -0.7,-0.3 -0.7,-0.7 0,-0.3 0.2,-0.5 0.5,-0.5 0.3,0 0.5,0.1 0.7,0.5 l 0.9,-0.6 c -0.4,-0.6 -0.9,-0.9 -1.6,-0.9 -1,0 -1.6,0.6 -1.6,1.5 0,0.9 0.5,1.3 1.3,1.7 l 0.3,0.1 c 0.5,0.2 0.8,0.4 0.8,0.7 0,0.3 -0.3,0.5 -0.8,0.5 -0.5,0 -0.9,-0.3 -1.1,-0.7 l -0.9,0.5 c 0.5,0.7 1.2,1.2 2.2,1.2"
   id="path6"
   inkscape:connector-curvature="0" />
<path
   d="m 60.4,17.809424 h 1.9 v -0.4 h -1.5 v -3.6 h -0.4 z m -1.7,-1.7 h -1.3 l 0.7,-1.4 z m -0.7,-2.3 -1.9,3.9 h 0.4 l 0.6,-1.3 h 1.7 l 0.6,1.3 h 0.4 z m -5,4 v -3 l 2.6,3 h 0.1 v -4 h -0.4 v 3 l -2.6,-3 h -0.1 v 3.9 H 53 Z m -2.3,-3.4 c 0.3,0.2 0.5,0.4 0.6,0.6 0.1,0.3 0.2,0.5 0.2,0.8 0,0.3 -0.1,0.6 -0.2,0.9 -0.1,0.3 -0.3,0.5 -0.6,0.6 -0.3,0.1 -0.5,0.2 -0.8,0.2 -0.5,0 -0.8,-0.2 -1.2,-0.5 -0.3,-0.3 -0.5,-0.7 -0.5,-1.2 0,-0.3 0.1,-0.6 0.2,-0.9 0.1,-0.3 0.4,-0.5 0.6,-0.6 0.3,-0.2 0.5,-0.2 0.8,-0.2 0.3,0 0.6,0.1 0.9,0.3 m -1.9,-0.4 c -0.3,0.2 -0.6,0.4 -0.7,0.8 -0.2,0.3 -0.3,0.7 -0.3,1 0,0.6 0.2,1 0.6,1.4 0.4,0.4 0.9,0.6 1.5,0.6 0.6,0 1.1,-0.2 1.5,-0.6 0.4,-0.4 0.6,-0.9 0.6,-1.5 0,-0.6 -0.2,-1.1 -0.6,-1.5 -0.4,-0.4 -0.9,-0.6 -1.5,-0.6 -0.5,0.1 -0.8,0.2 -1.1,0.4 m -2.1,3.8 h 0.4 v -4 h -0.4 z m -1.6,-3.6 v 3.5 h 0.4 v -3.5 h 0.9 v -0.4 h -2.2 v 0.4 z m -2,1.9 h -1.3 l 0.7,-1.4 z m -0.7,-2.3 -1.9,3.9 h 0.4 l 0.6,-1.3 h 1.7 l 0.6,1.3 h 0.4 z m -5.1,4 v -3 l 2.6,3 H 40 v -4 h -0.4 v 3 l -2.6,-3 h -0.1 v 3.9 h 0.4 z m -2.5,-3.6 c 0.3,0 0.5,0 0.6,0.1 0.1,0 0.2,0.1 0.3,0.2 0.1,0.1 0.1,0.2 0.1,0.4 0,0.1 0,0.3 -0.1,0.4 -0.1,0.1 -0.2,0.2 -0.3,0.2 -0.1,0 -0.3,0.1 -0.6,0.1 h -0.7 v -1.3 h 0.7 z m -1.1,3.6 h 0.4 v -1.8 h 0.2 l 1.4,1.8 h 0.5 l -1.4,-1.8 c 0.3,0 0.6,0 0.8,-0.1 0.2,-0.1 0.3,-0.2 0.4,-0.4 0.1,-0.2 0.2,-0.4 0.2,-0.6 0,-0.3 -0.1,-0.5 -0.2,-0.6 -0.1,-0.2 -0.3,-0.3 -0.6,-0.3 -0.2,0 -0.5,-0.1 -0.9,-0.1 h -0.8 z m -2.9,0 H 33 v -0.4 h -1.8 v -1.6 H 33 v -0.4 h -1.8 v -1.2 h 1.9 v -0.4 h -2.3 z m -1.7,-3.6 v 3.5 h 0.4 v -3.5 h 0.9 v -0.4 h -2.2 v 0.4 z m -4,3.6 v -3 l 2.6,3 h 0.1 v -4 h -0.4 v 3 l -2.6,-3 h -0.1 v 3.9 h 0.4 z m -1.7,0 h 0.4 v -4 h -0.4 z m -4.3,0 h 2.2 v -0.4 h -1.8 v -1.6 h 1.8 v -0.4 h -1.8 v -1.2 h 1.9 v -0.4 h -2.3 z m -3.7,0 h 0.4 v -1.9 h 2 v 1.9 h 0.4 v -4 h -0.4 v 1.6 h -2 v -1.6 h -0.4 z m -1.9,-3.6 v 3.5 h 0.4 v -3.5 h 0.9 v -0.4 h -2.2 v 0.4 z"
   id="path8"
   inkscape:connector-curvature="0" />
<path
   d="m 44.4,28.209424 h 4.5 v -0.9 h -3.5 v -8.3 h -0.9 v 9.2 z m -6.7,0 h 5.2 v -0.9 h -4.3 v -3.6 h 4.3 v -0.9 h -4.3 v -2.9 h 4.3 v -0.9 h -5.3 v 9.2 z m -4.2,-8.3 v 8.3 h 0.9 v -8.3 h 2 v -0.9 h -5 v 0.9 z m -5.7,0.3 c 0.6,0.4 1.1,0.8 1.4,1.4 0.3,0.6 0.5,1.2 0.5,2 0,0.7 -0.2,1.4 -0.5,2 -0.3,0.6 -0.8,1.1 -1.4,1.4 -0.6,0.3 -1.3,0.5 -2,0.5 -1.1,0 -2,-0.4 -2.7,-1.1 -0.8,-0.8 -1.1,-1.7 -1.1,-2.8 0,-0.7 0.2,-1.4 0.5,-2 0.3,-0.6 0.8,-1.1 1.4,-1.4 0.6,-0.4 1.3,-0.5 1.9,-0.5 0.7,0 1.4,0.1 2,0.5 m -4.4,-0.8 c -0.7,0.4 -1.3,1 -1.7,1.8 -0.4,0.8 -0.6,1.6 -0.6,2.5 0,1.3 0.5,2.5 1.4,3.4 0.9,0.9 2.1,1.4 3.4,1.4 1.3,0 2.5,-0.5 3.4,-1.4 0.9,-0.9 1.4,-2.1 1.4,-3.4 0,-1.4 -0.5,-2.5 -1.4,-3.4 -0.9,-0.9 -2.1,-1.4 -3.5,-1.4 -0.9,-0.1 -1.7,0.1 -2.4,0.5 m -10.6,8.8 h 0.9 v -4.4 h 4.7 v 4.4 h 0.9 v -9.2 h -0.9 v 3.9 h -4.7 v -3.9 h -0.9 z"
   id="path10"
   inkscape:connector-curvature="0" />
<path
   d="m 58.4,47.109424 c 0.4,0.3 0.9,0.4 1.5,0.4 0.7,0 1.3,-0.2 1.8,-0.7 0.5,-0.5 0.7,-1 0.7,-1.7 0,-0.4 -0.1,-0.9 -0.4,-1.3 -0.3,-0.4 -0.8,-0.9 -1.6,-1.5 -0.6,-0.5 -1,-0.8 -1.1,-0.9 -0.2,-0.2 -0.4,-0.4 -0.4,-0.6 -0.1,-0.2 -0.1,-0.4 -0.1,-0.6 0,-0.3 0.1,-0.6 0.3,-0.8 0.2,-0.2 0.5,-0.3 0.9,-0.3 0.3,0 0.5,0.1 0.8,0.2 0.2,0.1 0.5,0.4 0.8,0.9 l 0.7,-0.5 c -0.4,-0.6 -0.8,-0.9 -1.1,-1.1 -0.4,-0.2 -0.8,-0.3 -1.2,-0.3 -0.4,0 -0.8,0.1 -1.1,0.3 -0.3,0.2 -0.6,0.4 -0.8,0.7 -0.2,0.3 -0.3,0.7 -0.3,1 0,0.5 0.2,0.9 0.5,1.4 0.2,0.2 0.6,0.6 1.4,1.2 0.7,0.6 1.2,1 1.5,1.4 0.2,0.3 0.3,0.6 0.3,0.9 0,0.3 -0.1,0.5 -0.2,0.7 -0.1,0.2 -0.3,0.4 -0.6,0.6 -0.3,0.1 -0.5,0.2 -0.8,0.2 -0.7,0 -1.3,-0.5 -1.8,-1.5 l -0.8,0.5 c 0.3,0.6 0.7,1.1 1.1,1.4 m -8.6,-7.8 h 0.6 c 1.3,0 2.2,0.1 2.7,0.3 0.7,0.2 1.3,0.6 1.7,1.2 0.4,0.6 0.6,1.3 0.6,2.2 0,0.8 -0.2,1.5 -0.6,2.1 -0.4,0.6 -0.9,1 -1.6,1.2 -0.5,0.2 -1.3,0.2 -2.5,0.2 h -1 v -7.2 z m 2,8 c 1.1,0 2,-0.2 2.6,-0.5 0.6,-0.3 1.1,-0.8 1.5,-1.5 0.4,-0.7 0.6,-1.5 0.6,-2.3 0,-1 -0.2,-1.9 -0.7,-2.6 -0.5,-0.7 -1.2,-1.3 -2,-1.6 -0.6,-0.2 -1.6,-0.3 -2.9,-0.3 h -1.8 v 8.8 z m -7.8,-8 c 0.6,0 1,0.1 1.3,0.2 0.3,0.1 0.5,0.3 0.6,0.5 0.2,0.2 0.2,0.5 0.2,0.8 0,0.3 -0.1,0.6 -0.2,0.8 -0.2,0.2 -0.4,0.4 -0.7,0.5 -0.3,0.1 -0.7,0.2 -1.3,0.2 h -1.5 v -3 z m -2.5,8 h 0.9 v -4.1 h 0.5 l 3.2,4.1 h 1.1 l -3.2,-4.1 c 0.7,0 1.3,-0.1 1.7,-0.3 0.4,-0.2 0.7,-0.5 1,-0.8 0.2,-0.4 0.3,-0.8 0.3,-1.3 0,-0.6 -0.2,-1.1 -0.5,-1.5 -0.3,-0.4 -0.8,-0.7 -1.3,-0.8 -0.3,-0.1 -1,-0.1 -2,-0.1 h -1.8 v 8.9 z m -4.1,-3.8 h -3 l 1.5,-3.2 z m -1.6,-5 -4.2,8.8 h 1 l 1.4,-2.9 h 3.8 l 1.4,2.9 h 1 l -4.1,-8.8 z m -12.3,8.8 h 0.2 l 2.7,-6.7 2.6,6.7 h 0.2 l 2.5,-8.8 h -0.9 l -1.8,6.4 -2.5,-6.4 h -0.2 l -2.5,6.4 -1.8,-6.4 h -0.9 z m -5,-3.8 h -3 l 1.5,-3.2 z m -1.6,-5 -4.2,8.8 h 1 l 1.4,-2.9 h 3.8 l 1.4,2.9 h 1 l -4.1,-8.8 z"
   id="path12"
   inkscape:connector-curvature="0" />
<path
   d="m 50.7,55.809424 c 0.5,0 0.8,0 0.9,0.1 0.1,0 0.3,0.1 0.3,0.2 0.1,0.1 0.1,0.2 0.1,0.4 0,0.3 -0.1,0.5 -0.3,0.6 -0.2,0.1 -0.6,0.2 -1.3,0.2 z m -1.9,5.3 H 50 l 0.4,-2.8 h 0.1 l 1.4,2.8 h 1.2 l -1.4,-2.9 c 0.5,-0.1 0.9,-0.3 1.2,-0.7 0.3,-0.3 0.4,-0.7 0.4,-1.1 0,-0.4 -0.1,-0.7 -0.3,-0.9 -0.2,-0.3 -0.4,-0.5 -0.8,-0.6 -0.3,-0.1 -0.8,-0.2 -1.4,-0.2 h -1.1 z m -4.5,0 h 3.5 l 0.1,-1.1 h -2.3 l 0.2,-1.7 H 48 l 0.1,-1.1 h -2.2 l 0.2,-1.3 h 2.2 l 0.1,-1.1 H 45 Z m -6.2,0 h 1.1 l 0.6,-4.4 2.3,4.4 h 1 l 0.9,-6.4 h -1.2 l -0.6,4.3 -2.3,-4.3 h -1 z m -6.3,0 h 1.1 l 0.6,-4.4 2.3,4.4 h 1 l 0.9,-6.4 h -1.2 l -0.6,4.3 -2.3,-4.3 h -1 z m -2.3,0 h 1.1 l 0.9,-6.4 h -1.2 z m -6.8,0 h 1 l 2,-4.2 0.8,4.2 h 1 l 2.3,-6.4 h -1.2 l -1.4,4 -0.8,-4 h -0.9 l -1.9,4.1 -0.4,-4.1 h -1.1 z"
   id="path14"
   inkscape:connector-curvature="0" />
<path
   d="m 59.3,33.509424 v 3.6 H 60 v -3.6 l 2.4,-3.9 h -0.9 l -1.9,3.1 -1.9,-3.1 h -0.9 z m -5.5,-3.2 v 6.8 h 0.8 v -6.8 h 1.7 v -0.7 h -4.1 v 0.7 z m -5.2,0 c 0.5,0 0.9,0 1.1,0.1 0.2,0.1 0.4,0.2 0.5,0.4 0.1,0.2 0.2,0.4 0.2,0.7 0,0.3 -0.1,0.5 -0.2,0.7 -0.1,0.2 -0.3,0.4 -0.6,0.5 -0.2,0.1 -0.6,0.1 -1.1,0.1 h -1.3 v -2.6 h 1.4 z m -2.1,6.8 h 0.8 v -3.5 h 0.4 l 2.7,3.5 h 0.9 l -2.7,-3.5 c 0.6,0 1.1,-0.1 1.5,-0.2 0.4,-0.2 0.6,-0.4 0.8,-0.7 0.2,-0.3 0.3,-0.7 0.3,-1.1 0,-0.5 -0.1,-0.9 -0.4,-1.2 -0.3,-0.3 -0.6,-0.6 -1.1,-0.7 -0.3,-0.1 -0.9,-0.1 -1.7,-0.1 h -1.5 z m -5.7,0 h 4.3 v -0.7 h -3.5 v -3 h 3.5 v -0.7 h -3.5 v -2.4 h 3.6 v -0.7 h -4.4 z m -4.2,-6.8 c 0.5,0 0.9,0 1.1,0.1 0.2,0.1 0.4,0.2 0.5,0.4 0.1,0.2 0.2,0.4 0.2,0.7 0,0.3 -0.1,0.5 -0.2,0.7 -0.1,0.2 -0.3,0.4 -0.6,0.5 -0.2,0.1 -0.6,0.1 -1.1,0.1 h -1.3 v -2.6 h 1.4 z m -2.1,6.8 h 0.8 v -3.5 h 0.5 c 0.9,0 1.6,0 1.9,-0.1 0.5,-0.1 0.8,-0.3 1.1,-0.7 0.3,-0.3 0.4,-0.7 0.4,-1.2 0,-0.5 -0.1,-0.9 -0.4,-1.2 -0.3,-0.3 -0.6,-0.5 -1.1,-0.7 -0.3,-0.1 -0.9,-0.1 -1.7,-0.1 h -1.5 z m -4,-6.6 c 0.5,0.3 0.9,0.7 1.2,1.2 0.3,0.5 0.4,1 0.4,1.6 0,0.6 -0.1,1.1 -0.4,1.6 -0.3,0.5 -0.7,0.9 -1.2,1.2 -0.5,0.3 -1,0.4 -1.6,0.4 -0.9,0 -1.6,-0.3 -2.2,-0.9 -0.6,-0.6 -0.9,-1.4 -0.9,-2.3 0,-0.6 0.1,-1.2 0.4,-1.6 0.3,-0.5 0.7,-0.9 1.2,-1.2 0.5,-0.3 1,-0.4 1.6,-0.4 0.5,0 1,0.1 1.5,0.4 m -3.6,-0.6 c -0.6,0.4 -1.1,0.8 -1.4,1.5 -0.4,0.6 -0.5,1.3 -0.5,2 0,1.1 0.4,2 1.2,2.8 0.8,0.8 1.7,1.1 2.8,1.1 1.1,0 2,-0.4 2.8,-1.2 0.8,-0.8 1.2,-1.7 1.2,-2.8 0,-1.1 -0.4,-2.1 -1.2,-2.8 -0.8,-0.8 -1.7,-1.1 -2.9,-1.1 -0.7,0 -1.4,0.1 -2,0.5 m -5.9,0.4 c 0.5,0 0.9,0 1.1,0.1 0.2,0.1 0.4,0.2 0.5,0.4 0.1,0.2 0.2,0.4 0.2,0.7 0,0.3 -0.1,0.5 -0.2,0.7 -0.1,0.2 -0.3,0.4 -0.6,0.5 -0.2,0.1 -0.6,0.1 -1.1,0.1 h -1.3 v -2.6 H 21 Z m -2.1,6.8 h 0.8 v -3.5 h 0.4 l 2.7,3.5 h 0.9 l -2.7,-3.5 c 0.6,0 1.1,-0.1 1.5,-0.2 0.4,-0.2 0.6,-0.4 0.8,-0.7 0.2,-0.3 0.3,-0.7 0.3,-1.1 0,-0.5 -0.1,-0.9 -0.4,-1.2 -0.3,-0.3 -0.6,-0.6 -1.1,-0.7 -0.3,-0.1 -0.9,-0.1 -1.7,-0.1 h -1.5 z m -4.2,-6.8 c 0.5,0 0.9,0 1.1,0.1 0.2,0.1 0.4,0.2 0.5,0.4 0.1,0.2 0.2,0.4 0.2,0.7 0,0.3 -0.1,0.5 -0.2,0.7 -0.1,0.2 -0.3,0.4 -0.6,0.5 -0.2,0.1 -0.6,0.1 -1.1,0.1 h -1.3 v -2.6 h 1.4 z m -2.1,6.8 h 0.8 v -3.5 h 0.5 c 0.9,0 1.6,0 1.9,-0.1 0.5,-0.1 0.8,-0.3 1.1,-0.7 0.3,-0.3 0.4,-0.7 0.4,-1.2 0,-0.5 -0.1,-0.9 -0.4,-1.2 -0.3,-0.3 -0.6,-0.5 -1.1,-0.7 -0.3,-0.1 -0.9,-0.1 -1.7,-0.1 h -1.5 z"
   id="path16"
   inkscape:connector-curvature="0" />
<path
   d="m 41.9,50.909424 c -0.2,-0.2 -0.3,-0.4 -0.3,-0.7 0,-0.3 0.1,-0.5 0.3,-0.7 0.2,-0.2 0.4,-0.3 0.7,-0.3 0.3,0 0.5,0.1 0.7,0.3 0.2,0.2 0.3,0.4 0.3,0.7 0,0.3 -0.1,0.5 -0.3,0.7 -0.2,0.2 -0.4,0.3 -0.7,0.3 -0.2,0 -0.5,-0.1 -0.7,-0.3 m 1.7,0.7 c 0.2,-0.3 0.4,-0.6 0.4,-0.8 0.1,-0.2 0.1,-0.4 0.1,-0.6 0,-0.3 -0.1,-0.5 -0.2,-0.8 -0.1,-0.2 -0.3,-0.4 -0.5,-0.6 -0.2,-0.1 -0.5,-0.2 -0.8,-0.2 -0.3,0 -0.5,0.1 -0.8,0.2 -0.2,0.1 -0.4,0.3 -0.6,0.5 -0.1,0.2 -0.2,0.5 -0.2,0.8 0,0.4 0.1,0.8 0.4,1 0.3,0.3 0.6,0.4 1,0.4 0.2,0 0.3,0 0.5,-0.1 l -1.3,2 0.4,0.3 z m -5,-2.3 h 0.8 v 4.4 h 0.5 v -4.9 h -1 z m -3.3,0.7 c 0.1,-0.3 0.2,-0.5 0.4,-0.6 0.2,-0.1 0.4,-0.2 0.6,-0.2 0.2,0 0.4,0.1 0.6,0.2 0.2,0.1 0.3,0.4 0.5,0.7 0.1,0.3 0.2,0.7 0.2,1.2 0,0.5 -0.1,0.9 -0.2,1.3 -0.1,0.3 -0.2,0.5 -0.4,0.6 -0.2,0.1 -0.4,0.2 -0.6,0.2 -0.2,0 -0.4,-0.1 -0.6,-0.2 -0.2,-0.1 -0.3,-0.4 -0.4,-0.6 -0.1,-0.3 -0.1,-0.7 -0.1,-1.3 -0.2,-0.6 -0.1,-1 0,-1.3 m -0.4,2.7 c 0.1,0.4 0.3,0.6 0.6,0.8 0.3,0.2 0.5,0.3 0.8,0.3 0.3,0 0.6,-0.1 0.9,-0.3 0.3,-0.2 0.5,-0.5 0.6,-0.8 0.1,-0.4 0.2,-0.9 0.2,-1.5 0,-0.6 -0.1,-1.1 -0.2,-1.5 -0.2,-0.4 -0.4,-0.6 -0.6,-0.8 -0.3,-0.2 -0.5,-0.3 -0.9,-0.3 -0.3,0 -0.6,0.1 -0.9,0.3 -0.3,0.2 -0.5,0.5 -0.6,0.8 -0.1,0.4 -0.2,0.9 -0.2,1.5 0.1,0.7 0.1,1.2 0.3,1.5 m -3.5,-3.3 c 0.2,-0.2 0.5,-0.3 0.8,-0.3 0.3,0 0.6,0.1 0.8,0.3 0.2,0.2 0.3,0.4 0.3,0.7 0,0.2 -0.1,0.4 -0.2,0.6 -0.1,0.2 -0.4,0.5 -0.7,0.9 l -1.9,2 h 3.3 v -0.5 h -2.3 l 1.2,-1.3 c 0.4,-0.4 0.6,-0.7 0.8,-1 0.1,-0.2 0.2,-0.5 0.2,-0.8 0,-0.4 -0.1,-0.7 -0.4,-1 -0.3,-0.3 -0.6,-0.4 -1.1,-0.4 -0.5,0 -0.8,0.2 -1.2,0.5 -0.4,0.3 -0.5,0.7 -0.5,1.2 H 31 c 0.1,-0.4 0.2,-0.7 0.4,-0.9"
   id="path18"
   inkscape:connector-curvature="0" />
<path
   d="m 57.8,24.809424 1.4,1.5 c -0.6,0.5 -1.2,0.9 -1.7,1.1 -0.3,0.1 -0.6,0.2 -1,0.2 -0.4,0 -0.8,-0.1 -1.1,-0.4 -0.3,-0.3 -0.4,-0.6 -0.4,-0.9 0,-0.3 0.1,-0.6 0.4,-1 0.2,-0.3 0.8,-0.8 1.5,-1.4 0.4,0.3 0.7,0.6 0.9,0.9 m -1.6,-3.3 c -0.1,-0.1 -0.1,-0.3 -0.1,-0.5 0,-0.2 0.1,-0.4 0.3,-0.6 0.2,-0.2 0.5,-0.2 0.8,-0.2 0.3,0 0.6,0.1 0.8,0.2 0.2,0.2 0.3,0.3 0.3,0.5 0,0.2 -0.1,0.4 -0.2,0.6 -0.2,0.3 -0.6,0.7 -1,1 -0.4,-0.3 -0.7,-0.7 -0.9,-1 m 3.8,4.2 -0.9,-0.9 -1.4,-1.5 c 0.6,-0.5 1.1,-1 1.3,-1.3 0.2,-0.3 0.3,-0.7 0.3,-1 0,-0.3 -0.1,-0.6 -0.2,-0.8 -0.2,-0.3 -0.4,-0.5 -0.7,-0.6 -0.3,-0.2 -0.7,-0.2 -1,-0.2 -0.6,0 -1.1,0.2 -1.5,0.5 -0.4,0.3 -0.5,0.7 -0.5,1.1 0,0.3 0.1,0.5 0.2,0.8 0.1,0.3 0.5,0.7 1,1.3 -0.9,0.7 -1.5,1.3 -1.8,1.7 -0.3,0.4 -0.4,0.9 -0.4,1.4 0,0.6 0.2,1.1 0.6,1.5 0.4,0.4 1,0.6 1.7,0.6 0.5,0 1,-0.1 1.5,-0.3 0.5,-0.2 1.1,-0.6 1.9,-1.2 l 1.2,1.3 h 1.3 c -0.2,-0.3 -0.5,-0.6 -0.8,-0.9 -0.4,-0.4 -0.7,-0.7 -1,-0.9 0.4,-0.3 0.7,-0.6 1.1,-0.9 l -0.6,-0.7 c -0.5,0.3 -0.9,0.7 -1.3,1"
   id="path20"
   inkscape:connector-curvature="0" />
<path
   d="m 10.8,11.609424 h 53.7 v 50.9 H 10.8 Z m -0.8,51.6 h 55.3 v -52.4 H 10 Z"
   id="path22"
   inkscape:connector-curvature="0" />
<path
   d="m 111,11.609424 c -2,0 -4.2,0.5 -6.7,1.5 -1.4,0.6 -2.2,1.8 -3.1,3 -0.3,0.3 -0.5,0.7 -0.8,1 -1.9,2.4 -3.1,5.1 -3.6,8 -0.3,1.8 -0.4,3.7 0.8,5.4 l 1.1,1.5 c 1.4,2 2.9,4.1 4.6,5.9 1.8,2.1 4.4,3.3 8.2,3.8 2.8,0.4 5.7,-0.7 7.8,-2.9 4.2,-4.4 6.1,-8.8 5.8,-13.6 v 0 0 c 0.1,-3.3 -0.3,-5.7 -1.5,-7.8 -1.4,-2.6 -3.2,-4.1 -5.5,-4.6 l -0.8,-0.2 c -1.5,-0.4 -3,-0.7 -4.5,-1 -0.5,0 -1.1,0 -1.8,0 m 1.7,31.8 c -0.5,0 -0.9,0 -1.4,-0.1 -4.1,-0.6 -7.1,-2 -9.1,-4.3 -1.7,-1.9 -3.2,-4 -4.6,-6 l -1.1,-1.5 c -1.5,-2.1 -1.4,-4.5 -1.1,-6.5 0.5,-3.2 1.8,-6.1 3.9,-8.7 0.3,-0.3 0.5,-0.7 0.7,-1 1,-1.4 2,-2.8 3.8,-3.5 3.5,-1.5 6.5,-1.8999996 9.3,-1.5 1.6,0.3 3.1,0.6 4.6,1 l 0.8,0.2 c 2.7,0.6 4.8,2.4 6.4,5.4 1.3,2.3 1.8,4.9 1.7,8.5 0.3,5.2 -1.7,10 -6.2,14.7 -2.1,2.1 -4.9,3.3 -7.7,3.3"
   id="path24"
   inkscape:connector-curvature="0" />
</svg>