<?xml version="1.0" encoding="UTF-8" standalone="no"?>
<!-- Generator: Adobe Illustrator 24.0.1, SVG Export Plug-In . SVG Version: 6.00 Build 0)  -->

<svg
   xmlns:dc="http://purl.org/dc/elements/1.1/"
   xmlns:cc="http://creativecommons.org/ns#"
   xmlns:rdf="http://www.w3.org/1999/02/22-rdf-syntax-ns#"
   xmlns:svg="http://www.w3.org/2000/svg"
   xmlns="http://www.w3.org/2000/svg"
   xmlns:sodipodi="http://sodipodi.sourceforge.net/DTD/sodipodi-0.dtd"
   xmlns:inkscape="http://www.inkscape.org/namespaces/inkscape"
   version="1.1"
   id="Capa_1"
   x="0px"
   y="0px"
   viewBox="0 0 126.1 73.309423"
   xml:space="preserve"
   sodipodi:docname="2_logos_positiu.svg"
   width="126.1"
   height="73.309425"
   inkscape:version="0.92.5 (2060ec1f9f, 2020-04-08)"><metadata
   id="metadata15"><rdf:RDF><cc:Work
       rdf:about=""><dc:format>image/svg+xml</dc:format><dc:type
         rdf:resource="http://purl.org/dc/dcmitype/StillImage" /><dc:title></dc:title></cc:Work></rdf:RDF></metadata><defs
   id="defs13" /><sodipodi:namedview
   pagecolor="#ffffff"
   bordercolor="#666666"
   borderopacity="1"
   objecttolerance="10"
   gridtolerance="10"
   guidetolerance="10"
   inkscape:pageopacity="0"
   inkscape:pageshadow="2"
   inkscape:window-width="1680"
   inkscape:window-height="965"
   id="namedview11"
   showgrid="false"
   fit-margin-top="10"
   fit-margin-left="10"
   fit-margin-right="10"
   fit-margin-bottom="10"
   inkscape:zoom="0.28031832"
   inkscape:cx="64.149994"
   inkscape:cy="35.849988"
   inkscape:window-x="0"
   inkscape:window-y="48"
   inkscape:window-maximized="1"
   inkscape:current-layer="Capa_1" />
<path
   d="m 110.6,50.009424 h -1.1 v 5.3 h 1.1 z m -6.9,10.5 c 0,-1.4 0.6,-2 1.4,-2 0.8,0 1.4,0.6 1.4,2 0,1.4 -0.6,2 -1.4,2 -0.8,0 -1.4,-0.6 -1.4,-2 m -0.9,0 c 0,1.9 1.1,2.7 2.2,2.7 1.1,0 2.2,-0.9 2.2,-2.7 0,-1.9 -1.1,-2.7 -2.2,-2.7 -1.1,0 -2.2,0.8 -2.2,2.7 m 2.2,-5.2 h 3.5 v -1 h -2.4 v -4.4 H 105 Z m -3.5,-1 v -1.2 h 2.1 v -0.9 h -2.1 v -1.2 h 2.4 v -1 h -3.5 v 5.3 h 3.6 v -1 z m -1,6.5 -2.2,2.3 v 0.1 h 3.8 v -0.7 h -1.7 c -0.2,0 -0.5,0 -0.5,0 0,0 0.2,-0.2 0.4,-0.3 l 0.9,-0.9 c 0.6,-0.6 0.9,-1.2 0.9,-1.8 0,-0.9 -0.7,-1.6 -1.7,-1.6 -1,0 -1.7,0.7 -1.9,1.6 l 0.8,0.2 c 0.2,-0.6 0.5,-1 1.1,-1 0.6,0 0.9,0.4 0.9,0.9 0,0.2 -0.3,0.6 -0.8,1.2 m -4.6,-7.6 h 2.3 v 2.1 h 1.1 v -5.3 h -1.1 v 2.3 h -2.3 v -2.3 h -1.1 v 5.3 h 1.1 z m -1.6,7.3 c 0,-1.4 0.6,-2 1.4,-2 0.8,0 1.4,0.6 1.4,2 0,1.4 -0.6,2 -1.4,2 -0.8,0 -1.4,-0.6 -1.4,-2 m -0.9,0 c 0,1.9 1.1,2.7 2.2,2.7 1.1,0 2.2,-0.9 2.2,-2.7 0,-1.9 -1.1,-2.7 -2.2,-2.7 -1.1,0 -2.2,0.8 -2.2,2.7 m -3.3,-7.9 c 0,-1 0.7,-1.7 1.6,-1.7 0.6,0 1,0.3 1.3,0.7 l 0.8,-0.6 c -0.5,-0.7 -1.2,-1.1 -2.1,-1.1 -1.5,0 -2.8,1.2 -2.8,2.7 0,1.6 1.2,2.7 2.8,2.7 1,0 1.8,-0.5 2.2,-1.2 l -0.9,-0.6 c -0.3,0.5 -0.7,0.8 -1.4,0.8 -0.8,0.1 -1.5,-0.7 -1.5,-1.7 m 1,8.2 -2.2,2.3 v 0.1 h 3.8 v -0.7 H 91 c -0.2,0 -0.5,0 -0.5,0 0,0 0.2,-0.2 0.4,-0.3 l 0.9,-0.9 c 0.6,-0.6 0.9,-1.2 0.9,-1.8 0,-0.9 -0.7,-1.6 -1.7,-1.6 -1,0 -1.7,0.7 -1.9,1.6 l 0.8,0.2 c 0.2,-0.6 0.5,-1 1.1,-1 0.6,0 0.9,0.4 0.9,0.9 0,0.2 -0.2,0.6 -0.8,1.2 m -3.1,-10.8 h -1.1 v 5.3 H 88 Z m -4.9,2.8 -2.6,-2.9 h -0.1 v 5.4 h 1.1 v -2 c 0,-0.4 0,-0.9 0,-0.9 0,0 0.3,0.5 0.6,0.8 l 1.1,1.2 h 0.1 l 1.1,-1.2 c 0.3,-0.3 0.6,-0.8 0.6,-0.8 0,0 0,0.6 0,0.9 v 2 h 1.1 v -5.4 H 86 Z m 28.4,-18.4 c -0.9,1.4 -1.8,2.1 -3,2.2 v 0 c -2.8,0 -6.1,-4.2 -7.1,-5.8 l -0.6,0.4 -0.6,0.3 c 0.9,1.8 2.9,7.2 1.4,9.5 -0.6,0.9 -1.6,1.3 -3.1,1.3 -1.7,0 -2.8,-0.5 -3.3,-1.5 -0.7,-1.2 -0.7,-3.1 0,-5.5 0.5,-1.9 1.3,-3.5 1.4,-3.7 l -0.6,-0.3 c 0,0 -0.1,0 -0.1,-0.1 l -0.5,-0.3 c -1,1.6 -4.3,5.8 -7.1,5.8 v 0 c -1.1,0 -2.1,-0.7 -3,-2.2 -0.8,-1.3 -0.9,-2.4 -0.5,-3.3 1.3,-2.5 6.9,-3.4 9,-3.5 v -0.7 -0.7 c -2,-0.1 -7.4,-1 -8.8,-3.5 -0.6,-1 -0.4,-2.2 0.4,-3.6 0.7,-1.3 1.6,-2 2.7,-2.1 2.8,-0.1 6.4,4.3 7.5,6 l 0.6,-0.4 c 0.3,-0.2 0.7,-0.4 0.7,-0.4 -0.1,-0.2 -0.9,-1.8 -1.4,-3.7 -0.7,-2.4 -0.7,-4.3 0,-5.5 0.6,-1 1.7,-1.5 3.3,-1.5 1.5,0 2.6,0.4 3.1,1.3 1.5,2.4 -0.5,7.7 -1.4,9.5 l 0.6,0.3 0.6,0.4 c 1.1,-1.7 4.7,-6.1 7.5,-6 1,0 1.9,0.7 2.7,2.1 0.8,1.4 0.9,2.6 0.4,3.6 -1.4,2.5 -6.9,3.4 -8.8,3.5 v 0.7 0.7 c 2.1,0.1 7.7,1 9,3.5 -0.1,0.8 -0.3,1.9 -1,3.2 m -4.2,-7.6 c 2.2,-0.6 4.7,-1.6 5.7,-3.5 0.8,-1.4 0.7,-3.1 -0.4,-5 -1,-1.8 -2.3,-2.7 -3.8,-2.8 -2.2,-0.1 -4.4,1.6 -6,3.3 0.6,-2.3 1,-5.1 -0.2,-6.9 -0.8,-1.3 -2.3,-1.9999996 -4.4,-1.9 -3.3,0.1 -4.5,1.8 -5,3.2 -0.4,1.4 -0.3,3.3 0.3,5.6 -1.6,-1.7 -3.8,-3.3 -5.9,-3.3 -0.1,0 -0.1,0 -0.2,0 -1.6,0.1 -2.9,1 -3.8,2.8 -1,1.9 -1.2,3.6 -0.4,5 1,1.9 3.5,2.9 5.7,3.5 -2.3,0.6 -4.8,1.7 -5.8,3.6 -0.7,1.4 -0.5,3 0.5,4.7 1.1,1.9 2.5,2.8 4.2,2.8 h 0.1 c 2,0 4,-1.5 5.6,-3 -0.6,2.2 -0.7,4.1 -0.3,5.5 0.4,1.4 1.7,3.2 5,3.2 0.1,0 0.1,0 0.2,0 1.9,0 3.3,-0.6 4.2,-1.9 1.1,-1.8 0.8,-4.5 0.2,-6.8 1.5,1.5 3.5,3 5.6,3 h 0.1 c 1.7,0 3.1,-1 4.2,-2.8 1.1,-1.8 1.2,-3.3 0.5,-4.7 -1,-1.9 -3.6,-3 -5.9,-3.6 m 8.8,28.6 v -5.4 h -1 v 2.2 c 0,0.4 0.1,1 0.1,1 0,0 -0.4,-0.5 -0.6,-0.7 l -2.7,-2.5 h -0.1 v 5.4 h 1 v -2.2 c 0,-0.4 -0.1,-1 -0.1,-1 0,0 0.4,0.5 0.6,0.7 l 2.7,2.5 z"
   id="path2"
   inkscape:connector-curvature="0" />
<path
   d="m 39.6,62.609424 c -0.8,0 -1.1,-0.8 -1.1,-2 0,-1.2 0.4,-2 1.1,-2 0.8,0 1.1,0.8 1.1,2 0,1.2 -0.4,2 -1.1,2 m 0,0.7 c 1.2,0 2,-1 2,-2.8 0,-1.8 -0.8,-2.8 -2,-2.8 -1.2,0 -2,1 -2,2.8 0,1.8 0.8,2.8 2,2.8 m -6.6,-0.1 h 3.8 v -0.7 h -1.7 c -0.2,0 -0.5,0 -0.5,0 0,0 0.3,-0.2 0.4,-0.3 l 0.9,-1 c 0.6,-0.6 0.9,-1.2 0.9,-1.8 0,-0.9 -0.6,-1.6 -1.7,-1.6 -1.1,0 -1.7,0.6 -1.9,1.6 l 0.8,0.2 c 0.2,-0.6 0.5,-1 1,-1 0.6,0 0.9,0.4 0.9,0.9 0,0.5 -0.2,0.9 -0.7,1.4 z m -2.5,-0.6 c -0.8,0 -1.1,-0.8 -1.1,-2 0,-1.2 0.4,-2 1.1,-2 0.8,0 1.1,0.8 1.1,2 0,1.2 -0.3,2 -1.1,2 m 0,0.7 c 1.2,0 2,-1 2,-2.8 0,-1.8 -0.8,-2.8 -2,-2.8 -1.2,0 -2,1 -2,2.8 0,1.8 0.8,2.8 2,2.8 m -6.6,-0.1 h 3.8 v -0.7 H 26 c -0.2,0 -0.5,0 -0.5,0 0,0 0.3,-0.2 0.4,-0.3 l 0.9,-1 c 0.6,-0.6 0.9,-1.2 0.9,-1.8 0,-0.9 -0.6,-1.6 -1.7,-1.6 -1.1,0 -1.7,0.6 -1.9,1.6 l 0.8,0.2 c 0.1,-0.6 0.5,-1 1,-1 0.6,0 0.9,0.4 0.9,0.9 0,0.5 -0.2,0.9 -0.7,1.4 z"
   id="path4"
   inkscape:connector-curvature="0" />
<path
   d="M 51.5,55.309424 H 55 v -1 h -2.4 v -4.4 h -1.1 z m -3.6,-0.9 c -1,0 -1.6,-0.8 -1.6,-1.8 0,-1 0.7,-1.8 1.6,-1.8 1,0 1.6,0.8 1.6,1.8 0,1 -0.7,1.8 -1.6,1.8 m 0,1 c 1.5,0 2.8,-1.2 2.8,-2.8 0,-1.6 -1.2,-2.8 -2.8,-2.8 -1.6,0 -2.8,1.2 -2.8,2.8 0,1.6 1.2,2.8 2.8,2.8 m -5.3,0 c 1.1,0 1.8,-0.5 1.8,-1.5 0,-0.9 -0.5,-1.3 -1.5,-1.7 l -0.3,-0.1 c -0.5,-0.2 -0.7,-0.3 -0.7,-0.7 0,-0.3 0.2,-0.5 0.5,-0.5 0.3,0 0.5,0.1 0.7,0.5 l 0.9,-0.6 c -0.4,-0.6 -0.9,-0.9 -1.6,-0.9 -1,0 -1.6,0.6 -1.6,1.5 0,0.9 0.5,1.3 1.3,1.7 l 0.3,0.1 c 0.5,0.2 0.8,0.4 0.8,0.7 0,0.3 -0.3,0.5 -0.8,0.5 -0.5,0 -0.9,-0.3 -1.1,-0.7 l -0.9,0.5 c 0.5,0.7 1.2,1.2 2.2,1.2 m -5.2,-2.8 v -1.7 h 0.8 c 0.5,0 0.9,0.2 0.9,0.8 0,0.6 -0.3,0.8 -0.9,0.8 h -0.8 z m -1.1,2.7 h 1.1 v -1.8 h 0.8 c 1.1,0 2,-0.6 2,-1.8 0,-1.3 -0.9,-1.8 -2,-1.8 h -1.9 z m -4.6,0 h 3.7 v -1 h -2.6 v -1.2 H 35 v -0.9 h -2.2 v -1.2 h 2.5 v -1 h -3.6 z m -3.8,-2.8 v -1.6 h 0.9 c 0.5,0 0.9,0.2 0.9,0.8 0,0.6 -0.3,0.8 -0.9,0.8 z m -1.1,2.8 h 1.1 v -1.8 h 0.7 l 1.1,1.9 H 31 l -1.2,-2 c 0.6,-0.2 1.1,-0.8 1.1,-1.6 0,-1.3 -0.9,-1.8 -2,-1.8 h -2 v 5.3 z m -5.6,0 h 3.5 v -1 h -2.4 v -4.4 h -1.1 z m -3.7,-0.9 c -1,0 -1.6,-0.8 -1.6,-1.8 0,-1 0.7,-1.8 1.6,-1.8 0.9,0 1.6,0.8 1.6,1.8 0,1 -0.6,1.8 -1.6,1.8 m 0,1 c 1.6,0 2.8,-1.2 2.8,-2.8 0,-1.6 -1.2,-2.8 -2.8,-2.8 -1.6,0 -2.8,1.2 -2.8,2.8 0,1.6 1.2,2.8 2.8,2.8 m -5.3,0 c 1.1,0 1.8,-0.5 1.8,-1.5 0,-0.9 -0.5,-1.3 -1.5,-1.7 l -0.3,-0.1 c -0.5,-0.2 -0.7,-0.3 -0.7,-0.7 0,-0.3 0.2,-0.5 0.5,-0.5 0.3,0 0.5,0.1 0.7,0.5 l 0.9,-0.6 c -0.4,-0.6 -0.9,-0.9 -1.6,-0.9 -1,0 -1.6,0.6 -1.6,1.5 0,0.9 0.5,1.3 1.3,1.7 l 0.3,0.1 c 0.5,0.2 0.8,0.4 0.8,0.7 0,0.3 -0.3,0.5 -0.8,0.5 -0.5,0 -0.9,-0.3 -1.1,-0.7 l -0.9,0.5 c 0.5,0.7 1.2,1.2 2.2,1.2"
   id="path6"
   inkscape:connector-curvature="0" />
<path
   d="m 32.8,11.609424 c -2,0 -4.2,0.5 -6.7,1.5 -1.4,0.6 -2.2,1.8 -3.1,3 -0.3,0.3 -0.5,0.7 -0.8,1 -1.9,2.4 -3.1,5.1 -3.6,8 -0.3,1.8 -0.4,3.7 0.8,5.4 l 1.1,1.5 c 1.4,2 2.9,4.1 4.6,5.9 1.8,2.1 4.4,3.3 8.2,3.8 2.8,0.4 5.7,-0.7 7.8,-2.9 4.2,-4.4 6.1,-8.8 5.8,-13.6 v 0 0 c 0.1,-3.3 -0.3,-5.7 -1.5,-7.8 -1.4,-2.6 -3.2,-4.1 -5.5,-4.6 l -0.8,-0.2 c -1.5,-0.4 -3,-0.7 -4.5,-1 -0.5,0 -1.1,0 -1.8,0 m 1.7,31.8 c -0.5,0 -0.9,0 -1.4,-0.1 -4.1,-0.6 -7.1,-2 -9.1,-4.3 -1.7,-1.9 -3.2,-4 -4.6,-6 l -1.1,-1.5 c -1.5,-2.1 -1.4,-4.5 -1.1,-6.5 0.5,-3.2 1.8,-6.1 3.9,-8.7 0.3,-0.3 0.5,-0.7 0.7,-1 1,-1.4 2,-2.8 3.8,-3.5 3.5,-1.5 6.5,-1.8999996 9.3,-1.5 1.6,0.3 3.1,0.6 4.6,1 l 0.8,0.2 c 2.7,0.6 4.8,2.4 6.4,5.4 1.3,2.3 1.8,4.9 1.7,8.5 0.3,5.2 -1.7,10 -6.2,14.7 -2.1,2.1 -4.9,3.3 -7.7,3.3"
   id="path8"
   inkscape:connector-curvature="0" />
</svg>