<?xml version="1.0" encoding="utf-8"?>
<!-- Generator: Adobe Illustrator 25.2.1, SVG Export Plug-In . SVG Version: 6.00 Build 0)  -->
<svg version="1.1" id="Capa_1" xmlns="http://www.w3.org/2000/svg" xmlns:xlink="http://www.w3.org/1999/xlink" x="0px" y="0px"
	 viewBox="0 0 275.3 56.5" style="enable-background:new 0 0 275.3 56.5;" xml:space="preserve">
<path d="M266.9,45.8h-1.2v5.9h1.2V45.8z M260.9,51.7h3.9v-1h-2.7v-4.8h-1.2L260.9,51.7L260.9,51.7z M257,50.7v-1.3h2.4v-1H257V47
	h2.7v-1h-3.9v5.9h4v-1L257,50.7L257,50.7z M253.3,45.8v2.5h-2.6v-2.5h-1.2v5.9h1.2v-2.3h2.6v2.3h1.2v-5.9H253.3z M243.2,48.8
	c0,1.7,1.3,3,3,3c1.1,0,2-0.5,2.5-1.3l-0.9-0.7c-0.3,0.5-0.8,0.9-1.5,0.9c-1,0-1.8-0.9-1.8-1.9c0-1,0.8-1.9,1.8-1.9
	c0.7,0,1.1,0.3,1.4,0.8l0.9-0.7c-0.6-0.9-1.3-1.2-2.4-1.2C244.5,45.7,243.2,47.1,243.2,48.8 M242.2,45.8h-1.2v5.9h1.2V45.8z
	 M236.8,49l-2.9-3.2h-0.1v6h1.1v-2.2c0-0.4,0-1,0-1s0.4,0.5,0.7,0.9l1.1,1.3h0.1l1.1-1.3c0.3-0.3,0.7-0.9,0.7-0.9s0,0.7,0,1v2.2h1.1
	v-6h-0.1L236.8,49z M268,28.9c-0.9,1.6-2,2.4-3.3,2.4l0,0c-3.1,0-6.7-4.6-7.9-6.4l-0.7,0.4l-0.8,0.4c1,2,3.2,7.9,1.5,10.5
	c-0.7,0.9-1.7,1.4-3.4,1.4c-1.8,0-3-0.6-3.7-1.7c-0.8-1.3-0.8-3.4,0-6.1c0.6-2.1,1.4-3.8,1.5-4.1l-0.7-0.4c0,0-0.1,0-0.2-0.1
	l-0.5-0.3c-1.1,1.8-4.7,6.4-7.9,6.4l0,0c-1.2,0-2.4-0.8-3.3-2.4c-0.9-1.4-1-2.7-0.5-3.7c1.4-2.8,7.6-3.7,9.9-3.9l-0.1-0.8v-0.8
	c-2.2-0.1-8.3-1-9.8-3.8c-0.6-1.1-0.5-2.4,0.4-4c0.9-1.5,1.8-2.3,2.9-2.3c3.1-0.1,7,4.7,8.3,6.6l0.6-0.4c0.4-0.2,0.8-0.4,0.8-0.4
	c-0.1-0.3-0.9-2-1.5-4.1c-0.8-2.7-0.8-4.7,0-6.1c0.7-1.1,1.8-1.6,3.7-1.7c1.7,0,2.8,0.4,3.4,1.4c1.7,2.6-0.6,8.4-1.5,10.5l0.7,0.4
	l0.7,0.5c1.2-1.9,5.2-6.7,8.3-6.6c1.1,0.1,2.1,0.8,2.9,2.3c0.9,1.6,1,2.9,0.4,4c-1.5,2.8-7.6,3.7-9.8,3.8v0.8l-0.1,0.8
	c2.3,0.2,8.4,1.1,9.9,3.9C269,26.3,268.8,27.5,268,28.9 M263.4,20.6c2.5-0.7,5.1-1.8,6.3-3.9c0.9-1.6,0.8-3.4-0.4-5.5
	c-1-2-2.5-3-4.3-3.1c-2.4-0.1-4.8,1.8-6.6,3.6c0.7-2.6,1.1-5.6-0.2-7.6c-0.9-1.4-2.6-2.2-4.8-2.1c-3.6,0.1-5,2-5.5,3.6
	s-0.4,3.6,0.3,6.1c-1.8-1.8-4.2-3.6-6.5-3.6c-0.1,0-0.1,0-0.2,0c-1.7,0.1-3.1,1.1-4.3,3.1c-1.1,2.1-1.2,3.9-0.4,5.5
	c1.1,2.1,3.9,3.2,6.3,3.9c-2.6,0.7-5.3,1.8-6.5,4c-0.8,1.5-0.6,3.3,0.6,5.2c1.2,2.1,2.8,3.1,4.6,3.1h0.1c2.3,0,4.5-1.6,6.1-3.3
	c-0.7,2.5-0.8,4.5-0.3,6c0.5,1.6,1.8,3.5,5.5,3.6c0.1,0,0.1,0,0.2,0c2.2,0,3.7-0.8,4.6-2.1c1.2-2,0.9-5,0.2-7.5
	c1.7,1.7,3.9,3.3,6.2,3.3h0.1c1.8,0,3.4-1,4.6-3.1c1.1-1.9,1.3-3.7,0.6-5.2C268.7,22.4,266,21.3,263.4,20.6 M273,51.7v-6h-1.1v2.5
	c0,0.4,0.1,1,0.1,1s-0.4-0.6-0.7-0.8l-2.9-2.8h-0.1v6h1.1v-2.5c0-0.4-0.1-1-0.1-1s0.4,0.6,0.7,0.8L273,51.7L273,51.7z"/>
<path d="M41.3,49.4c0,0.3,0.3,0.6,0.6,0.6h20.2c0.3,0,0.6-0.3,0.6-0.6s-0.3-0.6-0.6-0.6H41.9C41.5,49,41.3,49.1,41.3,49.4
	 M61.2,44.8v-1.3H62v-0.7h-0.9v-1h1.2V41h-2.1v4.5h2.1v-0.7C62.4,44.8,61.2,44.8,61.2,44.8z M58.5,45.4v-3.7h0.8V41h-2.5v0.8h0.8
	v3.7H58.5z M55.1,41v2.8l0,0c-0.1-0.3-0.2-0.6-0.3-0.9L54.1,41h-0.9v4.5h0.7v-3l0,0c0.1,0.2,0.2,0.6,0.3,0.9l0.9,2.2h0.8V41H55.1z
	 M46,33.9c0,0.5,0,1.1,0.1,1.7l0,0c-0.1-0.6-0.3-1.2-0.4-1.7L45.2,32h-1v6.4h0.9v-2c0-0.4,0-1.3-0.1-1.7l0,0
	c0.1,0.6,0.3,1.1,0.5,1.7l0.6,2H47V32h-0.9L46,33.9L46,33.9z M44,41v3c0,0.6-0.1,0.8-0.5,0.8c-0.3,0-0.5-0.2-0.5-0.8v-2.9h-0.9v3
	c0,0.9,0.4,1.4,1.2,1.4c0.9,0,1.2-0.5,1.2-1.4v-3L44,41L44,41z M41.7,35.1c0,1.6-0.1,2.2-0.5,2.2s-0.5-0.6-0.5-2.2s0.1-2.2,0.5-2.2
	C41.6,32.9,41.7,33.4,41.7,35.1 M42.8,35.1c0-2.4-0.5-3.2-1.5-3.2c-1,0-1.5,0.9-1.5,3.2s0.5,3.2,1.5,3.2
	C42.3,38.3,42.8,37.5,42.8,35.1 M47.1,41.7c0.4,0,0.6,0.2,0.6,0.7c0,0.6-0.2,0.8-0.6,0.8h-0.3v-1.4H47.1z M47.1,41h-1v4.5h0.9v-1.6
	h0.3l0.6,1.6h0.9L48,43.6c0.5-0.3,0.6-0.8,0.6-1.2C48.4,41.4,47.9,41,47.1,41 M49.3,36.1c0.1-0.4,0.2-1.4,0.2-1.7
	c0-0.2,0.1-0.5,0.1-0.7l0,0c0,0.3,0,0.5,0.1,0.7c0,0.3,0.2,1.3,0.2,1.7H49.3z M49,31.9l-1,6.4h1l0.2-1.4h0.7l0.2,1.4h1.1l-1-6.4H49z
	 M51.1,43.8h-0.7l0.1-0.4c0.1-0.5,0.2-0.8,0.2-1.4l0,0c0.1,0.7,0.2,0.9,0.2,1.4L51.1,43.8z M52.1,45.4L51.2,41h-0.9l-0.9,4.5h0.8
	l0.2-0.9h0.9l0.2,0.9H52.1z M39.5,43.8l0.1-0.4c0.1-0.5,0.2-0.8,0.2-1.4l0,0c0.1,0.7,0.2,0.9,0.2,1.4l0.1,0.4H39.5z M39.3,44.4h0.9
	l0.2,0.9h0.9l-0.9-4.5h-0.9l-0.9,4.5h0.8L39.3,44.4z M36.4,38.2h2.3v-0.9h-1.1v-5.4h-1.1V38.2z M38.3,48.5c0-0.6,0.2-0.8,0.5-0.8
	c0.4,0,0.5,0.3,0.5,1.2c-0.2,0.2-0.3,0.3-0.6,0.3C38.4,49.1,38.3,49,38.3,48.5 M38.5,49.9c0.3,0,0.6-0.1,0.8-0.4
	c0,0.9-0.1,1.3-0.5,1.3c-0.2,0-0.3-0.2-0.4-0.5l-0.7,0.2c0.1,0.6,0.4,0.9,1,0.9c0.9,0,1.3-0.8,1.3-2.4c0-1.5-0.4-2.2-1.2-2.2
	c-0.9,0-1.2,0.7-1.2,1.5C37.5,49.3,37.8,49.9,38.5,49.9 M36.9,45.4v-3.7h0.8V41h-2.5v0.8h0.8v3.7H36.9z M35.2,50.8h-0.6v0.7h1.9
	v-0.7H36v-3.7h-0.9c-0.1,0.2-0.4,0.3-0.6,0.3v0.8c0.2,0,0.4-0.1,0.6-0.2V50.8z M34,37.3v-2h0.9v-0.9H34v-1.5h1.1v-0.9h-2.3v6.4h2.3
	v-0.9C35.2,37.3,34,37.3,34,37.3z M33.1,45.5c0.8,0,1.2-0.5,1.2-1.1c0-1.2-1.6-1.5-1.6-2.3c0-0.2,0.1-0.4,0.4-0.4
	c0.3,0,0.4,0.3,0.5,0.7l0.8-0.2c-0.2-0.8-0.5-1.2-1.2-1.2s-1.2,0.5-1.2,1.1c0,1.2,1.6,1.5,1.6,2.3c0,0.2-0.1,0.4-0.4,0.4
	c-0.4,0-0.5-0.3-0.6-0.8l-0.8,0.1C31.8,44.9,32.1,45.5,33.1,45.5 M31.7,49.2c0-1.2,0.1-1.6,0.5-1.6c0.4,0,0.5,0.4,0.5,1.6
	s-0.1,1.6-0.5,1.6C31.8,50.9,31.7,50.5,31.7,49.2 M30.8,49.2c0,1.6,0.5,2.3,1.3,2.3c0.9,0,1.3-0.6,1.3-2.3c0-1.6-0.5-2.3-1.3-2.3
	C31.3,47,30.8,47.6,30.8,49.2 M29.9,35.1c0-1.6,0-2.2,0.4-2.2c0.3,0,0.4,0.3,0.4,1.4h1c0-1.9-0.4-2.5-1.4-2.5s-1.5,0.9-1.5,3.2
	s0.5,3.2,1.5,3.2c1.2,0,1.4-1,1.4-2.4h-1c0,1.1-0.1,1.4-0.4,1.4C29.9,37.3,29.9,36.7,29.9,35.1 M28.7,45.4h2.1v-0.7h-1.3v-1.3h0.9
	v-0.7h-0.9v-1h1.2V41h-2.1L28.7,45.4L28.7,45.4z M27.3,51.4L27.3,51.4l2.4,0.1v-0.7h-1.4c0-0.9,1.4-1.2,1.4-2.7c0-0.7-0.4-1.1-1-1.1
	c-0.8,0-1.1,0.5-1.2,1.3l0.8,0.1c0.1-0.6,0.3-0.7,0.5-0.7c0.2,0,0.4,0.2,0.4,0.5C28.8,49.4,27.3,49.2,27.3,51.4 M26.4,34
	c0,0.9-0.2,1.2-0.5,1.2h-0.2v-2.3H26C26.3,32.9,26.4,33.1,26.4,34 M27.7,38.2L27,35.6c0.4-0.3,0.6-0.8,0.6-1.7c0-1.4-0.7-2-1.5-2
	h-1.3v6.4h1V36H26l0.6,2.3C26.5,38.2,27.7,38.2,27.7,38.2z M25.9,43.2v-1.4h0.3c0.4,0,0.6,0.2,0.6,0.7c0,0.6-0.2,0.8-0.6,0.8H25.9z
	 M25.9,43.8h0.3l0.6,1.6h0.9l-0.7-1.8c0.5-0.3,0.6-0.8,0.6-1.2c0-1-0.5-1.4-1.3-1.4h-1v4.5H26L25.9,43.8L25.9,43.8z M5.1,49.4
	c0,0.3,0.3,0.6,0.6,0.6h19.9c0.3,0,0.6-0.3,0.6-0.6s-0.3-0.6-0.6-0.6H5.7C5.4,49,5.1,49.1,5.1,49.4 M20.5,43.2v-1.4h0.3
	c0.4,0,0.6,0.2,0.6,0.7c0,0.6-0.2,0.8-0.6,0.8H20.5z M20.5,45.4v-1.6h0.3l0.6,1.6h0.9l-0.7-1.8c0.5-0.3,0.6-0.8,0.6-1.2
	c0-1-0.5-1.4-1.3-1.4h-1v4.5H20.5z M21.6,36.1c0.1-0.4,0.2-1.4,0.2-1.7c0-0.2,0.1-0.5,0.1-0.7l0,0c0,0.3,0,0.5,0.1,0.7
	c0,0.3,0.2,1.3,0.2,1.7H21.6z M21.4,31.9l-1,6.4h1l0.2-1.4h0.7l0.2,1.4h1.1l-1-6.4H21.4z M18.3,36.4c0,0.8-0.2,1-0.5,1h-0.2v-2h0.2
	C18.1,35.4,18.3,35.6,18.3,36.4 M18.2,33.8c0,0.8-0.2,0.9-0.5,0.9h-0.2v-1.7h0.2C18,32.9,18.2,33,18.2,33.8 M18.6,35L18.6,35
	c0.4-0.2,0.7-0.5,0.7-1.5c0-1.2-0.7-1.6-1.5-1.6h-1.2v6.4h1.3c0.9,0,1.5-0.5,1.5-1.7C19.4,35.5,19,35.2,18.6,35 M17,41.7
	c0.4,0,0.6,0.5,0.6,1.5c0,1-0.2,1.5-0.6,1.5c-0.4,0-0.6-0.5-0.6-1.5C16.5,42.2,16.7,41.7,17,41.7 M17,41c-0.9,0-1.4,0.7-1.4,2.3
	s0.6,2.3,1.4,2.3c0.9,0,1.4-0.7,1.4-2.3S17.9,41,17,41 M13.6,41v3.3c0,0.4-0.1,0.5-0.4,0.5c-0.2,0-0.4-0.1-0.5-0.2l-0.3,0.7
	c0.2,0.1,0.5,0.3,0.9,0.3c0.7,0,1-0.3,1-1.1v-3.3L13.6,41L13.6,41z M10.4,44.8v-1.3h0.9v-0.7h-0.9v-1h1.2V41H9.6v4.5h2.1v-0.7
	C11.6,44.8,10.4,44.8,10.4,44.8z M6.1,41h-1v4.5h0.7v-3.1l0,0c0,0.3,0.1,0.8,0.2,1l0.4,2.1h0.6l0.4-2c0.1-0.4,0.2-0.7,0.2-1.1l0,0
	v3.1h0.8V41H7.3l-0.6,3.1l0,0L6.1,41z M13,6.6c-1,0.8-2.7,0.9-2.7,2.5C9.7,11.3,11.5,24.8,9,24c-2,0-1.1-6-1.2-7.9
	C7.7,14,8.4,8.4,6.8,7.5C6,7.1,4.8,6.9,4.9,5.9C5,4.9,4.5,3.2,6,3.3c2.1,0,4.3,0,6.4,0c0.6,0.1,0.9,0.4,0.9,0.9
	C13.1,5,13.4,6.1,13,6.6 M13.9,4.2c0-0.9-0.7-1.4-1.5-1.6c-0.3-0.1-4.7-0.3-6.9,0C4.5,2.7,4.1,3.3,4.1,4.1c0.1,1-0.4,2.4,0.5,3.1
	C5.9,8.2,7,8.3,7,10c0.1,4.4-0.1,8.8,0.1,13.2c0.2,0.9,0.9,1.5,1.8,1.5c1,0,1.7-0.5,2-1.4c0.3-4.4,0-8.7,0.1-13.2
	c-0.3-2.4,1-1.9,2.5-3C14.3,6.5,13.8,5.2,13.9,4.2 M14.7,23.2c-0.2,0.5-0.6,0.8-1.1,0.8c-2.4,0.1-0.9-5.7-1.3-7.3
	c0-2.1-0.1-4.3,0.1-6.4c0.4-1.6,2.8-0.9,2.5,0.7C14.8,15.1,15.1,19.3,14.7,23.2 M13.4,8.7c-0.7,0.1-1.2,0.4-1.5,1
	c-0.6,4.2,0,8.6-0.2,12.9c-0.2,2.1,2.7,2.9,3.7,1.3c0.8-2.3,0.2-4.8,0.4-7.2C15.2,14.4,17,8.6,13.4,8.7 M32.9,14
	c-0.2,0.4-0.3-0.2-0.3-0.4C32.7,12.4,33,13.5,32.9,14 M33.6,14.3c0.8-1.8-1.4-3.2-1.7-0.8C31.8,14.6,33,15.5,33.6,14.3 M35.8,16.6
	c-0.7,1.5-3.4-0.2-3.8,1.6c-0.6,1.6,0.6,4.2,2.4,2.5c2.8-0.9,0.8,3.8-1.5,3.4c-3.1-0.4-3.7-4.6-3.9-7.1c0.1-2.7,0.5-5.1,2.3-7
	c1.8-1.7,3.9,0.2,4.4,2.2C36,13.6,36.4,15.2,35.8,16.6 M28.1,22.6c0,0.8-0.4,1.6-1.2,1.5c-3,0.6,0.6-13-2.8-10.8
	c-1.3,1.9,0.9,10.6-1.5,10.8c-2.6,0.2-0.3-8.8-1.6-10.7c-2.5-2.3-1.2,8.1-1.5,9.2c0.3,1.5-1.9,2.2-2.4,0.8c-0.3-2.2,0-4.4-0.1-6.5
	c0.1-2.2-0.3-4.5,0.2-6.6c0.3-0.9,1.7-0.9,2,0c0.2,0.5,0.4,0.5,0.9,0.3c3.2-2.6,2.7,1.4,3.9,0.4c1.6-2.3,4-1.2,4.2,1.3
	C28.1,15.6,28,19.1,28.1,22.6 M36.6,16.9c1.9-6.6-4.9-12.8-7.8-3.8c0.3-2.9-2.5-6-5.1-3.3c-0.2,0.2-0.2,0.2-0.4,0
	c-0.9-1.4-2.4-1.1-3.5-0.3c-0.2,0.1-0.3,0.1-0.4-0.1c-0.8-1.1-2.6-0.9-3.1,0.3c-0.6,2.3-0.1,4.7-0.3,7c0.4,2.2-1.3,7.8,1.9,8.1
	c1,0,1.8-0.5,2-1.4c0.4-3-0.3-6.4,0.3-9.4c0.8,3.1-0.3,6.6,0.5,9.8c0.4,0.7,0.9,1,1.6,1c3.7,0,1-8.4,2.2-10.8
	c0.5,2.8,0.1,5.9,0.2,8.7c-0.3,2,2.8,3,3.8,1c0.5-0.9,0.1-2.2,0.3-3.1c0.9,3.6,4.8,6.3,7.3,2.3c1.2-1.5-0.5-4.3-2.3-2.7
	c-1,1-1.4-0.9-1.1-1.7C33.4,17.5,35.7,18.9,36.6,16.9 M43.8,14c-0.1,1.8,0.1,4-0.9,5.6c-1-1.4-1.2-10.7,0.1-11.3
	C43.7,10.2,43.7,12.1,43.8,14 M43.8,19.8c1-3,0.8-6.4,0.5-9.6c0-1.2-0.9-4.2-2.3-2.1c-0.7,1.9-0.7,3.9-0.7,6
	C41.4,15.4,41.3,22.4,43.8,19.8 M61.9,23.2c-0.3,1.3-2.4,1.1-3.1,0.3c-1.9-1.9-1.1-4.8-1.3-7.2c0-1.3,0-2.6,0-3.9
	c-0.3-0.9-1.5-0.7-0.9-2.2c0.1-0.6,1-0.5,1-1.1c0.3-1.4-0.9-4.4,1.2-4.6c2.6,0,0.3,4.6,1.7,5c1,0.1,1.3,0.9,1,1.7
	c-0.2,0.9-1.8,0.5-1.5,1.7c0.4,2.3-1.1,8,1.4,8.8C61.9,21.9,61.9,22.6,61.9,23.2 M55.4,16.7c0,2.1,0,4.1,0,6.2
	c-0.1,1.3-2,1.6-2.4,0.4c-0.5-1.1-0.9,0.5-2.3,0.8c-3.9,0.6-1.7-10.5-2.2-13.1c0-0.8,0.4-1.5,1.2-1.5c2.8-0.2,0.4,8.8,1.6,10.7
	c0.7,0.9,1.7,0,1.6-0.9c0-2.8,0-5.8,0-8.6c0.1-0.9,0.9-1.4,1.8-1C56,10.6,55.1,14.9,55.4,16.7 M42.6,24.1c-4-1.1-3.9-6.6-4.1-10.1
	c0-3.5,0.8-12,6.1-9.6C48.4,7,48.8,24.3,42.6,24.1 M62.4,21.7c-0.6-1-1.9-0.6-1.7-2.4c0-2.2,0-4.3,0-6.5c0-0.2,0-0.3,0.2-0.3
	c0.9-0.3,1.4-0.9,1.4-1.9c0-1.9-1.5-1.5-1.6-2.3c0-1,0.1-2.1,0-3c-0.2-2.1-3.4-2.2-3.9-0.3c-0.4,1.2,0.3,2.8-0.3,4
	c-0.3,0.1-0.6,0.8-0.8,0.5C55,8.4,53,8.4,52.3,9.7c-0.9,3.2,0.3,6.8-0.5,10.1c-1-2.4,1.3-10.5-1.8-11c-1-0.2-1.7,0.4-2.3,1.1
	c-0.5-2.1-0.9-4.4-2.7-5.8c-5.2-3.5-7.6,4.6-7.3,8.6c0,3.8-0.1,8.3,2.7,11.1c3.6,3.1,6.6-1.3,7.2-4.6c-0.2,2.9,0.7,7.5,4.6,4.9
	c0.2-0.1,0.2-0.2,0.4,0c4.5,3,3.5-3.9,3.5-6.5c0-1.8,0-3.6,0-5.4c0.1-0.2,0.4,0.2,0.6,0.3c0.7,3.9-1.9,12.5,4.4,12.2
	C62.5,24.6,63.1,23,62.4,21.7 M62.7,28.5c0-0.3-0.3-0.6-0.6-0.6H5.7c-0.3,0-0.6,0.3-0.6,0.6c0,0.3,0.3,0.6,0.6,0.6h56.4
	C62.4,29,62.7,28.8,62.7,28.5"/>
<path d="M85.5,5.3h0.9V4.9h-2.1v0.4h0.9v3.3h0.4C85.5,8.6,85.5,5.3,85.5,5.3z M89.1,8.6h0.4V4.9h-0.4v1.5h-1.9V4.9h-0.4v3.7h0.4V6.8
	h1.9V8.6z M89.6,9.8v3.7h-4.5V9.8h-0.9v8.7h0.9v-4.2h4.5v4.2h0.9V9.8H89.6z M90.9,23v-2.5h1.2c0.5,0,0.9,0,1,0.1s0.4,0.2,0.5,0.4
	c0.1,0.2,0.2,0.4,0.2,0.7c0,0.3-0.1,0.5-0.2,0.7s-0.3,0.4-0.6,0.5c-0.2,0.1-0.6,0.1-1,0.1L90.9,23z M90.9,26.9v-3.3h0.4l2.6,3.3h0.9
	l-2.6-3.3c0.6,0,1-0.1,1.4-0.2c0.4-0.2,0.6-0.4,0.8-0.7c0.2-0.3,0.3-0.7,0.3-1c0-0.5-0.1-0.9-0.4-1.1s-0.6-0.6-1-0.7
	c-0.3-0.1-0.9-0.1-1.6-0.1h-1.4V27L90.9,26.9L90.9,26.9z M107.7,33.1h-2.8l1.4-3L107.7,33.1z M108,33.9l1.3,2.8h0.9l-3.9-8.3h-0.2
	l-4,8.3h0.9l1.3-2.8H108z M110,38h-0.9l-0.3,0.5h0.8v4.2h0.5V38z M112.5,32v-2.8h1.5c0.6,0,0.9,0.1,1.2,0.2s0.5,0.3,0.6,0.5
	c0.2,0.2,0.2,0.5,0.2,0.8s-0.1,0.6-0.2,0.8c-0.2,0.2-0.4,0.4-0.7,0.5c-0.3,0.1-0.7,0.2-1.2,0.2H112.5z M112.5,36.6v-3.9h0.5l3,3.9h1
	l-3-3.9c0.7,0,1.2-0.1,1.6-0.3c0.4-0.2,0.7-0.5,0.9-0.8c0.2-0.4,0.3-0.8,0.3-1.2c0-0.6-0.2-1-0.5-1.4c-0.3-0.4-0.8-0.7-1.2-0.8
	c-0.3-0.1-0.9-0.1-1.9-0.1h-1.7v8.3L112.5,36.6L112.5,36.6z M117.1,23v-2.5h1.2c0.5,0,0.9,0,1,0.1s0.4,0.2,0.5,0.4
	c0.1,0.2,0.2,0.4,0.2,0.7c0,0.3-0.1,0.5-0.2,0.7s-0.3,0.4-0.6,0.5c-0.2,0.1-0.6,0.1-1,0.1L117.1,23z M117.1,26.9v-3.3h0.4l2.6,3.3
	h0.9l-2.6-3.3c0.6,0,1-0.1,1.4-0.2c0.4-0.2,0.6-0.4,0.8-0.7c0.2-0.3,0.3-0.7,0.3-1c0-0.5-0.1-0.9-0.4-1.1s-0.6-0.6-1-0.7
	c-0.3-0.1-0.9-0.1-1.6-0.1h-1.4V27L117.1,26.9L117.1,26.9z M114.4,18.5h4.2v-0.9h-3.3V9.8h-0.9V18.5z M110.9,26.9h4.1v-0.7h-3.3
	v-2.8h3.3v-0.7h-3.3v-2.3h3.4v-0.7H111L110.9,26.9L110.9,26.9z M107.9,18.5h4.9v-0.9h-4.1v-3.4h4.1v-0.9h-4.1v-2.8h4.1V9.8h-5
	L107.9,18.5L107.9,18.5z M105.7,23v-2.5h1.2c0.5,0,0.9,0,1,0.1c0.2,0.1,0.4,0.2,0.5,0.4s0.2,0.4,0.2,0.7c0,0.3-0.1,0.5-0.2,0.7
	s-0.3,0.4-0.6,0.5c-0.2,0.1-0.6,0.1-1,0.1L105.7,23z M105.7,26.9v-3.3h0.5c0.9,0,1.5,0,1.8-0.1c0.5-0.1,0.8-0.3,1-0.7
	c0.3-0.3,0.4-0.7,0.4-1.1c0-0.5-0.1-0.9-0.4-1.1s-0.6-0.5-1-0.7c-0.3-0.1-0.9-0.1-1.6-0.1h-1.4V27L105.7,26.9L105.7,26.9z
	 M101.2,26.1c-0.5,0.3-0.9,0.4-1.5,0.4c-0.9,0-1.5-0.3-2.2-0.9c-0.6-0.6-0.9-1.3-0.9-2.2c0-0.6,0.1-1.1,0.4-1.6
	c0.3-0.5,0.7-0.9,1.1-1.1s0.9-0.4,1.5-0.4c0.6,0,1,0.1,1.5,0.4c0.5,0.3,0.9,0.7,1.1,1.1c0.3,0.5,0.4,0.9,0.4,1.5
	c0,0.6-0.1,1.1-0.4,1.5C102.1,25.4,101.7,25.8,101.2,26.1 M99.7,27.1c1,0,1.9-0.4,2.7-1.1c0.8-0.8,1.1-1.6,1.1-2.7
	c0-1-0.4-2-1.1-2.7c-0.8-0.8-1.6-1-2.8-1c-0.7,0-1.3,0.2-1.9,0.5c-0.6,0.4-1,0.8-1.3,1.4c-0.4,0.6-0.5,1.2-0.5,1.9
	c0,1,0.4,1.9,1.1,2.7C97.7,26.8,98.7,27.1,99.7,27.1 M101.1,42.7h3.1v-0.5h-2.2l1.1-1.2c0.4-0.4,0.6-0.7,0.8-0.9
	c0.1-0.2,0.2-0.5,0.2-0.8c0-0.4-0.1-0.7-0.4-0.9c-0.3-0.3-0.6-0.4-1-0.4s-0.8,0.2-1.1,0.5c-0.3,0.3-0.5,0.7-0.5,1.1h0.5
	c0-0.4,0.1-0.7,0.4-0.9c0.2-0.2,0.5-0.3,0.8-0.3s0.6,0.1,0.8,0.3c0.2,0.2,0.3,0.4,0.3,0.7c0,0.2-0.1,0.4-0.2,0.6s-0.4,0.5-0.7,0.9
	L101.1,42.7z M99.8,36.6l2.4-8.3h-0.9l-1.7,6.1l-2.4-6.1H97l-2.4,6.1L93,28.3h-0.9l2.4,8.3h0.2l2.6-6.4L99.8,36.6L99.8,36.6z
	 M90.7,5.3h1.8V4.9h-2.2v3.7h2.1V8.3h-1.7V6.8h1.7V6.5h-1.7C90.7,6.5,90.7,5.3,90.7,5.3z M94.4,8.6h0.4V4.9h-0.4V8.6z M98.5,8.6
	L98.5,8.6l0.1-3.7h-0.4v2.8l-2.5-2.8h-0.1v3.7H96V5.8L98.5,8.6z M100.2,5.3h0.9V4.9h-2.1v0.4h0.9v3.3h0.4
	C100.2,8.6,100.2,5.3,100.2,5.3z M100.5,14.1c0,0.7-0.2,1.3-0.5,1.9c-0.3,0.6-0.8,1-1.3,1.3c-0.6,0.3-1.2,0.5-1.9,0.5
	c-1,0-1.9-0.4-2.6-1c-0.8-0.8-1-1.6-1-2.7c0-0.7,0.2-1.3,0.5-1.9s0.8-1,1.3-1.3c0.6-0.4,1.2-0.5,1.8-0.5c0.7,0,1.2,0.2,1.9,0.5
	c0.6,0.4,1,0.8,1.3,1.3C100.3,12.8,100.5,13.5,100.5,14.1 M100,17.4c0.9-0.9,1.3-2,1.3-3.2c0-1.3-0.5-2.4-1.3-3.2
	c-0.9-0.9-2-1.3-3.3-1.3c-0.9,0-1.6,0.2-2.3,0.6c-0.7,0.4-1.2,0.9-1.6,1.7c-0.4,0.8-0.6,1.5-0.6,2.4c0,1.2,0.5,2.3,1.3,3.2
	c0.9,0.9,2,1.3,3.2,1.3C98,18.7,99.1,18.3,100,17.4 M101.9,5.3h1.8V4.9h-2.2v3.7h2.1V8.3h-1.7V6.8h1.7V6.5h-1.7
	C101.9,6.5,101.9,5.3,101.9,5.3z M105.2,6.6h-0.7V5.3h0.7c0.3,0,0.5,0,0.6,0.1c0.1,0,0.2,0.1,0.3,0.2c0.1,0.1,0.1,0.2,0.1,0.4
	c0,0.1,0,0.3-0.1,0.4c-0.1,0.1-0.2,0.2-0.3,0.2C105.7,6.6,105.5,6.6,105.2,6.6 M106.6,8.6l-1.3-1.7c0.3,0,0.6,0,0.8-0.1
	c0.2-0.1,0.3-0.2,0.4-0.4s0.2-0.3,0.2-0.6c0-0.3-0.1-0.5-0.2-0.6c-0.1-0.2-0.3-0.3-0.6-0.3c-0.2,0-0.5-0.1-0.9-0.1h-0.8v3.7h0.4V6.9
	h0.2l1.3,1.7H106.6z M104.9,10.6h1.9V9.8h-4.7v0.9h1.9v7.9h0.9L104.9,10.6L104.9,10.6z M110.1,8.6L110.1,8.6l0.1-3.7h-0.4v2.8
	l-2.5-2.8h-0.1v3.7h0.4V5.8L110.1,8.6z M113.1,7h-1.2l0.7-1.3L113.1,7z M114.2,8.6l-1.7-3.7h-0.1l-1.7,3.7h0.4l0.6-1.2h1.6l0.6,1.2
	H114.2z M115.3,5.3h0.9V4.9h-2.1v0.4h0.9v3.3h0.4C115.3,8.6,115.3,5.3,115.3,5.3z M116.6,8.6h0.4V4.9h-0.4V8.6z M121,6.7
	c0,0.3-0.1,0.6-0.2,0.9c-0.1,0.3-0.3,0.5-0.6,0.6c-0.3,0.1-0.5,0.2-0.8,0.2c-0.5,0-0.8-0.2-1.1-0.5c-0.3-0.3-0.5-0.7-0.5-1.1
	c0-0.3,0.1-0.6,0.2-0.9s0.3-0.5,0.6-0.6c0.3-0.2,0.5-0.2,0.8-0.2s0.6,0.1,0.8,0.2c0.3,0.2,0.5,0.4,0.6,0.6C121,6.2,121,6.5,121,6.7
	 M120.8,8.2c0.4-0.4,0.6-0.9,0.6-1.4s-0.2-1-0.6-1.4c-0.4-0.3-0.9-0.5-1.4-0.5c-0.4,0-0.7,0.1-0.9,0.3s-0.6,0.4-0.7,0.8
	c-0.2,0.3-0.3,0.7-0.3,0.9c0,0.6,0.2,0.9,0.6,1.3c0.4,0.4,0.9,0.6,1.4,0.6S120.5,8.5,120.8,8.2 M124,26.9v-6.5h1.6v-0.7h-3.9v0.7
	h1.6v6.5H124z M124.9,8.6L124.9,8.6l0.1-3.7h-0.4v2.8l-2.5-2.8h-0.1v3.7h0.4V5.8L124.9,8.6z M128,7h-1.2l0.7-1.3L128,7z M128.7,8.6
	h0.4l-1.7-3.7h-0.1l-1.8,3.7h0.4l0.6-1.2h1.6L128.7,8.6z M129.6,8.6h1.8V8.3H130V4.9h-0.4V8.6z M127.2,34.6l-0.8,0.5
	c0.4,0.7,0.8,1.1,1.1,1.3c0.4,0.3,0.9,0.4,1.4,0.4c0.7,0,1.2-0.2,1.7-0.7c0.5-0.5,0.7-0.9,0.7-1.6c0-0.4-0.1-0.9-0.4-1.2
	c-0.3-0.4-0.8-0.9-1.5-1.4c-0.6-0.5-0.9-0.8-1-0.9c-0.2-0.2-0.4-0.4-0.4-0.6c-0.1-0.2-0.1-0.4-0.1-0.6c0-0.3,0.1-0.6,0.3-0.8
	c0.2-0.2,0.5-0.3,0.9-0.3c0.3,0,0.5,0.1,0.8,0.2c0.2,0.1,0.5,0.4,0.8,0.9l0.7-0.5c-0.4-0.6-0.8-0.9-1.1-1s-0.8-0.3-1.1-0.3
	s-0.8,0.1-1,0.3c-0.3,0.2-0.6,0.4-0.8,0.7c-0.2,0.3-0.3,0.7-0.3,1c0,0.5,0.2,0.9,0.5,1.3c0.2,0.2,0.6,0.7,1.3,1.1
	c0.7,0.6,1.1,0.9,1.4,1.3c0.2,0.3,0.3,0.6,0.3,0.9c0,0.3-0.1,0.5-0.2,0.7c-0.1,0.2-0.3,0.4-0.6,0.6c-0.3,0.1-0.5,0.2-0.8,0.2
	C128.2,36.1,127.7,35.6,127.2,34.6 M126.9,19.8h-0.8l2.3,3.7v3.4h0.7v-3.4l2.3-3.7h-0.9l-1.8,2.9L126.9,19.8z M124.5,16.7
	c0-0.3,0.1-0.6,0.4-0.9c0.2-0.3,0.8-0.8,1.4-1.3c0.3,0.4,0.6,0.7,0.8,0.9l1.3,1.4c-0.6,0.5-1.1,0.9-1.6,1c-0.3,0.1-0.6,0.2-0.9,0.2
	s-0.8-0.1-1-0.4C124.6,17.3,124.5,17,124.5,16.7 M126.3,13.3c-0.4-0.4-0.7-0.8-0.9-1.1c-0.1-0.1-0.1-0.3-0.1-0.5
	c0-0.2,0.1-0.4,0.3-0.6c0.2-0.2,0.5-0.2,0.8-0.2s0.6,0.1,0.8,0.2c0.2,0.2,0.3,0.3,0.3,0.5s-0.1,0.4-0.2,0.6
	C127.1,12.6,126.8,12.9,126.3,13.3 M124.3,18.1c0.4,0.4,0.9,0.6,1.6,0.6c0.5,0,0.9-0.1,1.4-0.3c0.5-0.2,1-0.6,1.8-1.1l1.1,1.2h1.2
	c-0.2-0.3-0.5-0.6-0.8-0.9c-0.4-0.4-0.7-0.7-0.9-0.9c0.4-0.3,0.7-0.6,1-0.9l-0.6-0.7c-0.3,0.3-0.7,0.6-1.1,0.9l-0.9-0.9l-1.3-1.4
	c0.6-0.5,1-0.9,1.2-1.2c0.2-0.3,0.3-0.7,0.3-0.9c0-0.3-0.1-0.6-0.3-0.8c-0.2-0.3-0.4-0.5-0.7-0.6c-0.3-0.2-0.7-0.2-0.9-0.2
	c-0.6,0-1,0.2-1.4,0.5c-0.4,0.3-0.5,0.7-0.5,1c0,0.3,0.1,0.5,0.2,0.8c0.1,0.3,0.5,0.7,0.9,1.2c-0.9,0.7-1.4,1.2-1.7,1.6
	c-0.3,0.5-0.4,0.9-0.4,1.3C123.6,17.3,123.8,17.7,124.3,18.1 M122.8,35.7c-0.5,0.2-1.2,0.2-2.4,0.2h-0.9v-6.7h0.6
	c1.2,0,2.1,0.1,2.6,0.3c0.7,0.2,1.2,0.6,1.6,1.1c0.4,0.6,0.6,1.2,0.6,2.1c0,0.8-0.2,1.4-0.6,2C124,35.1,123.5,35.5,122.8,35.7
	 M121.3,36.6c1,0,1.9-0.2,2.5-0.5c0.6-0.3,1-0.8,1.4-1.4c0.4-0.7,0.6-1.4,0.6-2.2c0-0.9-0.2-1.8-0.7-2.5c-0.5-0.7-1.1-1.2-1.9-1.5
	c-0.6-0.2-1.5-0.3-2.8-0.3h-1.7v8.3H121.3z M120.1,46.1l0.2-1.3c0.5,0,0.8,0,0.9,0.1c0.1,0,0.3,0.1,0.3,0.2c0.1,0.1,0.1,0.2,0.1,0.4
	c0,0.3-0.1,0.5-0.3,0.6C121.1,46,120.8,46.1,120.1,46.1 M119.3,43.7l-0.9,6.1h1.1l0.4-2.7h0.1l1.3,2.7h1.1l-1.3-2.8
	c0.5-0.1,0.9-0.3,1.1-0.7c0.3-0.3,0.4-0.7,0.4-1c0-0.4-0.1-0.7-0.3-0.9c-0.2-0.3-0.4-0.5-0.8-0.6c-0.3-0.1-0.8-0.2-1.3-0.2H119.3z
	 M115.1,43.7l-0.9,6.1h3.3l0.1-1h-2.2l0.2-1.6h2.1l0.1-1h-2.1l0.2-1.2h2.1l0.1-1L115.1,43.7L115.1,43.7z M113.6,39.4
	c0,0.3-0.1,0.5-0.3,0.7c-0.2,0.2-0.4,0.3-0.7,0.3c-0.3,0-0.5-0.1-0.7-0.3s-0.3-0.4-0.3-0.7s0.1-0.5,0.3-0.7c0.2-0.2,0.4-0.3,0.7-0.3
	s0.5,0.1,0.7,0.3S113.6,39.1,113.6,39.4 M113.6,40.7c0.2-0.3,0.4-0.6,0.4-0.8c0.1-0.2,0.1-0.4,0.1-0.6c0-0.3-0.1-0.5-0.2-0.8
	c-0.1-0.2-0.3-0.4-0.5-0.6c-0.2-0.1-0.5-0.2-0.8-0.2s-0.5,0.1-0.8,0.2c-0.2,0.1-0.4,0.3-0.6,0.5c-0.1,0.2-0.2,0.5-0.2,0.8
	c0,0.4,0.1,0.8,0.4,0.9c0.3,0.3,0.6,0.4,0.9,0.4c0.2,0,0.3,0,0.5-0.1l-1.2,1.9l0.4,0.3L113.6,40.7z M109.2,43.7l-0.9,6.1h1l0.6-4.2
	l2.2,4.2h0.9l0.9-6.1h-1l-0.6,4.1l-2.2-4.1H109.2z M107.7,41.6c-0.1,0.3-0.2,0.5-0.4,0.6c-0.2,0.1-0.4,0.2-0.6,0.2s-0.4-0.1-0.6-0.2
	c-0.2-0.1-0.3-0.4-0.4-0.6c-0.1-0.3-0.1-0.7-0.1-1.2c0-0.6,0.1-0.9,0.2-1.2s0.2-0.5,0.4-0.6c0.2-0.1,0.4-0.2,0.6-0.2
	s0.4,0.1,0.6,0.2c0.2,0.1,0.3,0.4,0.5,0.7c0.1,0.3,0.2,0.7,0.2,1.1C107.9,40.9,107.8,41.3,107.7,41.6 M107.5,42.6
	c0.3-0.2,0.5-0.5,0.6-0.8c0.1-0.4,0.2-0.9,0.2-1.4s-0.1-1-0.2-1.4c-0.2-0.4-0.4-0.6-0.6-0.8c-0.3-0.2-0.5-0.3-0.9-0.3
	c-0.3,0-0.6,0.1-0.9,0.3s-0.5,0.5-0.6,0.8c-0.1,0.4-0.2,0.9-0.2,1.4s0.1,1,0.2,1.4c0.1,0.4,0.3,0.6,0.6,0.8s0.5,0.3,0.9,0.3
	S107.3,42.8,107.5,42.6 M103.2,43.7l-0.9,6.1h1l0.6-4.2l2.2,4.2h0.9l0.9-6.1h-1.1l-0.6,4.1l-2.2-4.1H103.2z M101,43.7l-0.9,6.1h1
	l0.9-6.1H101z M94.2,43.7h-1l0.6,6.1h0.9l1.9-4l0.8,4h0.9l2.2-6.1h-1.1L98,47.5l-0.8-3.8h-0.9l-1.8,3.9L94.2,43.7z M86.9,33.1l1.4-3
	l1.4,3H86.9z M88.2,28.3l-4,8.3h0.9l1.3-2.8h3.6l1.3,2.8h0.9l-3.9-8.3H88.2z M84.9,20.5h1.2c0.5,0,0.9,0,1,0.1
	c0.2,0.1,0.4,0.2,0.5,0.4c0.1,0.2,0.2,0.4,0.2,0.7c0,0.3-0.1,0.5-0.2,0.7s-0.3,0.4-0.6,0.5c-0.2,0.1-0.6,0.1-1,0.1h-1.2L84.9,20.5
	L84.9,20.5z M85.6,19.8h-1.4V27h0.8v-3.3h0.5c0.9,0,1.5,0,1.8-0.1c0.5-0.1,0.8-0.3,1-0.7c0.3-0.3,0.4-0.7,0.4-1.1
	c0-0.5-0.1-0.9-0.4-1.1c-0.3-0.3-0.6-0.5-1-0.7C87,19.8,86.4,19.8,85.6,19.8 M133.5,51h-51V2.8h51V51z M134.1,2H81.7v49.8h52.5V2z"
	/>
<g>
	<path d="M214.2,28.2c0.1-0.2,0.1-0.4,0.2-0.6c0-0.1,0.1-0.2,0.1-0.3l0-0.1c0.1-0.5,0.2-1,0.2-1.5c0.1-0.8,0.2-1.5,0.4-2.3
		c0.1-0.4,0.2-0.8,0.3-1.2c0.1-0.3,0.2-0.7,0.3-1c0.3-1.5,0.4-3,0.4-5.1c0-1.5-0.3-2.7-1-3.8c-0.5-0.8-0.9-1.6-1.4-2.5l-0.1-0.1
		c-0.1-0.1-0.2-0.3-0.2-0.4c-0.1-0.2-0.2-0.4-0.4-0.6c-0.6-0.8-1.3-1.6-2-2.3c-0.9-0.8-2-1.7-3.2-2.2c-2.5-1.2-4.8-1.7-7.3-1.6
		c-1.4,0-2.8,0.2-4.2,0.7c-1.6,0.5-3.1,1.4-4.4,2.2c-1.9,1.2-3.5,2.9-4.6,4.8c-0.1-0.2-0.1-0.3-0.2-0.5c-0.1-0.1-0.1-0.3-0.2-0.4
		l0-0.1c-0.3-0.6-0.6-1-1-1.4c-0.1-0.2-0.3-0.3-0.4-0.5c-0.1-0.1-0.2-0.2-0.3-0.4l-1.7-1.8c-0.2-0.2-0.3-0.3-0.6-0.5
		c-0.4-0.3-0.8-0.5-1.2-0.7c-0.6-0.3-1.2-0.4-1.8-0.6l-0.1,0c-0.1,0-0.3-0.1-0.5-0.2c-0.2-0.1-0.5-0.2-0.7-0.2
		c-0.5-0.2-1-0.3-1.4-0.3l-0.2,0c-0.2,0-0.4-0.1-0.7-0.1l-0.1,0c-0.6-0.1-1.3-0.2-1.9-0.4c-0.3-0.1-0.5-0.1-0.6-0.1
		c-1.2-0.2-2.3-0.1-3.5,0l-0.2,0c-0.1,0-0.2,0-0.4,0.1c-0.2,0-0.3,0-0.5,0.1c-0.4,0-0.7,0.1-1,0.2c-0.2,0-0.5,0.1-0.7,0.2
		c-0.2,0-0.3,0.1-0.5,0.1c-0.2,0-0.5,0-0.7,0.1l-1.3,0.4c-0.6,0.2-1.2,0.5-1.8,0.9l-0.3,0.2c-0.6,0.3-1.1,0.7-1.6,1.2
		c-0.4,0.5-0.9,1.1-1.4,1.9c-0.1,0.2-0.2,0.3-0.3,0.5c-0.1,0.2-0.3,0.4-0.4,0.6l-0.9,1.2c-0.3,0.4-0.6,0.8-0.8,1.3l-0.3,0.5l0,0.1
		c-0.2,0.5-0.4,0.9-0.7,1.3c-0.3,0.5-0.5,0.9-0.6,1.3l-0.1,0.3c-0.1,0.4-0.2,0.9-0.3,1.3c-0.1,0.4-0.1,0.8-0.3,1.1
		c-0.1,0.3-0.1,0.6-0.2,0.9c0,0.2-0.1,0.4-0.1,0.6l0,0.1c-0.2,0.8-0.3,1.8-0.3,2.8v0.4l0.1,0.1c0.1,0.7,0.3,1.1,0.4,1.5
		c0.1,0.2,0.2,0.4,0.2,0.6c0.1,0.3,0.3,0.6,0.5,0.9c0.1,0.2,0.2,0.3,0.3,0.5l0.1,0.1c0.1,0.2,0.2,0.3,0.3,0.5
		c0.1,0.1,0.1,0.2,0.2,0.4c0.4,0.7,0.9,1.3,1.3,1.9c0.1,0.1,0.2,0.3,0.4,0.4c0.3,0.4,0.5,0.7,0.8,1c0.1,0.2,0.3,0.3,0.4,0.5
		c0.1,0.1,0.2,0.2,0.3,0.4l0.1,0.1c0.2,0.2,0.3,0.3,0.4,0.5c0.1,0.2,0.2,0.3,0.3,0.4l0,0.1c0.2,0.3,0.4,0.6,0.7,0.9
		c0.2,0.2,0.4,0.5,0.6,0.7l0.1,0.1c0.1,0.1,0.2,0.2,0.3,0.2c0.1,0.1,0.3,0.3,0.4,0.4c0.2,0.2,0.3,0.3,0.5,0.5
		c0.1,0.1,0.2,0.2,0.4,0.3c0.7,0.6,1.4,1,2.2,1.4c0.6,0.3,1.1,0.6,1.7,0.9c0.2,0.1,0.4,0.1,0.5,0.2l0,0l0.7,0.2
		c0.8,0.3,1.5,0.5,2.2,0.7c0.1,0,0.3,0.1,0.4,0.1c0.1,0,0.2,0.1,0.4,0.1c0.5,0.1,1,0.2,1.6,0.2c0.8,0,1.5-0.1,1.9-0.2
		c0.7-0.2,1.3-0.4,1.9-0.7l0.3-0.1c0.5-0.1,0.9-0.3,1.3-0.5c0.1,0,0.2-0.1,0.3-0.1l0.1,0c0.9-0.2,1.6-0.7,2.1-1.1
		c0.5-0.4,1.1-0.8,1.6-1.3c0.3-0.3,0.6-0.6,1-1.1c0.1-0.2,0.3-0.4,0.4-0.6c0.1-0.2,0.2-0.3,0.3-0.5l0.1-0.1c0.1-0.1,0.2-0.3,0.3-0.4
		c0.2-0.3,0.4-0.6,0.6-0.9c0.2-0.3,0.3-0.5,0.5-0.8c0.2-0.3,0.3-0.5,0.5-0.8c0.1-0.2,0.3-0.4,0.4-0.6c0,0,0,0.1,0,0.1
		c0.4,1.2,0.8,2.2,1.4,3.1c0.4,0.6,0.8,1.2,1.3,1.8c0.1,0.2,0.3,0.4,0.4,0.5c0.5,0.7,1.2,1.3,2,1.7c1.7,0.8,3.5,1.3,5.3,1.7
		c0.7,0.1,1.4,0.2,2.1,0.2c0.6,0,1.1,0,1.7,0c0.5,0,1,0,1.5,0c1.3,0,2.6-0.3,3.9-1c1.9-0.9,3.6-2.2,5-3.9c0.9-1.1,1.8-2.2,2.7-3.3
		c0.4-0.4,0.6-0.9,0.7-1.3L214.2,28.2z M213.7,20.8c-0.1,0.3-0.1,0.6-0.2,0.9c-0.1,0.4-0.2,0.9-0.3,1.3c-0.2,0.9-0.3,1.7-0.4,2.4
		c-0.1,0.5-0.1,0.9-0.2,1.4c0,0.1-0.1,0.2-0.1,0.3c0,0.1-0.1,0.2-0.1,0.3l-0.1,0.2c-0.1,0.3-0.2,0.6-0.4,0.7l-0.1,0.1
		c-0.8,1.1-1.7,2.2-2.6,3.3c-1.2,1.4-2.7,2.6-4.3,3.4c-1,0.5-2,0.8-3,0.8c-0.5,0-1,0-1.6,0c-0.5,0-1,0-1.6,0c-0.6,0-1.2-0.1-1.8-0.1
		c-1.6-0.3-3.3-0.8-4.8-1.5c-0.5-0.2-0.9-0.6-1.2-1.1c-0.1-0.2-0.3-0.4-0.5-0.6c-0.4-0.5-0.8-1-1.1-1.6c-0.5-0.7-0.8-1.6-1.2-2.6
		c-0.2-0.7-0.5-1.4-0.7-2.2l-0.7-2.6l-1.1,2.5c-0.2,0.4-0.3,0.7-0.5,0.9l-0.1,0.1c-0.2,0.4-0.5,0.8-0.8,1.4
		c-0.2,0.3-0.3,0.5-0.5,0.8c-0.2,0.3-0.3,0.5-0.5,0.9c-0.1,0.2-0.2,0.4-0.4,0.6c-0.1,0.2-0.3,0.4-0.4,0.6c-0.1,0.2-0.2,0.3-0.4,0.5
		c-0.1,0.2-0.2,0.3-0.3,0.4c-0.3,0.4-0.6,0.7-0.9,0.9l-0.1,0.1c-0.3,0.4-0.8,0.7-1.2,1c-0.5,0.3-0.9,0.6-1.4,0.8H178l-0.2,0.1
		c-0.2,0.1-0.3,0.2-0.5,0.2c-0.4,0.2-0.7,0.3-1.1,0.4l-0.5,0.2c-0.6,0.2-1,0.5-1.5,0.6c-1,0.2-2,0.2-2.5,0c-0.1,0-0.3-0.1-0.4-0.1
		c-0.1,0-0.2-0.1-0.4-0.1c-0.7-0.2-1.4-0.4-2.1-0.7l-0.5-0.2c-0.2-0.1-0.3-0.1-0.4-0.1l-0.1,0c-0.5-0.2-1-0.5-1.6-0.8l-0.1,0
		c-0.6-0.3-1.2-0.6-1.7-1.1c-0.1-0.1-0.2-0.2-0.3-0.2c-0.1-0.1-0.3-0.3-0.4-0.4c-0.2-0.2-0.3-0.3-0.5-0.5c-0.1-0.1-0.2-0.2-0.3-0.2
		c-0.2-0.3-0.4-0.5-0.6-0.7c-0.2-0.2-0.4-0.4-0.6-0.7c-0.1-0.2-0.2-0.3-0.3-0.4l0,0c-0.2-0.2-0.3-0.5-0.6-0.8
		c-0.1-0.2-0.2-0.3-0.4-0.4c-0.1-0.1-0.2-0.2-0.3-0.4c-0.2-0.3-0.5-0.6-0.8-1c-0.1-0.2-0.2-0.3-0.4-0.5c-0.4-0.5-0.8-1.1-1.1-1.6
		c-0.1-0.2-0.2-0.3-0.3-0.5c-0.1-0.1-0.1-0.2-0.2-0.3c-0.1-0.3-0.3-0.6-0.4-0.8c-0.1-0.2-0.2-0.3-0.2-0.5c-0.1-0.3-0.2-0.5-0.3-0.7
		c-0.1-0.3-0.2-0.6-0.3-0.9c0-0.2,0-0.4-0.1-0.5c0-0.8,0.1-1.5,0.2-2.2c0.1-0.3,0.1-0.6,0.2-0.8c0-0.2,0.1-0.4,0.1-0.6
		c0.1-0.4,0.2-0.9,0.3-1.3c0.1-0.4,0.1-0.8,0.2-1.1l0.1-0.3c0.1-0.3,0.2-0.5,0.3-0.8c0.3-0.5,0.6-1,0.8-1.5l0.3-0.5
		c0.2-0.4,0.5-0.8,0.7-1.1l0.9-1.2l0.1-0.1c0.1-0.2,0.2-0.3,0.3-0.5c0.2-0.2,0.3-0.4,0.4-0.6c0.5-0.7,0.9-1.2,1.3-1.7
		c0.3-0.3,0.7-0.6,1.1-0.8l0.4-0.2c0.5-0.3,0.9-0.6,1.3-0.7l1.4-0.5l0.1,0c0,0,0.1,0,0.1,0l0.2,0c0.2,0,0.5-0.1,0.7-0.2
		c0.2-0.1,0.4-0.1,0.6-0.2c0.3-0.1,0.5-0.1,0.7-0.1l0.2,0c0.1,0,0.2,0,0.4-0.1c0.2,0,0.3,0,0.5-0.1c1.1-0.1,2-0.1,3,0l0.3,0.1
		c0.7,0.2,1.4,0.3,2.2,0.4c0.3,0.1,0.7,0.2,1,0.2c0.4,0.1,0.8,0.1,1.1,0.2l0.2,0.1c0.1,0,0.3,0.1,0.5,0.2c0.2,0.1,0.5,0.2,0.8,0.2
		c0.5,0.1,1,0.3,1.5,0.5c0.3,0.1,0.6,0.3,0.9,0.5l0.2,0.1c0,0,0.1,0.1,0.1,0.1l1.6,1.6c0.1,0.2,0.2,0.3,0.4,0.4
		c0.1,0.1,0.2,0.2,0.3,0.4c0.3,0.4,0.6,0.7,0.7,1.1c0.1,0.2,0.1,0.3,0.2,0.5c0.1,0.2,0.2,0.4,0.3,0.7l0,0.1c0.3,0.6,0.5,1.1,0.6,1.6
		l0.8,2.8l1.1-3c0-0.1,0.1-0.2,0.1-0.3c1-2.3,2.6-4.1,4.7-5.5c1.4-0.9,2.6-1.6,3.9-2c1.2-0.4,2.5-0.6,3.7-0.6
		c2.2-0.1,4.2,0.4,6.4,1.4c1,0.4,1.8,1.1,2.6,1.9c0.6,0.6,1.2,1.2,1.8,2c0.1,0.1,0.2,0.3,0.2,0.4c0.1,0.2,0.2,0.4,0.3,0.6
		c0.5,0.8,0.9,1.7,1.4,2.5l0,0c0.5,0.8,0.7,1.7,0.7,2.8C214.1,18,214,19.4,213.7,20.8z"/>
	<polygon points="171.4,45.7 170.2,45.7 170.2,51.6 174.1,51.6 174.1,50.5 171.4,50.5 	"/>
	<path d="M166.2,45.7c-1.7,0-3,1.3-3,3c0,1.7,1.3,3,3,3c1.7,0,3-1.3,3-3C169.2,46.9,167.9,45.7,166.2,45.7z M166.2,50.6
		c-1.1,0-1.8-0.8-1.8-1.9c0-1.1,0.7-1.9,1.8-1.9c1.1,0,1.8,0.8,1.8,1.9C168,49.8,167.3,50.6,166.2,50.6z"/>
	<polygon points="176.2,49.2 178.5,49.2 178.5,48.1 176.2,48.1 176.2,46.8 178.8,46.8 178.8,45.7 175,45.7 175,51.6 179,51.6 
		179,50.5 176.2,50.5 	"/>
	<path d="M209.8,45.7c-1.7,0-3,1.3-3,3c0,1.7,1.3,3,3,3c1.7,0,3-1.3,3-3C212.8,46.9,211.5,45.7,209.8,45.7z M209.8,50.6
		c-1.1,0-1.8-0.8-1.8-1.9c0-1.1,0.7-1.9,1.8-1.9s1.8,0.8,1.8,1.9C211.6,49.8,210.9,50.6,209.8,50.6z"/>
	<path d="M160.9,48.1l-0.3-0.1c-0.5-0.2-0.7-0.4-0.7-0.7c0-0.3,0.2-0.5,0.6-0.5c0.3,0,0.6,0.1,0.8,0.5l0.9-0.6c-0.4-0.7-0.9-1-1.7-1
		c-1.1,0-1.8,0.7-1.8,1.6c0,1,0.6,1.4,1.4,1.8l0.3,0.1c0.6,0.2,0.9,0.4,0.9,0.8c0,0.3-0.3,0.6-0.8,0.6c-0.6,0-0.9-0.3-1.2-0.7
		l-1,0.6c0.4,0.7,1.1,1.2,2.2,1.2c1.1,0,2-0.6,2-1.7C162.5,49,161.9,48.5,160.9,48.1z"/>
	<path d="M154.6,49.5c0.7-0.7,1-1.3,1-1.9c0-1.1-0.7-1.9-2-1.9c-1.2,0-1.9,0.7-2.2,1.8l1.2,0.2c0.2-0.6,0.4-0.9,1-0.9
		c0.5,0,0.8,0.4,0.8,0.8c0,0.4-0.2,0.8-0.8,1.4l-2.3,2.5v0.1h4.3v-1.1h-1.6c-0.2,0-0.5,0-0.5,0s0.3-0.2,0.4-0.3L154.6,49.5z"/>
	<path d="M199.3,45.7h-2v5.8h1.2v-1.9h0.9c1.2,0,2.2-0.6,2.2-2C201.5,46.3,200.5,45.7,199.3,45.7z M199.3,48.6h-0.8v-1.8h0.8
		c0.6,0,1,0.2,1,0.9C200.3,48.3,199.9,48.6,199.3,48.6z"/>
	<polygon points="193.4,49.2 195.8,49.2 195.8,48.1 193.4,48.1 193.4,46.8 196.1,46.8 196.1,45.7 192.2,45.7 192.2,51.6 196.2,51.6 
		196.2,50.5 193.4,50.5 	"/>
	<path d="M204.5,48.1l-0.3-0.1c-0.5-0.2-0.7-0.4-0.7-0.7c0-0.3,0.2-0.5,0.6-0.5c0.3,0,0.6,0.1,0.8,0.5l0.9-0.6c-0.4-0.7-0.9-1-1.7-1
		c-1.1,0-1.8,0.7-1.8,1.6c0,1,0.6,1.4,1.4,1.8l0.3,0.1c0.5,0.2,0.9,0.4,0.9,0.8c0,0.3-0.3,0.6-0.8,0.6c-0.6,0-0.9-0.3-1.2-0.7
		l-1,0.6c0.4,0.7,1.1,1.2,2.2,1.2c1.1,0,2-0.6,2-1.7C206.1,49,205.5,48.5,204.5,48.1z"/>
	<path d="M191.2,47.7c0-1.4-1-1.9-2.2-1.9h-2.2v5.8h1.2v-2h0.8l1.2,2h1.4l-1.3-2.2C190.8,49.1,191.2,48.5,191.2,47.7z M189,48.5
		h-0.9v-1.7h0.9c0.6,0,1,0.2,1,0.9C190,48.3,189.6,48.5,189,48.5z"/>
	<path d="M182.2,48.1l-0.3-0.1c-0.5-0.2-0.7-0.4-0.7-0.7c0-0.3,0.2-0.5,0.6-0.5c0.3,0,0.6,0.1,0.8,0.5l0.9-0.6c-0.4-0.7-0.9-1-1.7-1
		c-1.1,0-1.8,0.7-1.8,1.6c0,1,0.6,1.4,1.4,1.8l0.3,0.1c0.6,0.2,0.9,0.4,0.9,0.8c0,0.3-0.3,0.6-0.8,0.6c-0.6,0-0.9-0.3-1.2-0.7
		l-1,0.6c0.4,0.7,1.1,1.2,2.2,1.2c1.1,0,2-0.6,2-1.7C183.8,49,183.2,48.5,182.2,48.1z"/>
	<polygon points="215,50.5 215,45.7 213.8,45.7 213.8,51.6 217.6,51.6 217.6,50.5 	"/>
</g>
</svg>
