<?xml version="1.0" encoding="utf-8"?>
<!-- Generator: Adobe Illustrator 23.0.1, SVG Export Plug-In . SVG Version: 6.00 Build 0)  -->
<svg version="1.1" id="Capa_1" xmlns="http://www.w3.org/2000/svg" xmlns:xlink="http://www.w3.org/1999/xlink" x="0px" y="0px"
	 viewBox="0 0 84.38 84.38" style="enable-background:new 0 0 84.38 84.38;" xml:space="preserve">
<style type="text/css">
	.st0{fill:#010202;}
</style>
<path class="st0" d="M28.06,38.8h28.49c0.19-2.37-0.44-4.55-0.94-6.26c-0.1-0.32-0.19-0.63-0.26-0.91c-0.47-1.74-1.76-4.96-2.4-6.55
	H31.72c-0.64,1.61-1.92,4.89-2.42,6.58l-0.2,0.64C28.55,34.07,27.85,36.33,28.06,38.8 M56.08,46.88c-2.57,2.85-6.99,4.57-12.26,4.85
	v7.56h9.98c0.83,0,1.51,0.67,1.51,1.5c0,0.83-0.67,1.51-1.51,1.51H30.83c-0.83,0-1.51-0.67-1.51-1.51c0-0.83,0.67-1.5,1.51-1.5h9.98
	v-7.57c-5.1-0.31-9.79-2.13-12.23-4.84c-5.32-5.91-3.39-12.13-2.35-15.46l0.19-0.62c0.73-2.42,2.8-7.57,2.89-7.79
	c0.23-0.57,0.78-0.94,1.4-0.94h23.25c0.61,0,1.15,0.36,1.39,0.92c0.09,0.22,2.22,5.31,2.91,7.84c0.07,0.26,0.16,0.55,0.25,0.85
	C59.47,34.98,61.27,41.11,56.08,46.88 M79.62,42.19c0-20.6-16.7-37.31-37.31-37.31C21.7,4.88,5,21.58,5,42.19S21.7,79.5,42.31,79.5
	C62.91,79.5,79.62,62.79,79.62,42.19"/>
</svg>
