<?xml version="1.0" encoding="utf-8"?>
<!-- Generator: Adobe Illustrator 23.0.1, SVG Export Plug-In . SVG Version: 6.00 Build 0)  -->
<svg version="1.1" id="Capa_1" xmlns="http://www.w3.org/2000/svg" xmlns:xlink="http://www.w3.org/1999/xlink" x="0px" y="0px"
	 viewBox="0 0 48 48" style="enable-background:new 0 0 48 48;" xml:space="preserve">
<style type="text/css">
	.st0{fill:#564B45;}
	.st1{fill:#FFFFFF;}
</style>
<path class="st0" d="M24,43.35c10.69,0,19.35-8.66,19.35-19.35c0-10.69-8.67-19.35-19.35-19.35S4.65,13.31,4.65,24
	C4.65,34.69,13.31,43.35,24,43.35"/>
<g>
	<path class="st1" d="M16.84,19.67h5.73v1.57h-3.95v1.98h3.47v1.53h-3.47v2.01h4.12v1.57h-5.9V19.67z"/>
	<path class="st1" d="M24.97,26.62l1.45-0.84c0.38,0.62,0.88,1.08,1.76,1.08c0.74,0,1.21-0.37,1.21-0.88c0-0.61-0.48-0.83-1.3-1.18
		l-0.45-0.19c-1.29-0.55-2.14-1.23-2.14-2.69c0-1.34,1.02-2.35,2.61-2.35c1.13,0,1.95,0.39,2.53,1.42l-1.39,0.89
		c-0.31-0.55-0.64-0.76-1.15-0.76c-0.52,0-0.85,0.33-0.85,0.76c0,0.53,0.33,0.75,1.09,1.08l0.45,0.19c1.51,0.65,2.37,1.31,2.37,2.8
		c0,1.6-1.26,2.48-2.95,2.48C26.56,28.43,25.49,27.65,24.97,26.62z"/>
</g>
</svg>
