<?xml version="1.0" encoding="utf-8"?>
<!-- Generator: Adobe Illustrator 23.0.1, SVG Export Plug-In . SVG Version: 6.00 Build 0)  -->
<svg version="1.1" id="Capa_1" xmlns="http://www.w3.org/2000/svg" xmlns:xlink="http://www.w3.org/1999/xlink" x="0px" y="0px"
	 viewBox="0 0 84.38 84.38" style="enable-background:new 0 0 84.38 84.38;" xml:space="preserve">
<style type="text/css">
	.st0{fill:#010202;}
</style>
<path class="st0" d="M34.25,31.87h15.57c-0.01-0.06-0.02-0.1-0.02-0.11l-1.44-7.72l-12.54,0l-1.56,7.72
	C34.26,31.77,34.26,31.81,34.25,31.87 M50.71,43.73c-2.63,3.3-5.03,4.28-7.14,4.54v14.38h6.15c0.85,0,1.54,0.69,1.54,1.54
	c0,0.85-0.69,1.54-1.54,1.54h-15.4c-0.85,0-1.54-0.69-1.54-1.54c0-0.85,0.69-1.54,1.54-1.54h6.18V48.27
	c-2.1-0.27-4.51-1.25-7.13-4.54c-3.6-4.52-2.18-12.22-2.12-12.55c0,0,0-0.01,0-0.01l1.81-8.97c0.15-0.72,0.78-1.24,1.51-1.24h0
	l15.08,0c0.74,0,1.38,0.53,1.51,1.26l1.67,8.97C52.89,31.51,54.31,39.21,50.71,43.73 M79.34,43.34c0-20.6-16.7-37.31-37.31-37.31
	c-20.61,0-37.31,16.7-37.31,37.31s16.7,37.31,37.31,37.31C62.64,80.65,79.34,63.95,79.34,43.34"/>
</svg>
