<?xml version="1.0" encoding="utf-8"?>
<!-- Generator: Adobe Illustrator 23.0.1, SVG Export Plug-In . SVG Version: 6.00 Build 0)  -->
<svg version="1.1" id="Capa_1" xmlns="http://www.w3.org/2000/svg" xmlns:xlink="http://www.w3.org/1999/xlink" x="0px" y="0px"
	 viewBox="0 0 305.8 99.73" style="enable-background:new 0 0 305.8 99.73;" xml:space="preserve">
<path d="M210.26,72.21l-23.19-47.58l-23.09,47.58H210.26z M187.36,0.97l48.07,97.79h-12.31l-8.04-16.39h-55.93l-8.14,16.39H138.7
	l48.07-97.79H187.36z M250.82,2c-4.93,0-8.92,3.99-8.92,8.92s3.99,8.92,8.92,8.92s8.92-3.99,8.92-8.92S255.74,2,250.82,2
	 M304.03,2.69h-11.3v96.07h11.3V2.69z M1.77,0.97v97.79h2.81h5.28h3.23V32.53l38.82,47.02l38.75-46.91v66.11h3.3h5.28h2.77V0.97
	h-0.51l-49.6,60.87L2.32,0.97H1.77z"/>
</svg>
