<?xml version="1.0" encoding="UTF-8" standalone="no"?>
<!-- Generator: Adobe Illustrator 23.0.1, SVG Export Plug-In . SVG Version: 6.00 Build 0)  -->

<svg
   version="1.1"
   id="Capa_1"
   x="0px"
   y="0px"
   viewBox="0 0 477.89 151.28"
   style="enable-background:new 0 0 477.89 151.28;"
   xml:space="preserve"
   sodipodi:docname="logo-aurt-white-web.svg"
   inkscape:version="1.1.1 (3bf5ae0d25, 2021-09-20)"
   xmlns:inkscape="http://www.inkscape.org/namespaces/inkscape"
   xmlns:sodipodi="http://sodipodi.sourceforge.net/DTD/sodipodi-0.dtd"
   xmlns="http://www.w3.org/2000/svg"
   xmlns:svg="http://www.w3.org/2000/svg"><defs
   id="defs7" /><sodipodi:namedview
   id="namedview5"
   pagecolor="#ffffff"
   bordercolor="#666666"
   borderopacity="1.0"
   inkscape:pageshadow="2"
   inkscape:pageopacity="0.0"
   inkscape:pagecheckerboard="0"
   showgrid="false"
   inkscape:zoom="1"
   inkscape:cx="332.5"
   inkscape:cy="76"
   inkscape:window-width="1680"
   inkscape:window-height="973"
   inkscape:window-x="1600"
   inkscape:window-y="40"
   inkscape:window-maximized="1"
   inkscape:current-layer="Capa_1" />
<g
   id="g875"><g
     id="g868"><g
       id="g862"><g
         id="g857"><g
           id="g853"><path
             d="m 474.55,5.13 v 17.92 h -39.06 v 78.06 H 415.88 V 23.05 H 376.82 V 5.13 Z M 308.43,57.71 H 288.2 V 22.73 h 20.24 c 13.49,0 22.59,4.65 22.59,17.57 -0.01,13.07 -8.95,17.41 -22.6,17.41 M 350.94,40.3 c 0,-24.21 -18.2,-35.17 -40.78,-35.17 h -41.41 v 95.98 H 288.2 V 75.3 h 19.61 l 19.87,25.8 h 22.88 L 328.67,71.91 C 341.84,66.43 350.94,57.25 350.94,40.3 M 204.38,5.35 h 19.61 v 53.37 c 0,26.64 -14.9,44.23 -43.29,44.23 -28.55,0 -43.45,-17.59 -43.45,-44.23 V 5.35 h 19.61 v 52.08 c 0,16.14 8,26.96 23.84,26.96 15.69,0 23.69,-10.82 23.69,-26.96 V 5.35 Z M 56.93,40.96 72.6,71.73 H 41.25 Z m 0,-37.61 -1.71,3.11 -51.88,94.65 h 22.59 l 6.68,-12.47 h 48.62 l 6.68,12.47 H 110.5 L 58.63,6.47 Z m 114.89,135.4 c 0,5.33 -4.32,9.65 -9.65,9.65 -5.33,0 -9.65,-4.32 -9.65,-9.65 0,-5.33 4.32,-9.65 9.65,-9.65 5.33,0 9.65,4.32 9.65,9.65 m 27.23,-9.65 c -5.33,0 -9.65,4.32 -9.65,9.65 0,5.33 4.32,9.65 9.65,9.65 5.33,0 9.65,-4.32 9.65,-9.65 0,-5.33 -4.32,-9.65 -9.65,-9.65"
             id="path2"
             style="fill:#ffffff" /></g></g></g></g></g>
</svg>
