<?xml version="1.0" encoding="utf-8"?>
<!-- Generator: Adobe Illustrator 23.0.1, SVG Export Plug-In . SVG Version: 6.00 Build 0)  -->
<svg version="1.1" id="Capa_1" xmlns="http://www.w3.org/2000/svg" xmlns:xlink="http://www.w3.org/1999/xlink" x="0px" y="0px"
	 viewBox="0 0 84.38 84.38" style="enable-background:new 0 0 84.38 84.38;" xml:space="preserve">
<style type="text/css">
	.st0{fill:#010202;}
</style>
<path class="st0" d="M56.64,63.43c0,0.78-0.63,1.4-1.4,1.4c-0.77,0-1.4-0.63-1.4-1.4V44.06h-2.41c-2.43,0-4.13-2.16-4.13-5.25
	c0-17.18,6.88-19.08,7.66-19.23c0.41-0.09,0.84,0.02,1.17,0.29c0.33,0.27,0.51,0.67,0.51,1.09V63.43z M41.31,36.18
	c0,1.49-0.95,3.71-3.57,3.71h-1.69v23.53c0,0.78-0.63,1.4-1.4,1.4c-0.77,0-1.4-0.63-1.4-1.4V39.89h-1.69
	c-1.44,0-3.57-0.99-3.57-3.71V21.5c0-0.77,0.63-1.4,1.4-1.4c0.77,0,1.4,0.63,1.4,1.4v11.09h1.15V21.15c0-0.58,0.47-1.05,1.05-1.05
	c0.58,0,1.05,0.47,1.05,1.05v11.44h1.21V21.15c0-0.58,0.47-1.05,1.05-1.05s1.05,0.47,1.05,1.05v11.44h1.15V21.5
	c0-0.77,0.63-1.4,1.4-1.4c0.77,0,1.4,0.63,1.4,1.4V36.18z M79.62,42.19c0-20.61-16.7-37.31-37.31-37.31C21.7,4.88,5,21.58,5,42.19
	C5,62.79,21.7,79.5,42.31,79.5C62.91,79.5,79.62,62.79,79.62,42.19"/>
</svg>
