<?xml version="1.0" encoding="UTF-8" standalone="no"?>
<!-- Created with Inkscape (http://www.inkscape.org/) -->

<svg
   xmlns:dc="http://purl.org/dc/elements/1.1/"
   xmlns:cc="http://creativecommons.org/ns#"
   xmlns:rdf="http://www.w3.org/1999/02/22-rdf-syntax-ns#"
   xmlns:svg="http://www.w3.org/2000/svg"
   xmlns="http://www.w3.org/2000/svg"
   xmlns:sodipodi="http://sodipodi.sourceforge.net/DTD/sodipodi-0.dtd"
   xmlns:inkscape="http://www.inkscape.org/namespaces/inkscape"
   width="81.328003"
   height="26.999887"
   viewBox="0 0 21.518034 7.1437204"
   version="1.1"
   id="svg4391"
   inkscape:version="0.92.5 (2060ec1f9f, 2020-04-08)"
   sodipodi:docname="pack-2.svg">
  <defs
     id="defs4385">
    <clipPath
       clipPathUnits="userSpaceOnUse"
       id="clipPath346">
      <path
         d="M 0,0 H 595.276 V 841.89 H 0 Z"
         id="path344"
         inkscape:connector-curvature="0" />
    </clipPath>
  </defs>
  <sodipodi:namedview
     id="base"
     pagecolor="#ffffff"
     bordercolor="#666666"
     borderopacity="1.0"
     inkscape:pageopacity="0.0"
     inkscape:pageshadow="2"
     inkscape:zoom="8"
     inkscape:cx="40.413113"
     inkscape:cy="12.999775"
     inkscape:document-units="mm"
     inkscape:current-layer="layer1"
     showgrid="false"
     units="px"
     fit-margin-top="3.5"
     fit-margin-bottom="3.5"
     fit-margin-left="1.5"
     fit-margin-right="1.5"
     inkscape:window-width="1680"
     inkscape:window-height="965"
     inkscape:window-x="0"
     inkscape:window-y="48"
     inkscape:window-maximized="1" />
  <metadata
     id="metadata4388">
    <rdf:RDF>
      <cc:Work
         rdf:about="">
        <dc:format>image/svg+xml</dc:format>
        <dc:type
           rdf:resource="http://purl.org/dc/dcmitype/StillImage" />
        <dc:title></dc:title>
      </cc:Work>
    </rdf:RDF>
  </metadata>
  <g
     inkscape:label="Capa 1"
     inkscape:groupmode="layer"
     id="layer1"
     transform="translate(421.24116,90.59567)">
    <g
       id="g2484"
       transform="matrix(0.67811071,0,0,-0.67811071,-587.62304,79.099854)">
      <g
         id="g340">
        <g
           clip-path="url(#clipPath346)"
           id="g342">
          <g
             transform="translate(276.1063,245.7563)"
             id="g348">
            <path
               inkscape:connector-curvature="0"
               id="path350"
               style="fill:#aaa5a2;fill-opacity:1;fill-rule:nonzero;stroke:none"
               d="M 0,0 V 2.488 C 0,2.84 -0.285,3.125 -0.638,3.125 h -8.317 c -0.352,0 -0.637,-0.285 -0.637,-0.637 V 0.004 c 0.198,0.103 0.422,0.162 0.661,0.162 h 0.372 V 0.99 c 0,0.205 0.166,0.372 0.372,0.372 h 2.77 c 0.205,0 0.372,-0.167 0.372,-0.372 V 0.166 h 0.498 V 0.99 c 0,0.205 0.167,0.372 0.372,0.372 h 2.77 c 0.205,0 0.372,-0.167 0.372,-0.372 V 0.166 h 0.362 C -0.429,0.166 -0.201,0.105 0,0" />
          </g>
          <g
             transform="translate(276.508,241.0784)"
             id="g352">
            <path
               inkscape:connector-curvature="0"
               id="path354"
               style="fill:#aaa5a2;fill-opacity:1;fill-rule:nonzero;stroke:none"
               d="m 0,0 v 3.323 c 0,0.602 -0.488,1.09 -1.089,1.09 h -8.217 c -0.602,0 -1.09,-0.488 -1.09,-1.09 V 0 h 1.435 v 0.229 c 0,0.206 0.167,0.372 0.372,0.372 h 6.782 c 0.206,0 0.372,-0.166 0.372,-0.372 V 0 Z" />
          </g>
          <g
             transform="translate(246.9225,242.6851)"
             id="g356">
            <path
               inkscape:connector-curvature="0"
               id="path358"
               style="fill:#aaa5a2;fill-opacity:1;fill-rule:nonzero;stroke:none"
               d="m 0,0 h 10.515 c 0,2.904 -2.354,5.257 -5.258,5.257 C 2.354,5.257 0,2.904 0,0" />
          </g>
          <g
             transform="translate(252.18,247.8229)"
             id="g360">
            <path
               inkscape:connector-curvature="0"
               id="path362"
               style="fill:#aaa5a2;fill-opacity:1;fill-rule:nonzero;stroke:none"
               d="M 0,0 C 0.292,0 0.529,0.237 0.529,0.53 0.529,0.822 0.292,1.059 0,1.059 -0.292,1.059 -0.53,0.822 -0.53,0.53 -0.53,0.237 -0.292,0 0,0" />
          </g>
        </g>
      </g>
      <g
         transform="translate(245.9462,242.1667)"
         id="g364">
        <path
           inkscape:connector-curvature="0"
           id="path366"
           style="fill:#aaa5a2;fill-opacity:1;fill-rule:nonzero;stroke:none"
           d="M 0,0 1.127,-1.059 H 11.341 L 12.468,0 Z" />
      </g>
      <g
         transform="translate(263.552,245.3966)"
         id="g368">
        <path
           inkscape:connector-curvature="0"
           id="path370"
           style="fill:#aaa5a2;fill-opacity:1;fill-rule:nonzero;stroke:none"
           d="M 0,0 H -1.631 V 1.631 H -2.464 V 0 h -1.631 v -0.833 h 1.631 v -1.631 h 0.833 v 1.631 H 0 Z" />
      </g>
    </g>
  </g>
</svg>
