<?xml version="1.0" encoding="utf-8"?>
<!-- Generator: Adobe Illustrator 23.0.1, SVG Export Plug-In . SVG Version: 6.00 Build 0)  -->
<svg version="1.1" id="Capa_1" xmlns="http://www.w3.org/2000/svg" xmlns:xlink="http://www.w3.org/1999/xlink" x="0px" y="0px"
	 viewBox="0 0 84.4 84.4" style="enable-background:new 0 0 84.4 84.4;" xml:space="preserve">
<style type="text/css">
	.st0{clip-path:url(#SVGID_2_);}
	.st1{clip-path:url(#SVGID_2_);fill:#FFFFFF;}
</style>
<g>
	<defs>
		<rect id="SVGID_1_" x="5" y="4.9" width="74.6" height="74.6"/>
	</defs>
	<clipPath id="SVGID_2_">
		<use xlink:href="#SVGID_1_"  style="overflow:visible;"/>
	</clipPath>
	<path class="st0" d="M42.3,79.5c20.6,0,37.3-16.7,37.3-37.3S62.9,4.9,42.3,4.9S5,21.6,5,42.2S21.7,79.5,42.3,79.5"/>
	<path class="st1" d="M37.6,43.4V30h6c4.2,0,7.2,1.8,7.2,6.7c0,4.8-2.8,6.7-7.2,6.7H37.6z M28.8,65.3h8.9V51.2h6.3
		c8.7,0,16-4.4,16-14.5c0-10.1-7.2-14.4-16-14.4H28.8V65.3z"/>
</g>
</svg>
