<?xml version="1.0" encoding="utf-8"?>
<!-- Generator: Adobe Illustrator 23.0.1, SVG Export Plug-In . SVG Version: 6.00 Build 0)  -->
<svg version="1.1" id="Capa_1" xmlns="http://www.w3.org/2000/svg" xmlns:xlink="http://www.w3.org/1999/xlink" x="0px" y="0px"
	 viewBox="0 0 122.5 122.5" style="enable-background:new 0 0 122.5 122.5;" xml:space="preserve">
<style type="text/css">
	.st0{fill:#CEC7C1;}
	.st1{fill:#FFFFFF;}
</style>
<g>
	<path class="st0" d="M61.2,122.1c33.6,0,60.9-27.2,60.9-60.9S94.9,0.4,61.2,0.4S0.4,27.6,0.4,61.2S27.6,122.1,61.2,122.1"/>
</g>
<path class="st1" d="M110.5,67h0.2V57h-1.9v4.1c0,0.7,0.1,1.8,0.1,1.8s-0.7-0.9-1.2-1.4l-5-4.7h-0.2v10h1.9v-4.1
	c0-0.7-0.1-1.8-0.1-1.8s0.7,0.9,1.2,1.4L110.5,67z M95,65.2c-1.8,0-3-1.4-3-3.3c0-1.8,1.2-3.3,3-3.3c1.8,0,3,1.4,3,3.3
	C98,63.8,96.8,65.2,95,65.2 M95,67.1c2.9,0,5.1-2.2,5.1-5.1c0-2.9-2.3-5.1-5.1-5.1c-2.9,0-5.1,2.2-5.1,5.1
	C89.9,64.9,92.2,67.1,95,67.1 M85.4,66.9h2V57h-2V66.9z M78.2,66.9h2v-8.1h2.8V57h-7.7v1.8h2.8V66.9z M69.4,63.9l0.6-1.5
	c0.3-0.7,0.6-1.7,0.6-1.8c0,0.1,0.3,1.1,0.6,1.8l0.6,1.5H69.4z M66.2,66.9h2l0.6-1.3h3.8l0.6,1.3h2.1l-4.5-10h-0.2L66.2,66.9z
	 M62.2,67h0.2l4.3-10h-2l-1.7,3.8c-0.4,0.8-0.7,2.2-0.8,2.2c0-0.1-0.4-1.4-0.8-2.2L59.9,57h-2.2L62.2,67z M51.1,61.8v-3h1.6
	c1,0,1.6,0.4,1.6,1.5c0,1.1-0.6,1.5-1.6,1.5H51.1z M49,66.9h2v-3.4h1.3l2,3.4h2.3l-2.3-3.7c1.1-0.5,1.9-1.4,1.9-2.9
	c0-2.3-1.7-3.3-3.7-3.3H49V66.9z M39.6,66.9h6.8v-1.8h-4.7v-2.3h4v-1.7h-4v-2.3h4.5V57h-6.5V66.9z M33.9,67.1c1.9,0,3.4-1,3.4-2.8
	c0-1.7-1-2.5-2.7-3.2l-0.5-0.2c-0.9-0.4-1.3-0.6-1.3-1.2c0-0.5,0.4-0.9,1-0.9c0.6,0,1,0.2,1.3,0.9l1.6-1c-0.7-1.2-1.6-1.6-2.9-1.6
	c-1.8,0-3,1.2-3,2.7c0,1.7,1,2.4,2.4,3.1l0.5,0.2c0.9,0.4,1.5,0.7,1.5,1.4c0,0.6-0.5,1-1.4,1c-1,0-1.6-0.5-2-1.2l-1.7,1
	C30.8,66.2,32.1,67.1,33.9,67.1 M21.6,66.9h6.8v-1.8h-4.7v-2.3h4v-1.7h-4v-2.3h4.5V57h-6.5V66.9z M13.8,61.8v-3h1.6
	c1,0,1.6,0.4,1.6,1.5c0,1.1-0.6,1.5-1.6,1.5H13.8z M11.8,66.9h2v-3.4h1.3l2,3.4h2.3l-2.3-3.7c1.1-0.5,1.9-1.4,1.9-2.9
	c0-2.3-1.7-3.3-3.7-3.3h-3.7V66.9z"/>
</svg>
