<?xml version="1.0" encoding="UTF-8" standalone="no"?>
<!-- Generator: Adobe Illustrator 24.0.1, SVG Export Plug-In . SVG Version: 6.00 Build 0)  -->

<svg
   xmlns:dc="http://purl.org/dc/elements/1.1/"
   xmlns:cc="http://creativecommons.org/ns#"
   xmlns:rdf="http://www.w3.org/1999/02/22-rdf-syntax-ns#"
   xmlns:svg="http://www.w3.org/2000/svg"
   xmlns="http://www.w3.org/2000/svg"
   xmlns:sodipodi="http://sodipodi.sourceforge.net/DTD/sodipodi-0.dtd"
   xmlns:inkscape="http://www.inkscape.org/namespaces/inkscape"
   version="1.1"
   id="Capa_1"
   x="0px"
   y="0px"
   viewBox="0 0 86.275003 63.499998"
   xml:space="preserve"
   sodipodi:docname="slow-food.svg"
   width="86.275002"
   height="63.5"
   inkscape:version="0.92.5 (2060ec1f9f, 2020-04-08)"><metadata
   id="metadata29"><rdf:RDF><cc:Work
       rdf:about=""><dc:format>image/svg+xml</dc:format><dc:type
         rdf:resource="http://purl.org/dc/dcmitype/StillImage" /><dc:title></dc:title></cc:Work></rdf:RDF></metadata><defs
   id="defs27" /><sodipodi:namedview
   pagecolor="#ffffff"
   bordercolor="#666666"
   borderopacity="1"
   objecttolerance="10"
   gridtolerance="10"
   guidetolerance="10"
   inkscape:pageopacity="0"
   inkscape:pageshadow="2"
   inkscape:window-width="1680"
   inkscape:window-height="965"
   id="namedview25"
   showgrid="false"
   fit-margin-top="10"
   fit-margin-left="10"
   fit-margin-right="10"
   fit-margin-bottom="10"
   inkscape:zoom="1"
   inkscape:cx="44.124994"
   inkscape:cy="30.849988"
   inkscape:window-x="0"
   inkscape:window-y="48"
   inkscape:window-maximized="1"
   inkscape:current-layer="Capa_1" />
<path
   d="m 38.975,10 c 0.6,0.1 1.1,0.2 1.7,0.3 2.7,0.7 4.9,2.3 6.3,4.9 0.4,0.7 0.9,1.2 1.4,1.9 0.1,0.1 0.1,0.3 0,0.5 -0.2,0.6 -0.4,1.3 -0.6,1.9 -0.3,1 -0.6,1.9 -0.9,3 -0.1,-0.4 -0.2,-0.7 -0.3,-1 -0.9,-2.7 -2.3,-5 -4.7,-6.3 -2.4,-1.4 -5,-1.5 -7.5,-0.2 -2.4,1.2 -3.7,3.4 -4.2,6.1 -0.4,2.4 0,4.8 1.6,6.7 2.3,2.8 5.7,3.4 8.6,1.5 1.1,-0.8 1.8,-2 2.1,-3.4 0.5,-2.4 0,-4.5 -1.4,-6.4 -2,-2.6 -5.4,-2 -6.7,0.4 -0.9,1.7 -1.1,4.3 0.9,6 0.8,0.7 2.1,0.8 2.9,0.2 0.8,-0.6 1.2,-1.8 0.9,-2.9 -0.3,-1 -0.9,-1.4 -1.7,-1.4 -0.6,0 -0.9,0.5 -0.7,1.2 0.1,0 0.3,0 0.4,-0.1 0.6,-0.1 1,0.3 1.1,0.9 0.1,0.7 -0.2,1.3 -0.6,1.6 -0.4,0.3 -1.3,0.1 -1.8,-0.2 -0.6,-0.5 -0.9,-1.2 -1,-1.9 -0.2,-1.1 -0.1,-2.1 0.5,-3.1 0.7,-1.2 2,-1.6 3.4,-1.1 1.4,0.5 2.3,1.5 2.7,3 0.4,1.2 0.4,2.4 0.1,3.6 -0.4,1.6 -1.4,2.6 -2.8,3.2 -2.4,0.9 -4.5,0.2 -6.3,-1.8 -0.7,-0.8 -1,-1.8 -1.2,-2.8 -0.3,-1.6 -0.3,-3.2 0.4,-4.8 0.7,-1.6 1.8,-2.9 3.3,-3.6 1.6,-0.8 3.3,-0.9 5,-0.3 2,0.7 3.6,1.9 4.7,4 1.2,2.4 1.9,4.9 1.5,7.7 -0.2,1.6 -1,2.9 -2.1,4.1 -1.9,2.1 -4.3,2.8 -7,2.9 -1.5,0 -3,0 -4.3,-0.7 -2.2,-1 -3.8,-2.7 -4.9,-5 -1.1,-2.3 -1.4,-4.8 -1.2,-7.3 0.1,-1.9 0.9,-3.7 1.9,-5.2 1,-1.5 2.1,-2.8 3.5,-3.8 1.5,-1 3,-1.6 4.8,-1.9 0.2,0 0.5,-0.1 0.7,-0.1 h 1.5 z"
   id="path2"
   inkscape:connector-curvature="0" />
<path
   d="m 69.875,49.6 c 0,0.7 0,1.3 0.1,2 0.1,0.4 0.3,0.9 0.7,1.1 1.2,0.6 2.8,-0.2 3,-1.6 0.1,-1 0.1,-1.9 0,-2.9 0,-0.6 -0.4,-1.2 -0.8,-1.6 -0.5,-0.5 -1.2,-0.7 -1.9,-0.5 -0.7,0.2 -0.9,0.8 -1,1.4 -0.1,0.6 -0.1,1.3 -0.1,2.1 m 6.3,3.4 h -1.9 c -0.3,0 -0.5,-0.1 -0.5,-0.4 0,-0.2 0,-0.4 0,-0.7 v -0.3 c -0.1,0.2 -0.2,0.4 -0.2,0.5 -0.9,1.4 -2.5,1.3 -3.5,0.6 -2.2,-1.4 -2.2,-5.2 0.3,-6.7 1.1,-0.6 2.3,-0.4 3.1,0.8 0.1,0.1 0.2,0.2 0.3,0.5 0,-0.2 0,-0.3 0,-0.4 0,-1.7 0,-3.5 0,-5.2 0,-0.3 -0.1,-0.5 -0.4,-0.5 h -0.8 V 41.1 41 c 0.4,0 1,0 1.3,0 0.4,0 0.9,-0.1 1.3,-0.2 0,0.1 0,0.2 0,0.4 0,3.7 0,7.5 0,11.2 0,0.2 0,0.4 0.3,0.4 h 0.8 V 53 Z"
   id="path4"
   inkscape:connector-curvature="0" />
<path
   d="m 10.075,48.9 h 0.3 c 0,0.8 0.2,1.9 0.6,2.6 0.9,1.6 3.2,2.1 4.6,1 0.8,-0.7 1,-1.6 0.8,-2.6 -0.1,-1 -0.8,-1.4 -1.6,-1.6 -0.8,-0.2 -1.6,-0.4 -2.5,-0.5 -1.2,-0.3 -1.9,-1.1 -2.2,-2.4 -0.1,-0.7 -0.1,-1 0,-1.6 0,-0.3 0.4,-1.1 0.7,-1.6 0.8,-1.1 2.3,-1.5 3.6,-0.9 0.4,0.2 0.7,0.4 1,0.6 0.4,0.3 0.7,0.1 1,-0.3 0,-0.1 0,-0.1 0.1,-0.1 h 0.1 V 45 h -0.2 c 0,-0.1 0,-0.2 0,-0.3 -0.1,-0.8 -0.4,-1.6 -0.9,-2.3 -0.8,-1.1 -2.5,-1.4 -3.6,-0.7 -0.5,0.3 -0.7,0.8 -0.8,1.3 -0.1,0.4 -0.1,0.8 -0.1,1.3 0,0.7 0.4,1.1 1,1.3 0.8,0.2 1.5,0.4 2.3,0.6 0.7,0.2 1.5,0.3 2.1,0.8 0.6,0.4 0.9,1.1 1,1.7 0.1,0.9 0.1,1.8 -0.3,2.6 -0.5,1.4 -1.9,2.2 -3.4,2 -0.6,-0.1 -1.2,-0.4 -1.9,-0.5 -0.2,-0.1 -0.4,-0.2 -0.6,-0.2 -0.4,-0.1 -0.7,0.1 -0.7,0.7 h -0.3 v -4.4 z"
   id="path6"
   inkscape:connector-curvature="0" />
<path
   d="m 48.975,18.3 c 0.4,0.7 0.2,1.4 0.1,2.1 -0.2,1.4 -0.3,2.7 0,4.1 0.3,1.2 1,2.1 2,2.7 0.8,0.5 1.9,0.2 2.6,-0.6 1.1,-1.3 1.2,-2.8 0.6,-4.3 -0.3,-0.9 -0.9,-1.7 -1.4,-2.6 -0.2,-0.3 -0.4,-0.7 -0.6,-1 -0.1,-0.1 0,-0.3 0,-0.4 0.1,0 0.3,-0.1 0.4,0 0.2,0.1 0.3,0.3 0.4,0.5 0.7,1 1.3,2.1 1.9,3.1 0.1,0.2 0.3,0.3 0.5,0.5 0.4,0.2 0.6,0.1 0.9,-0.2 0.6,-0.7 1.2,-1.4 1.8,-2.1 0.2,-0.2 0.5,-0.3 0.7,-0.4 0.1,0 0.2,0.1 0.4,0.1 0,0.1 0,0.3 -0.1,0.4 -0.5,0.6 -1.1,1.1 -1.6,1.7 -0.9,1.1 -1.3,2.4 -1.7,3.7 -0.8,2.7 -2.3,4.8 -4.7,6.1 -1.2,0.7 -2.6,1 -3.9,0.9 -0.3,0 -0.5,-0.1 -0.5,-0.5 -0.2,-1.6 0,-3.1 0.1,-4.7 0.2,-2.6 0.7,-5.1 1.4,-7.5 0.3,-0.6 0.5,-1 0.7,-1.6"
   id="path8"
   inkscape:connector-curvature="0" />
<path
   d="m 50.875,44.7 c 0,1.5 0,2.9 0,4.5 l -0.2,-0.1 c 0,0 0,-0.2 0,-0.3 -0.1,-1.2 -0.4,-1.6 -1.6,-1.7 -0.4,0 -0.8,0 -1.1,0 -0.2,0 -0.3,0.1 -0.3,0.3 0,1.7 0,3.3 0,5 0,0.2 0.1,0.3 0.3,0.3 0.3,0 1.1,0 1.1,0 v 0.1 0.2 c -1.4,0 -3.2,0 -4.5,0 v -0.1 -0.1 h 1.2 c 0.1,0 0.2,0 0.2,-0.3 0,-3.4 0,-7.2 0,-10.5 0,-0.5 -0.1,-0.5 -0.5,-0.5 -0.3,0 -0.6,0 -0.9,0 0,-0.1 0,-0.1 0,-0.2 v -0.1 c 0.7,0 1.7,0 2.4,0 1.9,0 3.7,0 5.6,0 0.4,0 0.5,0.1 0.5,0.5 0,0.8 0.1,1.5 0.2,2.3 0,0 -0.1,0 -0.1,0.1 h -0.1 c -0.1,-0.9 -0.3,-1.8 -1,-2.2 -0.4,-0.2 -0.9,-0.4 -1.4,-0.4 -1,0 -1.8,0 -2.6,0 -0.3,0 -0.4,0.2 -0.4,0.3 0,1.6 0,3.1 0,4.7 0,0.3 0.1,0.4 0.4,0.4 0.4,0 0.8,0 1.2,0 0.9,-0.1 1.3,-0.6 1.4,-1.5 0,-0.2 0,-0.4 0.1,-0.6 0,-0.1 0,-0.1 0.1,-0.1"
   id="path10"
   inkscape:connector-curvature="0" />
<path
   d="m 33.675,51.3 0.1,0.2 c 0.3,-0.8 0.7,-1.7 1,-2.5 0,-0.1 0,-0.2 -0.1,-0.3 -0.3,-0.7 -0.5,-1.3 -0.8,-2 -0.1,-0.1 -0.2,-0.3 -0.3,-0.3 -0.6,0 -1.1,0 -1.8,0 0.6,1.6 1.3,3.2 1.9,4.9 m 3,2.2 c -0.6,-1.5 -1.2,-2.8 -1.7,-4.1 0,0 -0.1,0 -0.1,0 -0.5,1.3 -1.1,2.7 -1.7,4.1 -0.2,-0.5 -0.4,-0.9 -0.6,-1.4 -0.8,-1.9 -1.5,-3.7 -2.3,-5.6 0,-0.1 -0.2,-0.2 -0.3,-0.2 -0.2,0 -0.4,0 -0.6,0 0,0 -0.1,-0.3 -0.1,-0.3 1.7,0 3.7,0 5.4,0 0,0 1.4,0 1.8,0 0,0 0,0.2 0,0.2 h -1.3 c 0.7,1.8 1.4,3.4 2.1,5.2 0.3,-0.6 0.5,-1.1 0.7,-1.6 0.3,-0.7 0.6,-1.5 0.9,-2.2 0.1,-0.2 0.1,-0.4 0.2,-0.6 0.1,-0.4 -0.1,-0.6 -0.5,-0.7 -0.1,0 -0.5,0 -0.5,0 l -0.1,-0.3 h 2.7 v 0.2 c -0.9,0 -1.2,0.6 -1.5,1.4 -0.7,1.8 -1.4,3.6 -2.2,5.4 l -0.3,0.5"
   id="path12"
   inkscape:connector-curvature="0" />
<path
   d="M 19.075,52.7 V 41.3 c -0.3,0 -0.9,0 -1.2,0 V 41 c 0,0 0.9,0 1.2,0 0.2,0 0.5,-0.1 0.8,-0.1 0.2,0 0.3,-0.1 0.6,-0.2 v 0.5 c 0,3.6 0,7.3 0,10.9 0,0.7 0,0.6 0.6,0.6 0.2,0 0.4,0 0.7,0 V 53 h -0.3 c -1.1,0 -2.4,0 -3.5,0 v -0.3 c 0.1,0 0.7,0 1.1,0"
   id="path14"
   inkscape:connector-curvature="0" />
<path
   d="m 27.475,49.4 c 0,0 0,0 0,0 0,-0.5 0,-1 0,-1.4 0,-0.6 0,-1.1 -0.5,-1.5 -0.6,-0.6 -1.3,-0.6 -2,-0.4 -0.7,0.2 -1,0.9 -1,1.6 0,1.2 0,2.3 0,3.5 0,1.1 0.5,1.6 1.5,1.7 1,0.1 1.9,-0.3 2,-1.6 0.1,-0.6 0,-1.2 0,-1.9 m -1.7,-3.7 c 1.9,0 3.3,1.6 3.3,3.7 0,2.2 -1.4,3.8 -3.3,3.7 -1.9,0 -3.3,-1.6 -3.3,-3.8 -0.1,-2 1.4,-3.6 3.3,-3.6"
   id="path16"
   inkscape:connector-curvature="0" />
<path
   d="m 62.075,49.5 c 0,0.6 0,1.3 0.1,1.9 0.1,1 0.7,1.5 1.7,1.5 1.1,0 1.7,-0.5 1.8,-1.6 0.1,-1.2 0.1,-2.4 0,-3.6 -0.1,-1.4 -0.7,-1.8 -1.9,-1.8 -0.9,0 -1.5,0.5 -1.6,1.5 0,0.8 0,1.4 -0.1,2.1 m 1.9,-3.8 c 1.9,0 3.3,1.6 3.3,3.7 0,2.1 -1.5,3.8 -3.5,3.7 -1.8,-0.1 -3.2,-1.7 -3.2,-3.8 0.1,-2 1.5,-3.6 3.4,-3.6"
   id="path18"
   inkscape:connector-curvature="0" />
<path
   d="m 57.775,49.4 c 0,0 0,0 0,0 0,-0.5 0,-0.9 0,-1.4 0,-1.3 -0.5,-1.9 -1.5,-2 -1.1,-0.1 -2,0.4 -2,1.4 -0.1,1.4 -0.1,2.8 0,4.2 0,0.6 0.4,1.2 1,1.3 0.4,0.1 0.9,0.1 1.3,0 0.5,-0.1 0.9,-0.5 1,-1 0.2,-0.9 0.2,-1.7 0.2,-2.5 m 1.5,0.1 c 0,2.1 -1.5,3.7 -3.4,3.7 -1.8,0 -3.3,-1.7 -3.3,-3.7 0,-2.1 1.5,-3.7 3.4,-3.7 1.9,-0.1 3.3,1.6 3.3,3.7"
   id="path20"
   inkscape:connector-curvature="0" />
<path
   d="m 42.175,33.9 c 1.5,-1 2.8,-2 3.8,-3.7 0,0.6 0.1,1.1 0.1,1.7 0,1 0,1 -0.8,1.3 -0.9,0.5 -2,0.7 -3.1,0.7"
   id="path22"
   inkscape:connector-curvature="0" />
</svg>