<?xml version="1.0" encoding="utf-8"?>
<!-- Generator: Adobe Illustrator 23.0.1, SVG Export Plug-In . SVG Version: 6.00 Build 0)  -->
<svg version="1.1" id="Capa_1" xmlns="http://www.w3.org/2000/svg" xmlns:xlink="http://www.w3.org/1999/xlink" x="0px" y="0px"
	 viewBox="0 0 66.49 66.49" style="enable-background:new 0 0 66.49 66.49;" xml:space="preserve">
<style type="text/css">
	.st0{fill:#AAA5A1;}
</style>
<path class="st0" d="M41.36,33.34l-13.19,7.51V25.83L41.36,33.34z M56.22,33.34c0,0,0-8.14-0.96-12.04
	c-0.53-2.15-2.08-3.85-4.06-4.42c-3.58-1.05-17.95-1.05-17.95-1.05s-14.37,0-17.95,1.05c-1.98,0.58-3.53,2.27-4.06,4.42
	c-0.96,3.9-0.96,12.04-0.96,12.04s0,8.14,0.96,12.04c0.53,2.15,2.08,3.85,4.06,4.42c3.58,1.05,17.95,1.05,17.95,1.05
	s14.37,0,17.95-1.05c1.98-0.58,3.53-2.27,4.06-4.42C56.22,41.48,56.22,33.34,56.22,33.34"/>
</svg>
