<?xml version="1.0" encoding="utf-8"?>
<!-- Generator: Adobe Illustrator 23.0.1, SVG Export Plug-In . SVG Version: 6.00 Build 0)  -->
<svg version="1.1" id="Capa_1" xmlns="http://www.w3.org/2000/svg" xmlns:xlink="http://www.w3.org/1999/xlink" x="0px" y="0px"
	 viewBox="0 0 48 48" style="enable-background:new 0 0 48 48;" xml:space="preserve">
<style type="text/css">
	.st0{fill:#564B45;}
	.st1{fill:#FFFFFF;}
</style>
<path class="st0" d="M24,43.3c10.7,0,19.3-8.7,19.3-19.4S34.7,4.6,24,4.6S4.7,13.3,4.7,24S13.3,43.3,24,43.3"/>
<path class="st1" d="M27.8,25.6l0.5-1.3c0.2-0.6,0.5-1.5,0.5-1.5c0,0.1,0.3,1,0.5,1.5l0.5,1.3H27.8z M25,28.2h1.7l0.5-1.2h3.4
	l0.5,1.2H33l-4-8.8h-0.2L25,28.2z M19.8,28.3c1.7,0,2.9-0.7,3.6-1.9l-1.4-1c-0.5,0.7-1.1,1.3-2.2,1.3c-1.6,0-2.6-1.2-2.6-2.9
	c0-1.6,1.1-2.8,2.6-2.8c1,0,1.7,0.5,2.1,1.1l1.4-1c-0.8-1.2-1.9-1.8-3.5-1.8c-2.5,0-4.5,1.9-4.5,4.4C15.3,26.5,17.3,28.3,19.8,28.3"
	/>
</svg>
