<?xml version="1.0" encoding="UTF-8" standalone="no"?>
<!-- Generator: Adobe Illustrator 23.0.1, SVG Export Plug-In . SVG Version: 6.00 Build 0)  -->

<svg
   xmlns:dc="http://purl.org/dc/elements/1.1/"
   xmlns:cc="http://creativecommons.org/ns#"
   xmlns:rdf="http://www.w3.org/1999/02/22-rdf-syntax-ns#"
   xmlns:svg="http://www.w3.org/2000/svg"
   xmlns="http://www.w3.org/2000/svg"
   xmlns:sodipodi="http://sodipodi.sourceforge.net/DTD/sodipodi-0.dtd"
   xmlns:inkscape="http://www.inkscape.org/namespaces/inkscape"
   version="1.1"
   id="Capa_1"
   x="0px"
   y="0px"
   viewBox="0 0 5.1199997 7.7699997"
   xml:space="preserve"
   sodipodi:docname="coordenades.svg"
   width="5.1199999"
   height="7.77"
   inkscape:version="0.92.3 (2405546, 2018-03-11)"><metadata
   id="metadata9"><rdf:RDF><cc:Work
       rdf:about=""><dc:format>image/svg+xml</dc:format><dc:type
         rdf:resource="http://purl.org/dc/dcmitype/StillImage" /><dc:title></dc:title></cc:Work></rdf:RDF></metadata><defs
   id="defs7" /><sodipodi:namedview
   pagecolor="#ffffff"
   bordercolor="#666666"
   borderopacity="1"
   objecttolerance="10"
   gridtolerance="10"
   guidetolerance="10"
   inkscape:pageopacity="0"
   inkscape:pageshadow="2"
   inkscape:window-width="741"
   inkscape:window-height="480"
   id="namedview5"
   showgrid="false"
   fit-margin-top="0"
   fit-margin-left="0"
   fit-margin-right="0"
   fit-margin-bottom="0"
   inkscape:zoom="15.978334"
   inkscape:cx="2.9950002"
   inkscape:cy="3.9949998"
   inkscape:window-x="0"
   inkscape:window-y="36"
   inkscape:window-maximized="0"
   inkscape:current-layer="Capa_1" />
<path
   d="M 2.56,0 C 1.15,0 0,1.15 0,2.56 0,4.83 2.27,7.56 2.37,7.68 2.42,7.74 2.49,7.77 2.56,7.77 2.63,7.77 2.7,7.74 2.75,7.68 2.85,7.56 5.12,4.84 5.12,2.56 5.12,1.15 3.97,0 2.56,0 Z M 3.63,2.57 C 3.63,3.16 3.15,3.64 2.56,3.64 1.97,3.64 1.49,3.16 1.49,2.57 1.49,1.98 1.97,1.5 2.56,1.5 c 0.59,0 1.07,0.48 1.07,1.07 z"
   id="path2"
   inkscape:connector-curvature="0" />
</svg>