<?xml version="1.0" encoding="utf-8"?>
<!-- Generator: Adobe Illustrator 23.0.1, SVG Export Plug-In . SVG Version: 6.00 Build 0)  -->
<svg version="1.1" id="Capa_1" xmlns="http://www.w3.org/2000/svg" xmlns:xlink="http://www.w3.org/1999/xlink" x="0px" y="0px"
	 viewBox="0 0 48 48" style="enable-background:new 0 0 48 48;" xml:space="preserve">
<style type="text/css">
	.st0{fill:#564B45;}
	.st1{fill:#FFFFFF;}
</style>
<path class="st0" d="M24,43.3c10.7,0,19.3-8.7,19.3-19.4S34.7,4.6,24,4.6S4.7,13.3,4.7,24S13.3,43.3,24,43.3"/>
<path class="st1" d="M31.8,28.4H32v-8.8h-1.7v3.6c0,0.6,0.1,1.6,0.1,1.6s-0.6-0.8-1-1.2L25,19.6h-0.2v8.8h1.7v-3.6
	c0-0.6-0.1-1.6-0.1-1.6s0.6,0.8,1,1.2L31.8,28.4z M16,28.3h5.9v-1.6h-4.1v-2h3.5v-1.5h-3.5v-2h4v-1.6H16V28.3z"/>
</svg>
