<?xml version="1.0" encoding="utf-8"?>
<!-- Generator: Adobe Illustrator 23.0.1, SVG Export Plug-In . SVG Version: 6.00 Build 0)  -->
<svg version="1.1" id="Capa_1" xmlns="http://www.w3.org/2000/svg" xmlns:xlink="http://www.w3.org/1999/xlink" x="0px" y="0px"
	 viewBox="0 0 84.38 84.38" style="enable-background:new 0 0 84.38 84.38;" xml:space="preserve">
<style type="text/css">
	.st0{fill:#010202;}
</style>
<path class="st0" d="M58.55,52.74c0-2.33-1.82-4.22-4.11-4.38c-0.11,2.36-0.38,5.52-1,8.72c0.23,0.04,0.47,0.06,0.7,0.06
	C56.57,57.15,58.55,55.17,58.55,52.74 M60.93,52.74c0,3.74-3.04,6.79-6.79,6.79c-0.41,0-0.82-0.05-1.21-0.12
	c-0.38,1.49-0.84,2.94-1.42,4.28c-0.94,2.19-6.3,2.56-9.78,2.56c-0.19,0-0.39,0-0.57,0c-3.36-0.04-9.13-0.42-10-2.58
	c-2.77-6.85-2.98-17.94-2.99-19.05c-0.13-1.08,0.15-2.09,0.8-2.84c0.62-0.71,1.51-1.12,2.46-1.12h19.58c0.95,0,1.97,0.5,2.66,1.29
	c0.65,0.76,0.95,1.69,0.83,2.64c0,0.2,0.01,0.69,0,1.38C58.08,46.17,60.93,49.12,60.93,52.74 M46.38,28.72
	c-0.08,0.41-0.25,0.8-0.45,1.18c-0.2,0.38-0.47,0.73-0.75,1.06l-0.3,0.36c-0.09,0.12-0.2,0.22-0.26,0.35l-0.24,0.36
	c-0.08,0.12-0.12,0.25-0.19,0.38l-0.1,0.19l-0.07,0.2c-0.04,0.13-0.11,0.27-0.14,0.4l-0.1,0.42c-0.04,0.14-0.05,0.29-0.07,0.44
	c-0.16,1.18,0,2.48,0.32,3.87c-0.34-0.23-0.65-0.49-0.92-0.78c-0.28-0.28-0.51-0.59-0.73-0.91c-0.42-0.65-0.72-1.36-0.86-2.12
	c-0.15-0.76-0.09-1.57,0.16-2.34c0.07-0.19,0.13-0.39,0.22-0.58l0.3-0.56c0.09-0.19,0.24-0.35,0.37-0.52l0.2-0.25l0.1-0.13
	l0.05-0.06l0.04-0.04c0.79-0.87,1.19-1.87,1.2-3.06c0.01-1.18-0.34-2.46-0.83-3.82c0.74,0.4,1.33,0.95,1.84,1.55
	c0.51,0.6,0.89,1.29,1.13,2.04C46.51,27.1,46.57,27.92,46.38,28.72 M41.32,25.98c-0.08,0.41-0.25,0.8-0.45,1.18
	c-0.2,0.38-0.47,0.73-0.75,1.06l-0.3,0.36c-0.09,0.12-0.2,0.22-0.27,0.35l-0.24,0.36c-0.08,0.12-0.12,0.25-0.19,0.38l-0.1,0.19
	l-0.07,0.2c-0.04,0.14-0.11,0.27-0.14,0.41l-0.1,0.42c-0.04,0.14-0.05,0.29-0.07,0.44c-0.16,1.18,0,2.48,0.32,3.87
	c-0.34-0.23-0.65-0.49-0.92-0.78c-0.28-0.28-0.51-0.59-0.73-0.91c-0.42-0.65-0.72-1.36-0.86-2.12c-0.15-0.76-0.09-1.57,0.16-2.34
	c0.07-0.19,0.13-0.39,0.22-0.58l0.3-0.56c0.1-0.19,0.24-0.35,0.37-0.52l0.2-0.25l0.1-0.13l0.05-0.06l0.04-0.04
	c0.79-0.87,1.19-1.87,1.2-3.06c0.01-1.19-0.34-2.47-0.83-3.82c0.74,0.41,1.33,0.95,1.84,1.55c0.51,0.6,0.89,1.29,1.13,2.04
	C41.46,24.36,41.52,25.18,41.32,25.98 M79.62,42.62c0-20.6-16.7-37.31-37.31-37.31C21.7,5.31,5,22.01,5,42.62
	s16.7,37.31,37.31,37.31C62.91,79.93,79.62,63.22,79.62,42.62"/>
</svg>
