<?xml version="1.0" encoding="utf-8"?>
<!-- Generator: Adobe Illustrator 23.0.1, SVG Export Plug-In . SVG Version: 6.00 Build 0)  -->
<svg version="1.1" id="Capa_1" xmlns="http://www.w3.org/2000/svg" xmlns:xlink="http://www.w3.org/1999/xlink" x="0px" y="0px"
	 viewBox="0 0 26.09 26.09" style="enable-background:new 0 0 26.09 26.09;" xml:space="preserve">
<g>
	<path d="M19.79,7.9c0.9,0,1.62-0.73,1.62-1.63c0-0.9-0.73-1.63-1.62-1.63c-0.9,0-1.62,0.73-1.62,1.63
		C18.17,7.17,18.89,7.9,19.79,7.9"/>
	<path d="M18,25.66H8.08c-6.02,0-7.62-5-7.62-7.64V8.07c0-7.55,7.54-7.64,7.62-7.64H18c6.02,0,7.62,5,7.62,7.64v9.95
		c0,3.94-2.1,5.82-3.87,6.71C19.91,25.65,18.08,25.66,18,25.66 M8.09,2.81C7.54,2.82,2.84,3,2.84,8.07v9.95
		c0,0.53,0.19,5.26,5.24,5.26H18c0.53,0,5.24-0.19,5.24-5.26V8.07c0-0.54-0.19-5.26-5.24-5.26H8.09z"/>
	<path d="M13.04,19.82c-3.72,0-6.75-3.04-6.75-6.77c0-3.73,3.03-6.77,6.75-6.77s6.75,3.04,6.75,6.77
		C19.79,16.78,16.77,19.82,13.04,19.82 M13.04,8.65c-2.41,0-4.38,1.97-4.38,4.39c0,2.42,1.96,4.39,4.38,4.39s4.37-1.97,4.37-4.39
		C17.42,10.62,15.46,8.65,13.04,8.65"/>
</g>
</svg>
