<?xml version="1.0" encoding="utf-8"?>
<!-- Generator: Adobe Illustrator 23.0.1, SVG Export Plug-In . SVG Version: 6.00 Build 0)  -->
<svg version="1.1" id="Capa_1" xmlns="http://www.w3.org/2000/svg" xmlns:xlink="http://www.w3.org/1999/xlink" x="0px" y="0px"
	 viewBox="0 0 66.49 66.49" style="enable-background:new 0 0 66.49 66.49;" xml:space="preserve">
<style type="text/css">
	.st0{fill:#AAA5A1;}
</style>
<path class="st0" d="M40.07,33.25c0.04-1.94-0.52-3.59-1.61-4.76c-1.18-1.26-3-1.96-5.26-2.03c-0.06,0-0.12,0-0.19,0
	c-1.67,0-3.25,0.65-4.48,1.85c-1.34,1.3-2.11,3.12-2.11,4.98c0,3.77,3.06,6.83,6.83,6.83C36.99,40.11,39.99,37.1,40.07,33.25
	 M46.2,22.7c0,1.33-1.08,2.4-2.4,2.4c-1.33,0-2.4-1.08-2.4-2.4c0-1.33,1.08-2.4,2.4-2.4C45.12,20.29,46.2,21.37,46.2,22.7
	 M43.54,33.32c-0.06,2.75-1.14,5.32-3.05,7.24c-1.93,1.95-4.51,3.02-7.25,3.02c-5.68,0-10.3-4.62-10.3-10.3
	c0-2.8,1.15-5.52,3.16-7.47c1.96-1.9,4.51-2.9,7.19-2.82c3.21,0.09,5.87,1.17,7.69,3.12C42.72,27.96,43.61,30.45,43.54,33.32
	 M52.1,41.64V25.03c0-6.11-4.97-11.07-11.07-11.07H25.46c-6.11,0-11.07,4.97-11.07,11.07v16.61c0,6.11,4.97,11.07,11.07,11.07h15.57
	C47.14,52.72,52.1,47.75,52.1,41.64"/>
</svg>
