<?xml version="1.0" encoding="utf-8"?>
<!-- Generator: Adobe Illustrator 23.0.1, SVG Export Plug-In . SVG Version: 6.00 Build 0)  -->
<svg version="1.1" id="Capa_1" xmlns="http://www.w3.org/2000/svg" xmlns:xlink="http://www.w3.org/1999/xlink" x="0px" y="0px"
	 viewBox="0 0 477.89 151.28" style="enable-background:new 0 0 477.89 151.28;" xml:space="preserve">
<path d="M474.55,5.13v17.92h-39.06v78.06h-19.61V23.05h-39.06V5.13H474.55z M308.43,57.71H288.2V22.73h20.24
	c13.49,0,22.59,4.65,22.59,17.57C331.02,53.37,322.08,57.71,308.43,57.71 M350.94,40.3c0-24.21-18.2-35.17-40.78-35.17h-41.41v95.98
	h19.45V75.3h19.61l19.87,25.8h22.88l-21.89-29.19C341.84,66.43,350.94,57.25,350.94,40.3 M204.38,5.35h19.61v53.37
	c0,26.64-14.9,44.23-43.29,44.23c-28.55,0-43.45-17.59-43.45-44.23V5.35h19.61v52.08c0,16.14,8,26.96,23.84,26.96
	c15.69,0,23.69-10.82,23.69-26.96V5.35z M56.93,40.96L72.6,71.73H41.25L56.93,40.96z M56.93,3.35l-1.71,3.11L3.34,101.11h22.59
	l6.68-12.47h48.62l6.68,12.47h22.59L58.63,6.47L56.93,3.35z M171.82,138.75c0,5.33-4.32,9.65-9.65,9.65s-9.65-4.32-9.65-9.65
	s4.32-9.65,9.65-9.65S171.82,133.42,171.82,138.75 M199.05,129.1c-5.33,0-9.65,4.32-9.65,9.65s4.32,9.65,9.65,9.65
	c5.33,0,9.65-4.32,9.65-9.65S204.38,129.1,199.05,129.1"/>
</svg>
