<?xml version="1.0" encoding="utf-8"?>
<!-- Generator: Adobe Illustrator 23.0.1, SVG Export Plug-In . SVG Version: 6.00 Build 0)  -->
<svg version="1.1" id="Capa_1" xmlns="http://www.w3.org/2000/svg" xmlns:xlink="http://www.w3.org/1999/xlink" x="0px" y="0px"
	 viewBox="0 0 27.7 27.7" style="enable-background:new 0 0 27.7 27.7;" xml:space="preserve">
<style type="text/css">
	.st0{fill:#AAA5A2;}
</style>
<path class="st0" d="M13.8,7.3c-2.7-3.3-12-3.6-12-3.6v16.6c0,0,9.7-0.4,12,3.5c2.3-3.9,12-3.5,12-3.5V3.8C25.8,3.8,16.5,4,13.8,7.3
	z M9.5,16.2c-1.2,0-2.3-1-2.3-2.3s1-2.3,2.3-2.3c1.2,0,2.3,1,2.3,2.3S10.8,16.2,9.5,16.2z M18.1,16.2c-1.2,0-2.3-1-2.3-2.3
	s1-2.3,2.3-2.3c1.2,0,2.3,1,2.3,2.3S19.4,16.2,18.1,16.2z"/>
</svg>
