<?xml version="1.0" encoding="utf-8"?>
<!-- Generator: Adobe Illustrator 23.0.1, SVG Export Plug-In . SVG Version: 6.00 Build 0)  -->
<svg version="1.1" id="Capa_1" xmlns="http://www.w3.org/2000/svg" xmlns:xlink="http://www.w3.org/1999/xlink" x="0px" y="0px"
	 viewBox="0 0 122.5 122.5" style="enable-background:new 0 0 122.5 122.5;" xml:space="preserve">
<style type="text/css">
	.st0{fill:#CEC7C1;}
	.st1{fill:#FFFFFF;}
</style>
<g>
	<path class="st0" d="M61.25,122.11c33.61,0,60.86-27.25,60.86-60.86c0-33.61-27.25-60.86-60.86-60.86S0.39,27.64,0.39,61.25
		C0.39,94.86,27.64,122.11,61.25,122.11"/>
	<g>
		<path class="st1" d="M14.17,56.14h4.44c2.45,0,4.46,1.15,4.46,3.95c0,1.81-0.95,2.96-2.34,3.51l2.73,4.53h-2.82l-2.43-4.16h-1.57
			v4.16h-2.47V56.14z M18.54,61.88c1.22,0,1.99-0.48,1.99-1.8c0-1.34-0.81-1.78-1.99-1.78h-1.9v3.58H18.54z"/>
		<path class="st1" d="M27.02,56.14h7.93v2.17h-5.46v2.75h4.81v2.12h-4.81v2.78h5.71v2.17h-8.18V56.14z"/>
		<path class="st1" d="M38.28,65.76l2.01-1.16c0.53,0.86,1.22,1.5,2.43,1.5c1.02,0,1.67-0.51,1.67-1.22c0-0.85-0.67-1.15-1.8-1.64
			l-0.62-0.26c-1.78-0.76-2.96-1.71-2.96-3.72c0-1.85,1.41-3.26,3.61-3.26c1.57,0,2.7,0.55,3.51,1.97l-1.92,1.23
			c-0.42-0.76-0.88-1.06-1.59-1.06c-0.72,0-1.18,0.46-1.18,1.06c0,0.74,0.46,1.04,1.52,1.5l0.62,0.26c2.1,0.9,3.28,1.82,3.28,3.88
			c0,2.22-1.74,3.44-4.09,3.44C40.48,68.28,39,67.19,38.28,65.76z"/>
		<path class="st1" d="M50.54,56.14h7.93v2.17h-5.46v2.75h4.81v2.12h-4.81v2.78h5.71v2.17h-8.18V56.14z"/>
		<path class="st1" d="M62.77,56.14h4.44c2.45,0,4.46,1.15,4.46,3.95c0,1.81-0.95,2.96-2.34,3.51l2.73,4.53h-2.82l-2.43-4.16h-1.57
			v4.16h-2.47V56.14z M67.14,61.88c1.22,0,1.99-0.48,1.99-1.8c0-1.34-0.81-1.78-1.99-1.78h-1.9v3.58H67.14z"/>
		<path class="st1" d="M74.21,56.14h2.64l2.06,4.62c0.42,0.97,0.88,2.56,0.93,2.71c0.02-0.09,0.46-1.69,0.92-2.71l2.01-4.62h2.4
			l-5.25,12.09h-0.25L74.21,56.14z"/>
		<path class="st1" d="M90.67,56.03h0.21l5.48,12.09h-2.59L93.1,66.5h-4.65l-0.67,1.62H85.4L90.67,56.03z M92.22,64.44l-0.76-1.82
			c-0.33-0.79-0.69-2.01-0.72-2.13c-0.02,0.05-0.37,1.3-0.7,2.13l-0.76,1.82H92.22z"/>
		<path class="st1" d="M99.74,56.14h4.44c2.45,0,4.46,1.15,4.46,3.95c0,1.81-0.95,2.96-2.34,3.51l2.73,4.53h-2.82l-2.43-4.16h-1.57
			v4.16h-2.47V56.14z M104.11,61.88c1.22,0,1.99-0.48,1.99-1.8c0-1.34-0.81-1.78-1.99-1.78h-1.9v3.58H104.11z"/>
	</g>
</g>
</svg>
