<?xml version="1.0" encoding="utf-8"?>
<!-- Generator: Adobe Illustrator 23.0.1, SVG Export Plug-In . SVG Version: 6.00 Build 0)  -->
<svg version="1.1" id="Capa_1" xmlns="http://www.w3.org/2000/svg" xmlns:xlink="http://www.w3.org/1999/xlink" x="0px" y="0px"
	 viewBox="0 0 66.49 66.49" style="enable-background:new 0 0 66.49 66.49;" xml:space="preserve">
<style type="text/css">
	.st0{fill:#AAA5A1;}
</style>
<g>
	<path class="st0" d="M24.81,45c-3.83-0.08-7.21-2.56-8.42-6.2c1.28,0.28,2.62,0.28,3.9,0c-2.46-0.52-4.59-2.02-5.89-4.17
		c-0.9-1.45-1.36-3.13-1.33-4.83c1.2,0.66,2.53,1.03,3.9,1.09c-1.95-1.27-3.35-3.23-3.9-5.5c-0.52-2.23-0.17-4.57,0.97-6.55
		c4.62,5.64,11.39,9.08,18.68,9.47v-0.97c-0.75-4.94,2.65-9.55,7.59-10.3c2.97-0.45,5.97,0.6,8.01,2.81c0.14,0.08,0.32,0.08,0.47,0
		c1.85-0.4,3.62-1.08,5.26-2.03c-0.69,2.04-2.07,3.78-3.9,4.91c1.74-0.2,3.43-0.66,5.03-1.36l-1.05,1.36
		c-0.96,1.18-2.06,2.22-3.28,3.12c-0.04,0.09-0.04,0.19,0,0.27c0.1,1.3,0.1,2.6,0,3.9c-0.35,2.8-1.14,5.52-2.34,8.07
		c-1.26,2.64-2.96,5.06-5.03,7.14c-3.36,3.5-7.69,5.92-12.44,6.94c-1.65,0.35-3.34,0.55-5.03,0.59c-5.12,0.18-10.17-1.18-14.5-3.9
		h-0.2c3.07,0.35,6.18-0.08,9.05-1.25C21.96,46.96,23.46,46.08,24.81,45"/>
</g>
</svg>
